<svg width="570" height="570" viewBox="0 0 570 570" fill="none" xmlns="http://www.w3.org/2000/svg">
<path d="M422.802 185.421H147.204V394.726H422.802V185.421Z" fill="#EBEBEB"/>
<path d="M132.665 394.726H147.204L147.204 185.421H132.665L132.665 394.726Z" fill="#DBDBDB"/>
<path d="M422.802 185.421H147.204V208.001H422.802V185.421Z" fill="#CF0303"/>
<path d="M203.891 230.474H176.588V258.019H203.891V230.474Z" fill="#CF0303"/>
<path opacity="0.8" d="M203.891 230.474H176.588V258.019H203.891V230.474Z" fill="white"/>
<path d="M235.462 230.474H208.159V258.019H235.462V230.474Z" fill="white"/>
<path d="M267.069 230.474H239.766V258.019H267.069V230.474Z" fill="white"/>
<path d="M298.652 230.474H271.349V258.019H298.652V230.474Z" fill="white"/>
<path d="M330.24 230.474H302.938V258.019H330.24V230.474Z" fill="white"/>
<path d="M361.823 230.474H334.52V258.019H361.823V230.474Z" fill="white"/>
<path d="M393.412 230.474H366.109V258.019H393.412V230.474Z" fill="white"/>
<path d="M203.891 261.625H176.588V289.169H203.891V261.625Z" fill="#CF0303"/>
<path opacity="0.8" d="M203.891 261.625H176.588V289.169H203.891V261.625Z" fill="white"/>
<path d="M235.48 261.625H208.177V289.169H235.48V261.625Z" fill="white"/>
<path d="M267.063 261.625H239.76V289.169H267.063V261.625Z" fill="white"/>
<path d="M298.652 261.625H271.349V289.169H298.652V261.625Z" fill="white"/>
<path d="M330.24 261.625H302.938V289.169H330.24V261.625Z" fill="white"/>
<path d="M361.829 261.625H334.526V289.169H361.829V261.625Z" fill="white"/>
<path d="M393.412 261.625H366.109V289.169H393.412V261.625Z" fill="white"/>
<path d="M203.891 292.775H176.588V320.32H203.891V292.775Z" fill="#CF0303"/>
<path opacity="0.8" d="M203.891 292.775H176.588V320.32H203.891V292.775Z" fill="white"/>
<path d="M235.48 292.775H208.177V320.32H235.48V292.775Z" fill="white"/>
<path d="M267.069 292.775H239.766V320.32H267.069V292.775Z" fill="white"/>
<path d="M298.652 292.775H271.349V320.32H298.652V292.775Z" fill="white"/>
<path d="M330.24 292.775H302.938V320.32H330.24V292.775Z" fill="white"/>
<path d="M361.823 292.775H334.52V320.32H361.823V292.775Z" fill="white"/>
<path d="M393.412 292.775H366.109V320.32H393.412V292.775Z" fill="white"/>
<path d="M203.891 323.926H176.588V351.47H203.891V323.926Z" fill="#CF0303"/>
<path opacity="0.8" d="M203.891 323.926H176.588V351.47H203.891V323.926Z" fill="white"/>
<path d="M235.48 323.926H208.177V351.47H235.48V323.926Z" fill="white"/>
<path d="M267.063 323.926H239.76V351.47H267.063V323.926Z" fill="white"/>
<path d="M298.652 323.926H271.349V351.47H298.652V323.926Z" fill="white"/>
<path d="M330.24 323.926H302.938V351.47H330.24V323.926Z" fill="white"/>
<path d="M361.829 323.926H334.526V351.47H361.829V323.926Z" fill="white"/>
<path d="M393.412 323.926H366.109V351.47H393.412V323.926Z" fill="white"/>
<path d="M203.891 355.077H176.588V382.621H203.891V355.077Z" fill="#CF0303"/>
<path opacity="0.8" d="M203.891 355.077H176.588V382.621H203.891V355.077Z" fill="white"/>
<path d="M235.48 355.082H208.177V382.627H235.48V355.082Z" fill="white"/>
<path d="M267.063 355.077H239.76V382.621H267.063V355.077Z" fill="white"/>
<path d="M298.652 355.077H271.349V382.621H298.652V355.077Z" fill="white"/>
<path d="M330.24 355.077H302.938V382.621H330.24V355.077Z" fill="white"/>
<path d="M361.823 355.077H334.52V382.621H361.823V355.077Z" fill="white"/>
<path d="M393.412 355.077H366.109V382.621H393.412V355.077Z" fill="white"/>
<path d="M187 223.612C186.871 223.472 186.712 223.365 186.535 223.298C186.329 223.211 186.107 223.169 185.883 223.173C185.604 223.15 185.327 223.223 185.095 223.381C185.014 223.448 184.95 223.534 184.907 223.63C184.864 223.727 184.844 223.832 184.848 223.938C184.842 224.045 184.864 224.152 184.913 224.247C184.963 224.332 185.034 224.404 185.119 224.454C185.229 224.519 185.348 224.569 185.471 224.602L185.977 224.733C186.176 224.77 186.373 224.822 186.565 224.887C186.724 224.937 186.874 225.011 187.012 225.107C187.131 225.186 187.228 225.294 187.294 225.421C187.362 225.565 187.394 225.724 187.388 225.884C187.392 226.056 187.355 226.226 187.282 226.382C187.208 226.519 187.103 226.637 186.976 226.726C186.837 226.825 186.679 226.896 186.512 226.933C186.319 226.98 186.122 227.002 185.924 226.999C185.323 227.012 184.739 226.801 184.284 226.406L184.484 226.073C184.562 226.155 184.649 226.229 184.742 226.293C184.966 226.444 185.218 226.547 185.483 226.595C185.632 226.627 185.784 226.643 185.936 226.643C186.2 226.657 186.463 226.596 186.694 226.465C186.784 226.408 186.857 226.328 186.906 226.233C186.955 226.138 186.977 226.032 186.97 225.925C186.972 225.814 186.946 225.704 186.894 225.605C186.838 225.509 186.757 225.431 186.659 225.379C186.537 225.307 186.407 225.251 186.271 225.213C186.118 225.166 185.942 225.119 185.736 225.071C185.53 225.024 185.336 224.97 185.148 224.917C185.004 224.869 184.868 224.801 184.742 224.715C184.637 224.637 184.55 224.536 184.489 224.419C184.432 224.286 184.404 224.142 184.407 223.998C184.405 223.822 184.441 223.647 184.513 223.487C184.581 223.34 184.687 223.213 184.819 223.12C184.955 223.014 185.111 222.938 185.277 222.894C185.71 222.771 186.17 222.785 186.594 222.936C186.81 223.017 187.009 223.138 187.182 223.292L187 223.612Z" fill="#37474F"/>
<path d="M189.757 226.631C189.98 226.637 190.2 226.586 190.398 226.483C190.563 226.387 190.702 226.253 190.804 226.091C190.911 225.925 190.984 225.74 191.021 225.545C191.058 225.34 191.078 225.132 191.08 224.923V222.841H191.48V224.923C191.481 225.188 191.452 225.453 191.392 225.712C191.337 225.951 191.235 226.177 191.092 226.376C190.954 226.567 190.773 226.722 190.563 226.827C190.308 226.94 190.033 226.998 189.754 226.998C189.476 226.998 189.201 226.94 188.946 226.827C188.734 226.719 188.553 226.56 188.417 226.364C188.277 226.164 188.179 225.938 188.129 225.7C188.07 225.449 188.04 225.192 188.041 224.935V222.853H188.434V224.935C188.435 225.148 188.457 225.36 188.499 225.569C188.539 225.763 188.612 225.948 188.717 226.115C188.819 226.273 188.958 226.404 189.122 226.494C189.318 226.596 189.537 226.643 189.757 226.631Z" fill="#37474F"/>
<path d="M192.856 223.6V226.963H192.45V222.841H192.762L195.466 226.275V222.847H195.872V226.963H195.519L192.856 223.6Z" fill="#37474F"/>
<path d="M219.053 226.963V223.565L217.56 226.18H217.325L215.831 223.565V226.945H215.432V222.823H215.843L217.442 225.646L219.047 222.823H219.453V226.945L219.053 226.963Z" fill="#37474F"/>
<path d="M222.128 226.993C221.857 226.996 221.589 226.935 221.346 226.815C221.12 226.702 220.92 226.542 220.758 226.346C220.587 226.149 220.453 225.922 220.364 225.676C220.271 225.43 220.223 225.168 220.223 224.905C220.224 224.635 220.274 224.368 220.37 224.116C220.466 223.87 220.603 223.644 220.776 223.446C220.942 223.256 221.141 223.1 221.364 222.983C221.601 222.87 221.86 222.811 222.122 222.811C222.393 222.809 222.661 222.872 222.904 222.995C223.128 223.116 223.328 223.279 223.492 223.475C223.658 223.675 223.789 223.902 223.88 224.146C223.973 224.39 224.021 224.649 224.021 224.911C224.021 225.447 223.824 225.965 223.468 226.364C223.302 226.553 223.103 226.71 222.881 226.827C222.645 226.937 222.388 226.994 222.128 226.993ZM220.611 224.905C220.61 225.125 220.647 225.344 220.723 225.551C220.791 225.753 220.897 225.941 221.034 226.103C221.164 226.264 221.326 226.396 221.511 226.489C221.702 226.585 221.914 226.634 222.128 226.631C222.345 226.633 222.559 226.58 222.751 226.477C222.935 226.378 223.099 226.246 223.233 226.085C223.497 225.747 223.64 225.329 223.639 224.899C223.641 224.678 223.603 224.459 223.527 224.252C223.454 224.053 223.349 223.866 223.216 223.701C223.082 223.542 222.918 223.413 222.734 223.321C222.542 223.226 222.33 223.176 222.116 223.176C221.902 223.176 221.691 223.226 221.499 223.321C221.316 223.418 221.154 223.551 221.023 223.713C220.889 223.877 220.785 224.064 220.717 224.264C220.646 224.47 220.61 224.687 220.611 224.905Z" fill="#37474F"/>
<path d="M225.209 223.6V226.963H224.803V222.841H225.115L227.819 226.275V222.847H228.225V226.963H227.872L225.209 223.6Z" fill="#37474F"/>
<path d="M251.148 223.203H249.69V226.963H249.284V223.203H247.832V222.841H251.148V223.203Z" fill="#37474F"/>
<path d="M253.411 226.631C253.636 226.637 253.858 226.586 254.058 226.483C254.222 226.387 254.362 226.253 254.464 226.091C254.566 225.924 254.638 225.739 254.675 225.545C254.717 225.341 254.739 225.132 254.74 224.923V222.841H255.14V224.923C255.142 225.189 255.11 225.454 255.046 225.712C254.993 225.951 254.893 226.176 254.752 226.376C254.613 226.568 254.429 226.723 254.217 226.827C253.967 226.946 253.693 227.002 253.417 226.993C253.136 227.002 252.857 226.941 252.606 226.815C252.393 226.707 252.209 226.548 252.071 226.352C251.934 226.151 251.836 225.926 251.783 225.688C251.726 225.437 251.698 225.18 251.7 224.923V222.841H252.077V224.923C252.077 225.136 252.099 225.348 252.141 225.557C252.178 225.752 252.252 225.937 252.359 226.103C252.461 226.261 252.6 226.392 252.764 226.483C252.961 226.594 253.186 226.645 253.411 226.631Z" fill="#37474F"/>
<path d="M258.85 226.607V226.963H256.104V222.841H258.797V223.203H256.504V224.691H258.503V225.029H256.504V226.607H258.85Z" fill="#37474F"/>
<path d="M280.226 222.871H280.608L281.196 224.336L281.784 222.871H282.166L281.455 224.65L282.237 226.512L283.718 222.859H284.153L282.425 226.981H282.06L281.202 224.946L280.338 226.981H279.985L278.262 222.859H278.691L280.179 226.512L280.955 224.65L280.226 222.871Z" fill="#37474F"/>
<path d="M287.457 226.607V226.963H284.712V222.841H287.405V223.203H285.118V224.691H287.116V225.029H285.118V226.607H287.457Z" fill="#37474F"/>
<path d="M288.222 226.963V222.841H289.603C289.898 222.833 290.191 222.89 290.462 223.007C290.686 223.11 290.886 223.26 291.05 223.446C291.213 223.637 291.337 223.859 291.414 224.098C291.498 224.357 291.54 224.627 291.538 224.899C291.544 225.188 291.498 225.475 291.402 225.747C291.317 225.99 291.183 226.212 291.008 226.4C290.835 226.582 290.624 226.723 290.391 226.815C290.133 226.918 289.857 226.968 289.58 226.963H288.222ZM291.161 224.899C291.164 224.667 291.128 224.437 291.055 224.217C290.99 224.02 290.888 223.836 290.756 223.677C290.62 223.526 290.453 223.407 290.268 223.327C290.057 223.241 289.831 223.198 289.603 223.203H288.621V226.607H289.603C289.835 226.61 290.065 226.566 290.279 226.477C290.465 226.394 290.63 226.271 290.761 226.115C290.896 225.957 290.998 225.774 291.061 225.575C291.129 225.356 291.162 225.128 291.161 224.899Z" fill="#37474F"/>
<path d="M313.949 223.203H312.491V226.963H312.085V223.203H310.633V222.841H313.949V223.203Z" fill="#37474F"/>
<path d="M317.782 222.841V226.963H317.382V225.035H314.984V226.963H314.578V222.841H314.984V224.679H317.406V222.841H317.782Z" fill="#37474F"/>
<path d="M320.463 226.631C320.685 226.637 320.906 226.586 321.104 226.483C321.27 226.388 321.412 226.253 321.515 226.091C321.618 225.924 321.689 225.739 321.727 225.545C321.767 225.34 321.786 225.132 321.786 224.923V222.841H322.191V224.923C322.194 225.189 322.162 225.454 322.097 225.712C322.044 225.951 321.944 226.176 321.803 226.376C321.663 226.567 321.48 226.722 321.268 226.827C321.019 226.946 320.745 227.002 320.469 226.993C320.188 227.002 319.909 226.941 319.657 226.815C319.444 226.707 319.261 226.548 319.122 226.352C318.985 226.151 318.888 225.926 318.834 225.688C318.775 225.437 318.746 225.18 318.746 224.923V222.841H319.146V224.923C319.144 225.136 319.165 225.349 319.211 225.557C319.248 225.751 319.32 225.935 319.422 226.103C319.535 226.275 319.691 226.413 319.873 226.506C320.056 226.599 320.259 226.642 320.463 226.631Z" fill="#37474F"/>
<path d="M344.38 226.963V222.841H347.061V223.203H344.786V224.751H346.732V225.083H344.809V226.993L344.38 226.963Z" fill="#37474F"/>
<path d="M347.79 226.963V222.841H349.518C349.685 222.841 349.85 222.879 350 222.954C350.144 223.028 350.274 223.129 350.382 223.25C350.601 223.494 350.722 223.811 350.723 224.14C350.722 224.286 350.701 224.432 350.659 224.573C350.616 224.704 350.554 224.827 350.476 224.94C350.398 225.051 350.301 225.145 350.188 225.219C350.076 225.298 349.947 225.351 349.812 225.373L350.817 226.963H350.359L349.4 225.445H348.189V226.963H347.79ZM348.189 225.083H349.524C349.638 225.085 349.752 225.059 349.853 225.006C349.949 224.953 350.034 224.88 350.1 224.792C350.171 224.701 350.226 224.599 350.265 224.49C350.302 224.377 350.322 224.259 350.323 224.14C350.323 224.016 350.299 223.893 350.253 223.778C350.175 223.561 350.017 223.382 349.812 223.28C349.714 223.228 349.605 223.202 349.495 223.203H348.189V225.083Z" fill="#37474F"/>
<path d="M351.546 226.963V222.841H351.952V226.963H351.546Z" fill="#37474F"/>
<path d="M377.532 223.612C377.404 223.472 377.245 223.365 377.068 223.298C376.861 223.211 376.639 223.169 376.415 223.173C376.135 223.151 375.856 223.224 375.621 223.381C375.54 223.448 375.476 223.534 375.433 223.63C375.39 223.727 375.37 223.832 375.374 223.938C375.372 224.04 375.395 224.142 375.442 224.232C375.49 224.322 375.56 224.399 375.645 224.454C375.758 224.518 375.879 224.568 376.004 224.602L376.509 224.733C376.708 224.771 376.905 224.823 377.097 224.887C377.254 224.937 377.403 225.011 377.538 225.107C377.657 225.187 377.756 225.295 377.826 225.421C377.894 225.565 377.926 225.724 377.92 225.884C377.924 226.056 377.888 226.226 377.814 226.382C377.74 226.519 377.636 226.637 377.509 226.726C377.367 226.825 377.207 226.896 377.038 226.933C376.846 226.98 376.648 227.002 376.45 226.999C375.848 227.011 375.262 226.8 374.804 226.405L375.01 226.073C375.088 226.155 375.175 226.229 375.269 226.293C375.492 226.444 375.745 226.547 376.009 226.595C376.156 226.626 376.306 226.642 376.456 226.643C376.723 226.658 376.988 226.596 377.221 226.465C377.311 226.408 377.384 226.328 377.432 226.233C377.481 226.138 377.503 226.032 377.497 225.925C377.5 225.813 377.472 225.702 377.415 225.605C377.36 225.51 377.281 225.432 377.185 225.379C377.063 225.308 376.933 225.252 376.797 225.213C376.644 225.166 376.468 225.118 376.262 225.071C376.056 225.024 375.862 224.97 375.674 224.917C375.53 224.869 375.394 224.801 375.269 224.715C375.163 224.637 375.077 224.536 375.016 224.419C374.958 224.286 374.93 224.142 374.934 223.997C374.931 223.822 374.967 223.647 375.039 223.487C375.107 223.341 375.21 223.215 375.339 223.12C375.478 223.015 375.636 222.939 375.804 222.894C375.995 222.838 376.193 222.81 376.392 222.811C376.638 222.807 376.883 222.849 377.115 222.936C377.331 223.016 377.53 223.137 377.703 223.292L377.532 223.612Z" fill="#37474F"/>
<path d="M379.831 222.841H380.172L381.871 226.963H381.418L380.889 225.676H379.067L378.543 226.963H378.108L379.831 222.841ZM380.83 225.344L380.007 223.309L379.167 225.344H380.83Z" fill="#37474F"/>
<path d="M384.946 223.203H383.488V226.963H383.088V223.203H381.63V222.841H384.946V223.203Z" fill="#37474F"/>
<path d="M230.588 235.925H213.039V237.301H230.588V235.925Z" fill="#C7C7C7"/>
<path d="M222.969 238.944H213.039V240.32H222.969V238.944Z" fill="#C7C7C7"/>
<path d="M261.907 360.462H244.357V361.838H261.907V360.462Z" fill="#C7C7C7"/>
<path d="M254.287 363.475H244.357V364.851H254.287V363.475Z" fill="#C7C7C7"/>
<path d="M324.943 328.76H307.394V330.136H324.943V328.76Z" fill="#C7C7C7"/>
<path d="M316.583 334.798H307.394V336.174H316.583V334.798Z" fill="#C7C7C7"/>
<path d="M320.046 331.779H307.394V333.155H320.046V331.779Z" fill="#C7C7C7"/>
<path d="M253.1 303.962H243.911V305.338H253.1V303.962Z" fill="#C7C7C7"/>
<path d="M256.563 300.949H243.911V302.325H256.563V300.949Z" fill="#C7C7C7"/>
<path d="M266.057 299.519L265.987 299.371C266.134 299.685 266.051 299.513 266.057 299.519Z" fill="#3E494E"/>
<path d="M267.198 302.734L267.18 302.675L267.298 303.167L267.198 302.734Z" fill="#3E494E"/>
<path d="M267.521 305.901C267.549 305.327 267.525 304.751 267.451 304.181V304.086C267.441 304.002 267.425 303.919 267.404 303.837C267.505 304.52 267.544 305.211 267.521 305.901Z" fill="#3E494E"/>
<path d="M267.286 307.58C267.316 307.479 267.239 307.941 267.357 307.194V307.265C267.327 307.331 267.316 307.425 267.286 307.58Z" fill="#3E494E"/>
<path d="M267.362 307.265C267.421 306.933 267.321 307.479 267.362 307.265Z" fill="#3E494E"/>
<path d="M266.998 308.76C267.044 308.622 267.081 308.481 267.11 308.339C267.084 308.449 267.049 308.556 267.004 308.659C266.874 309.086 266.91 309.003 266.998 308.76Z" fill="#3E494E"/>
<path d="M266.898 309.163L266.963 308.95C266.934 309.018 266.912 309.09 266.898 309.163Z" fill="#3E494E"/>
<path d="M267.098 308.487L266.963 308.95C266.995 308.883 267.015 308.81 267.022 308.736C267.022 308.778 267.039 308.683 267.098 308.487Z" fill="#3E494E"/>
<path d="M267.168 308.22C267.227 307.983 267.31 307.675 267.215 308.108C267.27 307.914 267.305 307.715 267.321 307.514C267.315 307.574 267.268 307.787 267.168 308.22Z" fill="#3E494E"/>
<path d="M267.544 306.067V305.735V305.45C267.556 305.593 267.533 306.091 267.544 306.067Z" fill="#3E494E"/>
<path d="M265.834 311.209C265.834 311.239 265.928 311.097 265.957 311.073L266.11 310.794C266.022 310.931 265.858 311.198 265.834 311.209Z" fill="#3E494E"/>
<path d="M265.957 311.073C265.88 311.217 265.794 311.356 265.699 311.488C265.957 311.138 265.969 311.055 265.957 311.073Z" fill="#3E494E"/>
<path d="M266.904 309.252L267.127 308.481C267.033 308.784 266.963 309.074 266.851 309.395L266.904 309.252Z" fill="#3E494E"/>
<path d="M264.693 312.645L264.864 312.431L264.552 312.805L264.693 312.645Z" fill="#3E494E"/>
<path d="M263.835 313.481C263.97 313.333 263.606 313.635 263.753 313.481L263.094 314.039C263.282 313.873 263.523 313.718 263.835 313.481Z" fill="#3E494E"/>
<path d="M262.741 314.312C262.857 314.231 262.969 314.144 263.076 314.051C262.97 314.14 262.853 314.217 262.741 314.312Z" fill="#3E494E"/>
<path d="M265.205 312.141C265.109 312.223 265.02 312.315 264.94 312.413L265.082 312.289L265.205 312.141Z" fill="#3E494E"/>
<path d="M265.087 312.283C265.004 312.39 264.914 312.491 264.817 312.586C264.913 312.491 265.004 312.389 265.087 312.283Z" fill="#3E494E"/>
<path d="M266.375 310.409C266.269 310.676 265.963 311.186 266.275 310.705C266.363 310.516 266.187 310.806 266.375 310.409Z" fill="#3E494E"/>
<path d="M265.411 311.939C265.516 311.809 265.611 311.666 265.716 311.524C265.716 311.524 265.64 311.601 265.716 311.482C265.599 311.637 265.516 311.791 265.411 311.939Z" fill="#3E494E"/>
<path d="M265.258 312.141L265.411 311.939L265.287 312.087L265.258 312.141Z" fill="#3E494E"/>
<path d="M263.464 313.819C263.294 313.956 263.112 314.116 262.876 314.27C263.129 314.116 263.359 313.92 263.594 313.748C263.623 313.718 263.711 313.623 263.464 313.819Z" fill="#3E494E"/>
<path d="M260.537 315.569L260.578 315.557L260.584 315.545L260.537 315.569Z" fill="#3E494E"/>
<path d="M263.641 313.718C263.768 313.623 263.886 313.516 263.994 313.398C263.869 313.52 263.737 313.635 263.6 313.742C263.6 313.742 263.588 313.766 263.641 313.718Z" fill="#3E494E"/>
<path d="M262.118 314.721C262.232 314.667 262.342 314.606 262.447 314.537L262.118 314.721Z" fill="#3E494E"/>
<path d="M264.2 313.196C264.176 313.214 264.164 313.214 264.2 313.196Z" fill="#3E494E"/>
<path d="M264.199 313.196L263.994 313.404L264.264 313.155L264.199 313.196Z" fill="#3E494E"/>
<path d="M259.867 316.091C260.193 315.903 260.536 315.745 260.89 315.616C261.331 315.379 260.99 315.427 260.578 315.557C260.578 315.557 260.578 315.557 260.114 315.794C260.29 315.765 261.16 315.385 260.784 315.587C260.523 315.726 260.247 315.834 259.961 315.907C260.102 315.871 259.908 315.966 259.696 316.073C259.484 316.18 259.255 316.263 259.337 316.275C259.526 316.204 259.708 316.132 259.89 316.043C259.902 316.049 259.72 316.144 259.867 316.091Z" fill="#3E494E"/>
<path d="M261.448 315.142L261.63 315.035C261.417 315.149 261.195 315.244 260.966 315.32C260.832 315.383 260.704 315.459 260.584 315.545C260.89 315.397 261.207 315.261 261.507 315.106L261.448 315.142Z" fill="#3E494E"/>
<path d="M262.436 314.567C262.324 314.697 261.889 314.946 262.177 314.828C262.404 314.687 262.62 314.531 262.824 314.359C262.001 314.911 263.047 314.193 262.442 314.567L262.883 314.27L262.448 314.537C262.448 314.537 262.448 314.537 262.418 314.573C262.177 314.727 262.377 314.573 262.448 314.537C262.183 314.733 261.86 314.875 261.607 315.047C261.807 314.934 262.071 314.822 262.436 314.567Z" fill="#3E494E"/>
<path d="M266.051 311.192C265.998 311.274 265.992 311.297 266.051 311.192Z" fill="#3E494E"/>
<path d="M265.816 311.53C265.851 311.465 265.893 311.399 266.01 311.215C266.075 311.091 266.245 310.777 266.01 311.156L265.975 311.215C265.818 311.451 265.648 311.677 265.463 311.892C265.588 311.779 265.706 311.658 265.816 311.53Z" fill="#3E494E"/>
<path d="M264.264 313.256C264.058 313.44 263.87 313.641 263.676 313.813C263.793 313.735 263.905 313.65 264.011 313.558C264.317 313.25 264.229 313.309 264.264 313.256Z" fill="#3E494E"/>
<path d="M260.443 315.587L260.525 315.51L260.107 315.735L260.443 315.587Z" fill="#3E494E"/>
<path d="M259.449 315.978L259.473 315.937L259.214 316.042L259.449 315.978Z" fill="#3E494E"/>
<path d="M264.076 298.036H264.023C264.093 298.078 264.123 298.095 264.076 298.036Z" fill="#3E494E"/>
<path d="M239.037 307.301C239.095 306.951 239.178 306.571 239.113 306.613L239.054 306.714C239.062 306.91 239.056 307.106 239.037 307.301Z" fill="#3E494E"/>
<path d="M250.277 295.237H250.172L249.948 295.349L250.277 295.237Z" fill="#3E494E"/>
<path d="M266.674 309.062L266.622 309.371C266.774 308.926 266.692 309.11 266.674 309.062Z" fill="#3E494E"/>
<path d="M248.655 317.188C248.355 317.147 248.126 317.069 247.92 317.034C248.153 317.131 248.402 317.183 248.655 317.188Z" fill="#3E494E"/>
<path d="M264.27 299.318C264.37 299.418 264.423 299.46 264.429 299.448C264.323 299.341 264.258 299.282 264.27 299.318Z" fill="#3E494E"/>
<path d="M247.073 316.85L247.226 316.909C247.438 316.945 247.661 316.975 247.92 317.034C247.642 316.955 247.359 316.893 247.073 316.85Z" fill="#3E494E"/>
<path d="M239.777 306.286V306.209C239.773 306.235 239.773 306.261 239.777 306.286Z" fill="#3E494E"/>
<path d="M255.275 316.974C255.498 316.933 255.31 316.974 255.275 316.974Z" fill="#3E494E"/>
<path d="M256.392 316.957C256.345 316.957 256.31 316.957 256.31 316.992C256.335 316.976 256.363 316.964 256.392 316.957Z" fill="#3E494E"/>
<path d="M255.563 316.927L255.763 316.898C255.763 316.898 255.763 316.886 255.563 316.927Z" fill="#3E494E"/>
<path d="M254.963 317.022L255.328 316.975H255.275L254.963 317.022Z" fill="#3E494E"/>
<path d="M252.759 316.548H252.712C252.482 316.589 252.582 316.577 252.759 316.548Z" fill="#3E494E"/>
<path d="M240.394 300.67C240.29 300.932 240.152 301.179 239.983 301.405L240.289 301.269C240.318 301.097 240.318 300.883 240.394 300.67Z" fill="#3E494E"/>
<path d="M267.016 303.458L266.927 302.864C267.216 303.546 267.239 304.092 267.227 303.505C267.037 303.14 266.895 302.751 266.804 302.348C266.628 301.755 266.363 301.251 266.263 301.251C266.228 301.121 266.175 301.002 266.128 300.877L266.245 301.091C265.987 300.356 265.875 300.64 265.387 299.786C265.199 299.495 265.087 299.282 265.24 299.46C265.087 299.251 264.92 299.053 264.74 298.867C264.599 298.689 264.664 298.707 264.799 298.867L264.423 298.416L264.011 298.001C263.876 297.894 263.565 297.675 263.423 297.574C263.224 297.354 263.547 297.657 263.512 297.574C263.335 297.449 263.171 297.307 262.988 297.194C262.818 296.987 263.271 297.271 263.576 297.586C263.253 297.034 263.165 297.242 262.159 296.399C262.341 296.495 262.516 296.604 262.683 296.726C262.542 296.544 262.371 296.39 262.177 296.269C261.965 296.115 261.724 295.949 261.425 295.753C261.572 295.848 262.524 296.643 261.901 296.305C261.676 296.137 261.429 296.003 261.166 295.907C261.201 295.842 260.872 295.67 260.443 295.498L260.507 295.421C260.271 295.325 260.021 295.267 259.767 295.249C259.496 295.178 259.249 295.037 259.049 294.84C258.191 294.59 259.637 295.118 258.591 294.84C258.27 294.727 257.939 294.647 257.603 294.602C257.233 294.543 256.86 294.509 256.486 294.501C255.98 294.407 256.58 294.448 256.404 294.401L255.945 294.43C255.833 294.43 255.869 294.401 255.886 294.389C255.504 294.389 255.851 294.484 255.251 294.484C255.093 294.573 254.017 294.294 253.282 294.484C253.1 294.484 253.364 294.418 253.311 294.383C252.742 294.447 252.181 294.569 251.636 294.745C251.395 294.745 251.16 294.745 250.924 294.792C251.448 294.762 250.807 294.976 250.26 295.172H250.713L249.825 295.409C249.713 295.409 249.796 295.367 249.931 295.296L249.772 295.356C249.449 295.403 249.596 295.296 249.813 295.189H250.154C250.366 295.083 250.56 294.976 250.501 294.928C250.442 294.881 250.336 294.982 250.213 295.017C250.266 294.988 250.301 294.964 250.272 294.958C250.179 294.983 250.089 295.014 250.001 295.053L249.772 294.988L249.731 295.041L248.555 295.29C247.75 295.646 247.079 296.032 245.845 296.631C246.127 296.423 245.845 296.482 245.845 296.388C246.094 296.328 246.334 296.232 246.556 296.103C246.856 295.935 247.173 295.802 247.503 295.705C247.144 295.812 247.203 295.747 247.291 295.705C246.889 295.871 246.496 296.059 246.115 296.269C246.115 296.192 245.833 296.305 245.527 296.441C245.827 296.477 244.704 296.945 244.298 297.289C244.251 297.289 244.298 297.129 244.886 296.838C244.204 297.076 244.199 297.467 243.564 297.752C243.687 297.657 243.769 297.627 243.805 297.568C243.517 297.793 242.805 298.327 242.94 298.161L243.064 298.066C242.806 298.245 242.563 298.443 242.335 298.659C242.068 298.89 241.817 299.137 241.582 299.401C241.257 299.707 240.995 300.076 240.812 300.486C240.791 300.396 240.791 300.303 240.812 300.213C240.541 300.787 240.315 301.382 240.136 301.993C240.136 301.803 239.583 302.218 239.971 301.441C239.76 301.736 239.589 302.059 239.466 302.402C239.554 302.253 239.795 302.093 239.695 302.301C239.443 302.628 239.23 302.985 239.06 303.363C239.184 303.131 239.207 303.452 239.095 303.825C239.095 303.76 238.931 303.825 238.954 303.659C238.919 304.003 238.86 304.335 238.843 304.673C238.843 304.418 238.719 304.596 238.631 304.81C238.678 304.709 238.455 305.664 238.466 305.937L238.549 305.516C238.413 306.648 238.654 306.648 238.696 307.746C238.649 307.615 238.466 307.425 238.496 308.001C238.543 308.125 238.66 308.404 238.831 308.754C239.001 309.104 239.178 309.531 239.336 309.982C239.336 310.041 239.336 310.106 239.336 310.172L239.642 310.836C239.156 310.144 238.781 309.38 238.531 308.57C238.53 308.824 238.558 309.076 238.613 309.323C238.613 309.561 238.484 308.997 238.455 308.807C238.529 309.305 238.639 309.797 238.784 310.278C238.843 310.183 239.266 311.316 239.331 311.227C239.087 310.745 238.879 310.246 238.707 309.733C238.743 309.691 238.866 309.899 239.019 310.237C239.172 310.575 239.389 311.032 239.607 311.494C239.695 311.743 239.378 311.387 239.36 311.417C239.342 311.447 239.525 311.69 239.642 311.904C239.76 312.117 239.895 312.313 239.907 312.36C239.819 312.242 239.719 312.129 239.636 312.004C239.913 312.526 240.224 312.769 240.577 313.369C240.706 313.57 240.953 313.997 241.024 313.991C240.83 313.629 241.024 313.398 241.253 313.517L241.659 314.051C241.87 314.306 242.117 314.561 242.2 314.673C242.441 314.994 241.612 314.418 241.847 314.673C241.947 314.72 242.041 314.778 242.129 314.845C242.305 315.023 241.988 314.845 242.429 315.172C242.558 315.172 243.317 315.842 242.682 315.266C243.123 315.569 243.129 315.616 243.664 315.937C243.593 315.866 243.74 315.895 243.958 315.978C244.175 316.061 244.487 316.15 244.722 316.257C244.687 316.257 244.781 316.34 244.828 316.382C245.31 316.607 245.704 316.743 246.08 316.903C246.456 317.064 246.838 317.153 247.332 317.259C247.42 317.295 247.92 317.408 247.679 317.402C247.876 317.411 248.072 317.433 248.267 317.467C248.855 317.633 247.585 317.36 248.02 317.52C248.067 317.52 248.831 317.568 249.272 317.58C248.792 317.495 248.307 317.436 247.82 317.402C247.82 317.354 248.026 317.336 248.349 317.354C248.673 317.372 249.125 317.354 249.643 317.39C250.466 317.39 249.995 317.461 250.142 317.449C250.612 317.48 251.083 317.458 251.548 317.384C251.947 317.325 252.349 317.297 252.753 317.301C253.27 317.301 252.782 317.414 252.9 317.443C252.23 317.526 251.859 317.443 251.401 317.485H251.988C251.684 317.519 251.378 317.535 251.071 317.532C252.355 317.535 253.637 317.457 254.91 317.301C255.122 317.259 255.498 317.17 255.31 317.182L254.934 317.248C254.581 317.248 255.634 317.081 255.157 317.135C255.651 317.01 256.21 316.903 256.921 316.755L257.062 316.785C256.839 316.807 256.619 316.851 256.404 316.915C256.875 316.841 257.341 316.734 257.797 316.595C257.632 316.625 257.468 316.66 257.297 316.678L258.985 316.127C258.697 316.162 258.855 316.192 258.397 316.251C258.797 316.251 256.833 316.666 257.462 316.589C256.992 316.589 256.674 316.743 256.069 316.779C256.069 316.779 256.286 316.779 255.763 316.856L255.651 316.892C255.743 316.884 255.836 316.884 255.927 316.892C255.474 317.007 255.015 317.096 254.552 317.159C254.24 317.159 254.681 317.123 254.511 317.123L254.087 317.206C254.04 317.17 253.247 317.206 253.981 317.117C253.758 317.147 253.535 317.153 253.317 317.17C252.917 317.17 252.382 317.206 252.047 317.224C251.712 317.242 251.254 317.301 251.524 317.259C251.178 317.287 250.831 317.297 250.483 317.289H249.701C249.437 317.289 249.172 317.248 248.896 317.224C248.334 317.173 247.779 317.066 247.238 316.903C246.824 316.811 246.415 316.692 246.015 316.548L245.921 316.465C245.715 316.387 245.41 316.269 245.139 316.144C244.952 316.031 244.756 315.936 244.551 315.86C244.357 315.711 243.922 315.421 243.44 315.13L242.758 314.626C242.573 314.481 242.396 314.324 242.229 314.157L242.164 314.187C241.958 314.01 241.762 313.822 241.576 313.624C241.365 313.415 241.168 313.191 240.989 312.953V313.024C240.501 312.396 240.106 311.701 239.813 310.96C239.896 311.088 239.963 311.226 240.013 311.37C239.66 310.355 239.107 309.264 239.084 308.262C239.05 308.066 239.034 307.867 239.037 307.669V307.728V307.627C239.037 307.52 239.037 307.408 239.037 307.289C239.025 307.384 239.025 307.479 239.037 307.574C239.007 307.39 239.037 307.099 239.001 306.82L239.072 306.702V306.643C239.072 306.37 239.072 306.417 238.984 306.56C238.984 306.417 238.984 306.293 238.984 306.186C239.113 305.978 239.013 305.444 239.207 305.172C239.154 304.964 239.501 303.796 239.448 303.612C239.448 303.612 239.507 303.535 239.448 303.677C239.581 303.402 239.691 303.116 239.777 302.823L239.919 302.74L240.124 302.076C240.365 301.732 240.506 301.613 240.342 301.993C240.581 301.491 240.852 301.006 241.153 300.539V300.611C241.316 300.333 241.514 300.078 241.741 299.851C241.882 299.745 242.082 299.525 242.37 299.288C242.694 298.993 243.034 298.716 243.387 298.458C244.169 297.857 245.022 297.359 245.927 296.975C245.545 296.975 246.703 296.726 246.715 296.577C246.827 296.577 247.056 296.506 246.809 296.649C247.135 296.498 247.473 296.375 247.82 296.281C248.1 296.197 248.373 296.092 248.637 295.966C248.743 295.966 248.467 296.073 248.561 296.073C248.676 296.023 248.796 295.987 248.92 295.966C249.014 295.966 248.808 296.032 248.673 296.091C249.549 295.848 249.607 295.694 249.643 295.557C249.991 295.541 250.332 295.456 250.648 295.308C250.813 295.308 251.083 295.308 250.53 295.433C250.842 295.344 252.459 295.166 252.482 295.071C252.66 295.074 252.837 295.058 253.011 295.023C253.723 294.958 253.787 294.982 254.493 294.958H254.293C254.575 294.822 254.881 294.917 255.469 294.958C256.116 295.023 256.251 295.059 256.392 295.059C256.697 295.073 257 295.127 257.291 295.219L257.233 295.13C257.303 295.065 257.585 295.13 257.932 295.243C258.298 295.384 258.671 295.505 259.049 295.605C258.972 295.559 258.891 295.52 258.808 295.486C259.291 295.673 259.746 295.927 260.161 296.239C260.237 296.287 260.025 296.204 259.914 296.162C260.831 296.678 260.084 296.115 260.795 296.441C260.901 296.554 260.572 296.441 261.031 296.726C261.713 297.024 262.347 297.424 262.912 297.912C262.818 297.775 262.724 297.639 263.018 297.858C263.47 298.203 263.994 299.045 264.399 299.335C264.441 299.401 264.446 299.424 264.441 299.436C264.582 299.602 264.799 299.875 264.993 300.136C265.135 300.352 265.288 300.56 265.452 300.759C265.589 301.243 265.786 301.707 266.04 302.141C266.287 302.734 266.457 303.262 266.345 303.286C266.407 303.498 266.456 303.714 266.492 303.932C266.538 304.147 266.571 304.365 266.592 304.584V304.549C266.628 304.97 266.657 305.249 266.675 305.474C266.692 305.7 266.722 305.83 266.745 305.99C266.769 306.15 266.71 306.044 266.698 306.026C266.686 306.274 266.658 306.522 266.616 306.767C266.586 306.969 266.575 307.135 266.545 307.283C266.498 307.597 266.475 307.876 266.369 308.398L266.269 308.481C266.153 308.846 265.995 309.197 265.799 309.525C265.649 309.784 265.486 310.036 265.311 310.278C265.149 310.546 264.975 310.805 264.787 311.055C264.787 311.055 264.787 311.014 264.852 310.937C264.07 312.087 262.365 312.995 262.071 313.446L261.707 313.718L261.319 313.956C262.371 313.422 261.213 314.128 261.66 313.956C261.254 314.187 260.56 314.448 261.072 314.175L261.16 314.14C261.225 314.039 260.895 314.199 260.572 314.371C260.345 314.504 260.096 314.594 259.837 314.638C257.721 315.481 255.483 315.972 253.211 316.091L253.464 316.156L252.712 316.215C252.512 316.215 252.441 316.168 252.982 316.127C252.674 316.132 252.367 316.166 252.065 316.227C251.007 316.227 252.476 316.127 252.153 316.127H251.712H251.812C251.471 316.192 251.124 316.213 250.777 316.192C250.366 316.15 250.566 316.127 250.407 316.115C250.325 316.104 250.242 316.104 250.16 316.115C249.848 316.085 249.525 316.115 249.213 316.032C249.337 316.067 249.46 316.109 249.584 316.132C249.161 316.132 248.702 316.008 249.125 316.132C248.814 316.026 247.949 315.919 247.103 315.694C246.716 315.612 246.337 315.499 245.968 315.355L245.316 315.124C244.722 314.909 244.161 314.613 243.646 314.246C243.787 314.359 243.846 314.472 243.334 314.11C243.399 314.11 243.375 314.074 243.299 314.009C243.179 313.916 243.067 313.813 242.964 313.701C242.693 313.457 242.447 313.187 242.229 312.894C242.458 313.285 241.147 311.5 241.512 312.105C241.253 311.648 241.512 312.058 241.353 311.702C240.606 310.484 240.168 309.098 240.077 307.669C240.077 307.669 240.077 307.906 240.024 307.58V307.17L240.065 306.767C240.041 306.489 240.041 306.209 240.065 305.931C240.065 306.008 240.036 306.127 240.065 305.931C240.243 304.4 240.748 302.927 241.547 301.613L242.2 300.652L242.993 299.798C243.254 299.512 243.544 299.253 243.858 299.027C244.151 298.777 244.459 298.545 244.781 298.333C244.416 298.541 244.657 298.398 244.928 298.232C244.751 298.339 244.928 298.232 244.892 298.232L245.998 297.574C246.192 297.437 247.256 297.01 247.373 296.945L247.003 297.111C247.497 296.892 246.297 297.402 246.368 297.36C246.017 297.519 245.677 297.701 245.351 297.906C244.919 298.122 244.513 298.387 244.14 298.695C243.963 298.825 244.287 298.57 244.187 298.641C243.993 298.807 243.752 298.997 243.305 299.341L243.352 299.3C242.323 300.201 241.475 301.292 240.853 302.514L240.906 302.449L240.595 303.042C240.424 303.452 241.094 302.064 240.941 302.449C240.565 302.847 239.966 305.006 239.913 305.355C239.807 305.949 239.977 305.189 239.871 305.777C239.852 305.828 239.838 305.882 239.83 305.937V306.085C239.829 306.285 239.806 306.484 239.76 306.678V306.299C239.76 306.554 239.719 306.892 239.713 307.236C239.707 307.58 239.772 307.829 239.777 307.918L239.742 307.325C239.783 307.734 239.813 308.167 239.871 308.606C239.93 309.045 240.06 309.49 240.177 309.923C240.295 310.355 240.489 310.777 240.671 311.174C240.853 311.571 241.083 311.933 241.3 312.265C241.277 312.231 241.259 312.193 241.247 312.153C241.667 312.804 242.165 313.402 242.729 313.932L242.688 313.902C242.793 313.979 242.899 314.098 243.04 314.193L243.475 314.49C243.187 314.317 243.969 314.893 243.593 314.662C243.839 314.849 244.113 314.998 244.404 315.1C244.51 315.136 244.563 315.142 244.963 315.296L245.127 315.421C245.444 315.492 245.756 315.583 246.062 315.694C245.545 315.545 246.439 315.889 245.856 315.723C246.355 315.941 246.878 316.095 247.414 316.18C247.826 316.275 248.143 316.31 248.449 316.417C248.773 316.417 248.479 316.352 248.149 316.299C247.974 316.288 247.801 316.25 247.638 316.186C247.497 316.132 247.638 316.144 247.85 316.186C248.061 316.227 248.379 316.245 248.59 316.287C249.184 316.464 249.795 316.576 250.413 316.619H250.184C250.601 316.678 250.995 316.619 251.506 316.678C251.789 316.607 252.165 316.678 252.247 316.589H251.23C251.818 316.554 252.341 316.494 253.288 316.453C253.211 316.453 252.935 316.518 252.741 316.548C253.017 316.548 253.27 316.488 253.558 316.494C252.951 316.609 252.335 316.666 251.718 316.666C252.018 316.708 252.894 316.589 252.576 316.666C253.011 316.5 253.67 316.619 254.405 316.429L254.364 316.494C254.481 316.465 254.722 316.405 254.952 316.376L254.569 316.506C255.157 316.34 255.745 316.417 256.333 316.233C255.157 316.482 256.051 316.233 255.539 316.275C255.923 316.168 256.318 316.102 256.715 316.079C257.17 316.071 257.62 315.982 258.044 315.818C257.826 315.895 257.209 316.032 257.544 315.901C257.879 315.771 258.273 315.717 258.473 315.694C259.543 315.35 258.285 315.694 258.732 315.504C259.126 315.474 259.237 315.29 259.684 315.089L259.714 315.148C260.89 314.697 259.99 314.934 261.037 314.46L260.643 314.762L261.166 314.466L261.089 314.59C261.648 314.234 261.848 314.181 262.395 313.831C262.242 313.873 262.395 313.683 262.871 313.374C263.212 313.179 262.747 313.57 263.376 313.066C263.234 313.278 263.028 313.439 262.789 313.523C262.789 313.558 262.659 313.653 262.642 313.689C262.847 313.578 263.044 313.451 263.229 313.309L263.706 312.894C263.625 312.962 263.54 313.025 263.453 313.084C263.735 312.805 264.041 312.538 264.294 312.253C264.435 312.135 264.358 312.253 264.258 312.372C264.429 312.206 264.511 312.052 264.746 311.779C264.746 311.88 264.782 311.904 264.458 312.295L265.181 311.411C265.264 311.411 265.587 310.99 265.516 311.121C265.73 310.811 265.926 310.491 266.104 310.16C266.292 309.792 266.469 309.383 266.633 308.974C266.654 308.871 266.682 308.77 266.716 308.671C267.018 307.916 267.181 307.112 267.198 306.299L267.321 305.771C267.321 305.035 267.21 306.482 267.145 305.267C267.074 304.412 267.216 304.94 267.221 304.638C267.139 304.211 266.922 303.499 266.792 302.716C266.916 303.042 266.951 303.22 267.016 303.458ZM261.936 296.34C262.132 296.426 262.316 296.538 262.483 296.672C262.277 296.619 262.089 296.513 261.936 296.364V296.34ZM249.002 295.373C249.17 295.308 249.346 295.266 249.525 295.249C249.357 295.311 249.184 295.361 249.008 295.397L249.002 295.373ZM252.8 317.277C252.547 317.277 252.412 317.277 252.8 317.277ZM253.57 317.242C253.646 317.242 253.64 317.242 253.611 317.242C253.471 317.266 253.33 317.28 253.188 317.283C253.317 317.285 253.446 317.267 253.57 317.23V317.242ZM250.319 316.174H250.472C250.131 316.18 250.225 316.174 250.313 316.162L250.319 316.174Z" fill="#3E494E"/>
<path d="M250.442 294.946C250.467 294.938 250.494 294.938 250.518 294.946C250.583 294.946 250.583 294.934 250.442 294.946Z" fill="#3E494E"/>
<path d="M242.082 314.946C242.003 314.875 241.932 314.796 241.87 314.709C241.87 314.709 241.894 314.774 242.082 314.946Z" fill="#3E494E"/>
<path d="M257.567 316.506C257.415 316.554 257.256 316.589 257.097 316.625C257.326 316.571 257.415 316.571 257.532 316.548C257.515 316.536 257.421 316.548 257.567 316.506Z" fill="#3E494E"/>
<path d="M261.654 315.237L261.848 315.118C261.554 315.266 261.377 315.391 261.654 315.237Z" fill="#3E494E"/>
<path d="M258.05 316.53C258.28 316.503 258.505 316.445 258.72 316.358H258.661C258.744 316.298 258.397 316.417 258.05 316.53Z" fill="#3E494E"/>
<path d="M258.796 316.327L259.096 316.227C259.132 316.192 258.973 316.262 258.796 316.327Z" fill="#3E494E"/>
<path d="M254.54 317.099C254.704 317.099 254.634 317.04 254.728 317.046C254.822 317.052 253.652 317.228 254.54 317.099Z" fill="#3E494E"/>
<path d="M258.35 316.571L258.22 316.559L258.038 316.648L258.35 316.571Z" fill="#3E494E"/>
<path d="M255.669 317.141L256.222 317.064C256.222 317.064 256.281 317.064 256.363 317.022C256.028 317.075 255.651 317.129 255.669 317.141Z" fill="#3E494E"/>
<path d="M256.362 317.021C256.539 316.986 256.703 316.945 256.797 316.915L256.362 317.021Z" fill="#3E494E"/>
<path d="M257.621 316.791L257.462 316.82L257.08 316.902L257.621 316.791Z" fill="#3E494E"/>
<path d="M249.725 317.514C249.519 317.514 249.32 317.514 249.137 317.473C249.073 317.473 249.237 317.52 249.461 317.532C249.684 317.543 249.819 317.532 249.725 317.514Z" fill="#3E494E"/>
<path d="M251.559 317.674C251.47 317.673 251.381 317.661 251.294 317.639V317.709L251.559 317.674Z" fill="#3E494E"/>
<path d="M249.784 317.686C249.725 317.722 248.896 317.686 249.672 317.733C249.725 317.716 250.348 317.716 249.784 317.686Z" fill="#3E494E"/>
<path d="M241.529 314.134L241.635 314.245L241.712 314.139L241.529 314.134Z" fill="#3E494E"/>
<path d="M238.308 306.743C238.278 307.497 238.378 306.921 238.366 307.597C238.366 307.686 238.366 307.544 238.366 307.408C238.366 307.271 238.366 307.135 238.396 307.224C238.384 306.779 238.402 306.536 238.308 306.743Z" fill="#3E494E"/>
<path d="M246.738 297.253L247.162 297.064L246.885 297.182L246.738 297.253Z" fill="#3E494E"/>
<path d="M247.55 296.892L247.65 296.85L247.903 296.737L247.55 296.892Z" fill="#3E494E"/>
<path d="M260.86 295.539H260.819C260.932 295.617 261.05 295.688 261.172 295.753C261.072 295.675 260.968 295.604 260.86 295.539Z" fill="#3E494E"/>
<path d="M265.657 299.905L265.599 299.81L265.634 300.035L265.657 299.905Z" fill="#3E494E"/>
<path d="M267.421 305.112C267.421 304.881 267.362 304.62 267.345 304.389C267.421 304.881 267.321 305.177 267.421 305.112Z" fill="#3E494E"/>
<path d="M147.198 185.421H132.659V208.001H147.198V185.421Z" fill="#CF0303"/>
<path opacity="0.1" d="M147.198 185.421H132.659V208.001H147.198V185.421Z" fill="black"/>
<path d="M133.923 208.001H133.629V394.726H133.923V208.001Z" fill="#C7C7C7"/>
<path d="M135.681 208.001H135.387V394.726H135.681V208.001Z" fill="#C7C7C7"/>
<path d="M137.438 208.001H137.145V394.726H137.438V208.001Z" fill="#C7C7C7"/>
<path d="M139.196 208.001H138.902V394.726H139.196V208.001Z" fill="#C7C7C7"/>
<path d="M140.96 208.001H140.667V394.726H140.96V208.001Z" fill="#C7C7C7"/>
<path d="M142.718 208.001H142.424V394.726H142.718V208.001Z" fill="#C7C7C7"/>
<path d="M144.476 208.001H144.182V394.726H144.476V208.001Z" fill="#C7C7C7"/>
<path d="M146.24 208.001H145.946V394.726H146.24V208.001Z" fill="#C7C7C7"/>
<path opacity="0.1" d="M173.642 195.059C173.642 195.823 173.418 196.569 172.997 197.204C172.577 197.839 171.979 198.334 171.28 198.627C170.58 198.919 169.811 198.995 169.068 198.846C168.326 198.697 167.644 198.33 167.109 197.79C166.574 197.25 166.209 196.562 166.061 195.813C165.914 195.064 165.989 194.287 166.279 193.582C166.569 192.876 167.059 192.273 167.689 191.849C168.318 191.425 169.058 191.198 169.815 191.198C170.318 191.197 170.816 191.297 171.281 191.49C171.745 191.684 172.168 191.969 172.523 192.327C172.879 192.686 173.161 193.112 173.353 193.581C173.545 194.05 173.643 194.552 173.642 195.059Z" fill="black"/>
<path d="M172.12 195.059C172.12 195.521 171.984 195.973 171.73 196.358C171.475 196.742 171.113 197.041 170.69 197.218C170.267 197.395 169.801 197.441 169.352 197.351C168.902 197.261 168.49 197.039 168.166 196.712C167.842 196.385 167.621 195.969 167.532 195.515C167.442 195.062 167.488 194.592 167.664 194.165C167.839 193.738 168.136 193.373 168.517 193.116C168.898 192.859 169.346 192.722 169.804 192.722C170.108 192.722 170.41 192.782 170.691 192.899C170.972 193.016 171.228 193.188 171.443 193.405C171.659 193.622 171.829 193.88 171.945 194.164C172.061 194.448 172.121 194.752 172.12 195.059Z" fill="#263238"/>
<path opacity="0.1" d="M189.787 198.92C191.901 198.92 193.614 197.192 193.614 195.059C193.614 192.927 191.901 191.198 189.787 191.198C187.673 191.198 185.959 192.927 185.959 195.059C185.959 197.192 187.673 198.92 189.787 198.92Z" fill="black"/>
<path d="M192.109 195.059C192.109 195.521 191.973 195.973 191.718 196.358C191.464 196.742 191.102 197.041 190.679 197.218C190.256 197.395 189.79 197.441 189.341 197.351C188.891 197.261 188.478 197.039 188.155 196.712C187.831 196.385 187.61 195.969 187.521 195.515C187.431 195.062 187.477 194.592 187.652 194.165C187.828 193.738 188.125 193.373 188.506 193.116C188.886 192.859 189.334 192.722 189.792 192.722C190.097 192.722 190.398 192.782 190.68 192.899C190.961 193.016 191.217 193.188 191.432 193.405C191.647 193.622 191.818 193.88 191.934 194.164C192.05 194.448 192.11 194.752 192.109 195.059Z" fill="#263238"/>
<path opacity="0.1" d="M213.586 195.059C213.586 195.823 213.361 196.569 212.941 197.204C212.52 197.839 211.923 198.334 211.223 198.627C210.524 198.919 209.754 198.995 209.012 198.846C208.269 198.697 207.587 198.33 207.052 197.79C206.517 197.25 206.152 196.562 206.005 195.813C205.857 195.064 205.933 194.287 206.222 193.582C206.512 192.876 207.003 192.273 207.632 191.849C208.262 191.425 209.002 191.198 209.759 191.198C210.774 191.198 211.747 191.605 212.465 192.329C213.183 193.053 213.586 194.035 213.586 195.059Z" fill="black"/>
<path d="M212.098 195.059C212.098 195.52 211.963 195.97 211.71 196.354C211.457 196.737 211.097 197.037 210.676 197.215C210.255 197.392 209.791 197.441 209.343 197.353C208.894 197.266 208.482 197.047 208.156 196.724C207.831 196.401 207.608 195.987 207.514 195.537C207.421 195.086 207.462 194.617 207.632 194.189C207.802 193.762 208.093 193.394 208.469 193.133C208.846 192.872 209.29 192.729 209.746 192.722C210.054 192.718 210.359 192.775 210.644 192.89C210.929 193.005 211.188 193.177 211.407 193.394C211.626 193.612 211.8 193.871 211.918 194.157C212.037 194.442 212.098 194.749 212.098 195.059Z" fill="#263238"/>
<path opacity="0.1" d="M233.61 195.059C233.61 195.823 233.386 196.569 232.965 197.204C232.545 197.839 231.947 198.334 231.248 198.627C230.548 198.919 229.779 198.995 229.036 198.846C228.294 198.697 227.612 198.33 227.077 197.79C226.541 197.25 226.177 196.562 226.029 195.813C225.881 195.064 225.957 194.287 226.247 193.582C226.537 192.876 227.027 192.273 227.657 191.849C228.286 191.425 229.026 191.198 229.783 191.198C230.286 191.197 230.784 191.297 231.248 191.49C231.713 191.684 232.135 191.969 232.491 192.327C232.847 192.686 233.128 193.112 233.32 193.581C233.513 194.05 233.611 194.552 233.61 195.059Z" fill="black"/>
<path d="M232.087 195.059C232.087 195.521 231.952 195.973 231.697 196.358C231.442 196.742 231.081 197.041 230.657 197.218C230.234 197.395 229.768 197.441 229.319 197.351C228.87 197.261 228.457 197.039 228.133 196.712C227.809 196.385 227.588 195.969 227.499 195.515C227.41 195.062 227.456 194.592 227.631 194.165C227.806 193.738 228.103 193.373 228.484 193.116C228.865 192.859 229.313 192.722 229.771 192.722C230.075 192.722 230.377 192.782 230.658 192.899C230.94 193.016 231.195 193.188 231.411 193.405C231.626 193.622 231.796 193.88 231.913 194.164C232.029 194.448 232.088 194.752 232.087 195.059Z" fill="#263238"/>
<path opacity="0.1" d="M249.825 198.92C251.939 198.92 253.652 197.192 253.652 195.059C253.652 192.927 251.939 191.198 249.825 191.198C247.711 191.198 245.998 192.927 245.998 195.059C245.998 197.192 247.711 198.92 249.825 198.92Z" fill="black"/>
<path d="M252.141 195.059C252.141 195.521 252.005 195.973 251.751 196.358C251.496 196.742 251.134 197.041 250.711 197.218C250.288 197.395 249.822 197.441 249.373 197.351C248.923 197.261 248.511 197.039 248.187 196.712C247.863 196.385 247.642 195.969 247.553 195.515C247.463 195.062 247.509 194.592 247.685 194.165C247.86 193.738 248.157 193.373 248.538 193.116C248.919 192.859 249.367 192.722 249.825 192.722C250.439 192.722 251.028 192.969 251.463 193.407C251.897 193.845 252.141 194.44 252.141 195.059Z" fill="#263238"/>
<path opacity="0.1" d="M269.749 198.92C271.863 198.92 273.577 197.192 273.577 195.059C273.577 192.927 271.863 191.198 269.749 191.198C267.635 191.198 265.922 192.927 265.922 195.059C265.922 197.192 267.635 198.92 269.749 198.92Z" fill="black"/>
<path d="M272.066 195.059C272.066 195.521 271.93 195.973 271.676 196.358C271.421 196.742 271.059 197.041 270.636 197.218C270.213 197.395 269.747 197.441 269.298 197.351C268.848 197.261 268.436 197.039 268.112 196.712C267.788 196.385 267.567 195.969 267.478 195.515C267.388 195.062 267.434 194.592 267.609 194.165C267.785 193.738 268.082 193.373 268.463 193.116C268.844 192.859 269.291 192.722 269.749 192.722C270.054 192.722 270.355 192.782 270.637 192.899C270.918 193.016 271.174 193.188 271.389 193.405C271.604 193.622 271.775 193.88 271.891 194.164C272.007 194.448 272.067 194.752 272.066 195.059Z" fill="#263238"/>
<path opacity="0.1" d="M289.738 198.92C291.852 198.92 293.566 197.192 293.566 195.059C293.566 192.927 291.852 191.198 289.738 191.198C287.625 191.198 285.911 192.927 285.911 195.059C285.911 197.192 287.625 198.92 289.738 198.92Z" fill="black"/>
<path d="M292.055 195.059C292.055 195.521 291.919 195.973 291.665 196.358C291.41 196.742 291.048 197.041 290.625 197.218C290.202 197.395 289.736 197.441 289.287 197.351C288.838 197.261 288.425 197.039 288.101 196.712C287.777 196.385 287.556 195.969 287.467 195.515C287.377 195.062 287.423 194.592 287.599 194.165C287.774 193.738 288.071 193.373 288.452 193.116C288.833 192.859 289.281 192.722 289.739 192.722C290.353 192.722 290.942 192.969 291.377 193.407C291.811 193.845 292.055 194.44 292.055 195.059Z" fill="#263238"/>
<path opacity="0.1" d="M309.793 198.92C311.906 198.92 313.62 197.192 313.62 195.059C313.62 192.927 311.906 191.198 309.793 191.198C307.679 191.198 305.965 192.927 305.965 195.059C305.965 197.192 307.679 198.92 309.793 198.92Z" fill="black"/>
<path d="M312.109 195.059C312.109 195.521 311.973 195.973 311.718 196.358C311.464 196.742 311.102 197.041 310.679 197.218C310.256 197.395 309.79 197.441 309.341 197.351C308.891 197.261 308.478 197.039 308.155 196.712C307.831 196.385 307.61 195.969 307.521 195.515C307.431 195.062 307.477 194.592 307.652 194.165C307.828 193.738 308.125 193.373 308.506 193.116C308.886 192.859 309.334 192.722 309.792 192.722C310.407 192.722 310.996 192.969 311.43 193.407C311.865 193.845 312.109 194.44 312.109 195.059Z" fill="#263238"/>
<path opacity="0.1" d="M333.556 195.059C333.556 195.823 333.332 196.569 332.911 197.204C332.49 197.839 331.893 198.334 331.193 198.627C330.494 198.919 329.724 198.995 328.982 198.846C328.24 198.697 327.558 198.33 327.022 197.79C326.487 197.25 326.123 196.562 325.975 195.813C325.827 195.064 325.903 194.287 326.193 193.582C326.482 192.876 326.973 192.273 327.602 191.849C328.232 191.425 328.972 191.198 329.729 191.198C330.744 191.198 331.717 191.605 332.435 192.329C333.153 193.053 333.556 194.035 333.556 195.059Z" fill="black"/>
<path d="M332.033 195.059C332.033 195.521 331.897 195.973 331.643 196.358C331.388 196.742 331.027 197.041 330.603 197.218C330.18 197.395 329.714 197.441 329.265 197.351C328.816 197.261 328.403 197.039 328.079 196.712C327.755 196.385 327.534 195.969 327.445 195.515C327.356 195.062 327.401 194.592 327.577 194.165C327.752 193.738 328.049 193.373 328.43 193.116C328.811 192.859 329.259 192.722 329.717 192.722C330.331 192.722 330.92 192.969 331.355 193.407C331.789 193.845 332.033 194.44 332.033 195.059Z" fill="#263238"/>
<path opacity="0.1" d="M353.575 195.059C353.575 195.823 353.35 196.569 352.93 197.204C352.509 197.839 351.911 198.334 351.212 198.627C350.513 198.919 349.743 198.995 349.001 198.846C348.258 198.697 347.576 198.33 347.041 197.79C346.506 197.25 346.141 196.562 345.993 195.813C345.846 195.064 345.922 194.287 346.211 193.582C346.501 192.876 346.992 192.273 347.621 191.849C348.25 191.425 348.99 191.198 349.747 191.198C350.25 191.197 350.748 191.297 351.213 191.49C351.678 191.684 352.1 191.969 352.455 192.327C352.811 192.686 353.093 193.112 353.285 193.581C353.477 194.05 353.575 194.552 353.575 195.059Z" fill="black"/>
<path d="M352.064 195.059C352.064 195.521 351.928 195.973 351.674 196.358C351.419 196.742 351.057 197.041 350.634 197.218C350.211 197.395 349.745 197.441 349.296 197.351C348.846 197.261 348.434 197.039 348.11 196.712C347.786 196.385 347.565 195.969 347.476 195.515C347.386 195.062 347.432 194.592 347.607 194.165C347.783 193.738 348.08 193.373 348.461 193.116C348.842 192.859 349.289 192.722 349.748 192.722C350.052 192.722 350.354 192.782 350.635 192.899C350.916 193.016 351.172 193.188 351.387 193.405C351.602 193.622 351.773 193.88 351.889 194.164C352.005 194.448 352.065 194.752 352.064 195.059Z" fill="#263238"/>
<path opacity="0.1" d="M373.511 195.059C373.511 195.823 373.287 196.569 372.866 197.204C372.446 197.839 371.848 198.334 371.148 198.627C370.449 198.919 369.68 198.995 368.937 198.846C368.195 198.697 367.513 198.33 366.977 197.79C366.442 197.25 366.078 196.562 365.93 195.813C365.782 195.064 365.858 194.287 366.148 193.582C366.437 192.876 366.928 192.273 367.557 191.849C368.187 191.425 368.927 191.198 369.684 191.198C370.187 191.197 370.685 191.297 371.149 191.49C371.614 191.684 372.036 191.969 372.392 192.327C372.747 192.686 373.029 193.112 373.221 193.581C373.413 194.05 373.512 194.552 373.511 195.059Z" fill="black"/>
<path d="M372.012 195.059C372.012 195.52 371.877 195.97 371.624 196.354C371.371 196.737 371.011 197.037 370.59 197.215C370.168 197.393 369.705 197.441 369.256 197.354C368.808 197.266 368.395 197.047 368.07 196.724C367.744 196.401 367.521 195.988 367.428 195.537C367.334 195.086 367.375 194.617 367.545 194.189C367.715 193.762 368.007 193.394 368.383 193.133C368.759 192.872 369.203 192.729 369.66 192.722C369.967 192.717 370.273 192.773 370.558 192.888C370.844 193.003 371.104 193.175 371.323 193.392C371.542 193.61 371.715 193.87 371.834 194.156C371.952 194.442 372.013 194.749 372.012 195.059Z" fill="#263238"/>
<path opacity="0.1" d="M393.53 195.059C393.53 195.823 393.305 196.569 392.885 197.204C392.464 197.839 391.866 198.334 391.167 198.627C390.468 198.919 389.698 198.995 388.956 198.846C388.213 198.697 387.531 198.33 386.996 197.79C386.461 197.25 386.096 196.562 385.949 195.813C385.801 195.064 385.877 194.287 386.166 193.582C386.456 192.876 386.947 192.273 387.576 191.849C388.205 191.425 388.945 191.198 389.702 191.198C390.205 191.197 390.703 191.297 391.168 191.49C391.633 191.684 392.055 191.969 392.41 192.327C392.766 192.686 393.048 193.112 393.24 193.581C393.432 194.05 393.53 194.552 393.53 195.059Z" fill="black"/>
<path d="M392.001 195.059C392.001 195.521 391.865 195.973 391.611 196.358C391.356 196.742 390.994 197.041 390.571 197.218C390.148 197.395 389.682 197.441 389.233 197.351C388.783 197.261 388.371 197.039 388.047 196.712C387.723 196.385 387.502 195.969 387.413 195.515C387.323 195.062 387.369 194.592 387.545 194.165C387.72 193.738 388.017 193.373 388.398 193.116C388.779 192.859 389.226 192.722 389.685 192.722C389.989 192.722 390.291 192.782 390.572 192.899C390.853 193.016 391.109 193.188 391.324 193.405C391.539 193.622 391.71 193.88 391.826 194.164C391.942 194.448 392.002 194.752 392.001 195.059Z" fill="#263238"/>
<path opacity="0.1" d="M409.68 198.92C411.794 198.92 413.507 197.192 413.507 195.059C413.507 192.927 411.794 191.198 409.68 191.198C407.566 191.198 405.853 192.927 405.853 195.059C405.853 197.192 407.566 198.92 409.68 198.92Z" fill="black"/>
<path d="M411.99 195.059C411.99 195.521 411.854 195.973 411.6 196.358C411.345 196.742 410.984 197.041 410.56 197.218C410.137 197.395 409.671 197.441 409.222 197.351C408.773 197.261 408.36 197.039 408.036 196.712C407.712 196.385 407.491 195.969 407.402 195.515C407.313 195.062 407.358 194.592 407.534 194.165C407.709 193.738 408.006 193.373 408.387 193.116C408.768 192.859 409.216 192.722 409.674 192.722C409.978 192.722 410.28 192.782 410.561 192.899C410.843 193.016 411.098 193.188 411.313 193.405C411.529 193.622 411.699 193.88 411.815 194.164C411.932 194.448 411.991 194.752 411.99 195.059Z" fill="#263238"/>
<path d="M171.697 186.898C171.697 188.826 171.485 195.101 171.485 195.101C171.485 197.283 168.14 197.278 168.14 195.101V185.528C168.14 180.7 166.053 178.962 163.983 178.962C161.396 178.962 159.868 182.106 159.868 185.415H156.505C156.505 177.9 160.068 175 163.73 175C169.298 175 171.697 178.749 171.697 186.898Z" fill="#37474F"/>
<path d="M191.686 186.898C191.686 188.826 191.474 195.101 191.474 195.101C191.474 197.283 188.135 197.278 188.135 195.101C188.135 192.924 188.135 189.069 188.135 185.528C188.135 180.7 186.054 178.962 183.978 178.962C181.391 178.962 179.863 182.106 179.863 185.415H176.5C176.5 177.9 180.063 175 183.726 175C189.287 175 191.686 178.749 191.686 186.898Z" fill="#37474F"/>
<path d="M211.681 186.898C211.681 188.826 211.469 195.101 211.469 195.101C211.469 197.283 208.124 197.278 208.124 195.101V185.528C208.124 180.7 206.037 178.962 203.961 178.962C201.374 178.962 199.846 182.106 199.846 185.415H196.483C196.483 177.9 200.046 175 203.708 175C209.276 175 211.681 178.749 211.681 186.898Z" fill="#37474F"/>
<path d="M231.67 186.898C231.67 188.826 231.459 195.101 231.459 195.101C231.459 197.283 228.113 197.278 228.113 195.101V185.528C228.113 180.7 226.026 178.962 223.957 178.962C221.37 178.962 219.841 182.106 219.841 185.415H216.479C216.479 177.9 220.041 175 223.704 175C229.272 175 231.67 178.749 231.67 186.898Z" fill="#37474F"/>
<path d="M251.659 186.898C251.659 188.826 251.447 195.101 251.447 195.101C251.447 197.283 248.102 197.278 248.102 195.101V185.528C248.102 180.7 246.021 178.962 243.946 178.962C241.359 178.962 239.83 182.106 239.83 185.415H236.467C236.467 177.9 240.03 175 243.693 175C249.26 175 251.659 178.749 251.659 186.898Z" fill="#37474F"/>
<path d="M271.654 186.898C271.654 188.826 271.437 195.101 271.437 195.101C271.437 197.283 268.097 197.278 268.097 195.101V185.528C268.097 180.7 266.01 178.962 263.935 178.962C261.348 178.962 259.819 182.106 259.819 185.415H256.457C256.457 177.9 260.013 175 263.682 175C269.25 175 271.654 178.749 271.654 186.898Z" fill="#37474F"/>
<path d="M291.643 186.898C291.643 188.826 291.432 195.101 291.432 195.101C291.432 197.283 288.087 197.278 288.087 195.101V185.528C288.087 180.7 285.999 178.962 283.924 178.962C281.337 178.962 279.809 182.106 279.809 185.415H276.446C276.446 177.9 280.009 175 283.671 175C289.245 175 291.643 178.749 291.643 186.898Z" fill="#37474F"/>
<path d="M311.633 186.898C311.633 188.826 311.421 195.101 311.421 195.101C311.421 197.283 308.076 197.278 308.076 195.101V185.528C308.076 180.7 305.995 178.962 303.919 178.962C301.332 178.962 299.804 182.106 299.804 185.415H296.441C296.441 177.9 300.004 175 303.666 175C309.234 175 311.633 178.749 311.633 186.898Z" fill="#37474F"/>
<path d="M331.628 186.898C331.628 188.826 331.41 195.101 331.41 195.101C331.41 197.283 328.071 197.278 328.071 195.101C328.071 192.924 328.071 189.069 328.071 185.528C328.071 180.7 325.99 178.962 323.914 178.962C321.328 178.962 319.799 182.106 319.799 185.415H316.43C316.43 177.9 319.993 175 323.662 175C329.223 175 331.628 178.749 331.628 186.898Z" fill="#37474F"/>
<path d="M351.617 186.898C351.617 188.826 351.405 195.101 351.405 195.101C351.405 197.283 348.06 197.278 348.06 195.101V185.528C348.06 180.7 345.973 178.962 343.898 178.962C341.311 178.962 339.782 182.106 339.782 185.415H336.419C336.419 177.9 339.982 175 343.645 175C349.218 175 351.617 178.749 351.617 186.898Z" fill="#37474F"/>
<path d="M371.606 186.898C371.606 188.826 371.394 195.101 371.394 195.101C371.394 197.283 368.049 197.278 368.049 195.101V185.528C368.049 180.7 365.968 178.962 363.892 178.962C361.306 178.962 359.777 182.106 359.777 185.415H356.414C356.414 177.9 359.977 175 363.64 175C369.207 175 371.606 178.749 371.606 186.898Z" fill="#37474F"/>
<path d="M391.601 186.898C391.601 188.826 391.384 195.101 391.384 195.101C391.384 197.283 388.045 197.278 388.045 195.101C388.045 192.924 388.045 189.069 388.045 185.528C388.045 180.7 385.963 178.962 383.888 178.962C381.301 178.962 379.773 182.106 379.773 185.415H376.404C376.404 177.9 379.967 175 383.629 175C389.197 175 391.601 178.749 391.601 186.898Z" fill="#37474F"/>
<path d="M411.591 186.898C411.591 188.826 411.379 195.101 411.379 195.101C411.379 197.283 408.034 197.278 408.034 195.101V185.528C408.034 180.7 405.947 178.962 403.871 178.962C401.285 178.962 399.756 182.106 399.756 185.415H396.393C396.393 177.9 399.956 175 403.619 175C409.192 175 411.591 178.749 411.591 186.898Z" fill="#37474F"/>
<path d="M100 394.726C218.524 394.365 351.476 394.359 470 394.726C351.476 395.094 218.524 395.088 100 394.726Z" fill="#263238"/>
<path d="M299.457 287.325H276.528C275.86 285.879 275.474 284.316 275.394 282.722V264.187H298.322V282.959C298.322 284.834 299.457 287.325 299.457 287.325Z" fill="#37474F"/>
<path d="M279.333 269.656C282.025 269.43 284.724 269.377 287.422 269.365C290.121 269.353 292.813 269.43 295.512 269.656C292.813 269.881 290.121 269.928 287.422 269.94C284.724 269.952 282.025 269.875 279.333 269.656Z" fill="white"/>
<path d="M279.333 272.704C281.755 272.479 284.183 272.431 286.611 272.42C289.039 272.408 291.461 272.479 293.883 272.704C291.461 272.93 289.033 272.983 286.611 272.989C284.189 272.995 281.755 272.93 279.333 272.704Z" fill="white"/>
<path d="M279.333 275.759C281.455 275.539 283.577 275.486 285.694 275.474C287.81 275.462 289.939 275.534 292.061 275.759C289.939 275.984 287.816 276.038 285.694 276.05C283.571 276.061 281.473 275.978 279.333 275.759Z" fill="white"/>
<path d="M279.333 278.808C282.025 278.582 284.724 278.529 287.422 278.517C290.121 278.505 292.813 278.582 295.512 278.808C292.813 279.033 290.121 279.08 287.422 279.092C284.724 279.104 282.025 279.027 279.333 278.808Z" fill="white"/>
<path d="M267.174 349.305H244.246C243.576 347.857 243.191 346.293 243.111 344.697V326.174H266.04V344.946C266.04 346.802 267.174 349.305 267.174 349.305Z" fill="#455A64"/>
<path d="M247.05 331.625C249.743 331.399 252.441 331.346 255.14 331.334C257.839 331.322 260.531 331.399 263.23 331.625C260.531 331.844 257.839 331.897 255.14 331.909C252.441 331.921 249.725 331.844 247.05 331.625Z" fill="white"/>
<path d="M247.05 334.673C249.473 334.448 251.901 334.4 254.323 334.389C256.745 334.377 259.179 334.448 261.601 334.673C259.179 334.899 256.751 334.952 254.323 334.958C251.895 334.964 249.473 334.899 247.05 334.673Z" fill="white"/>
<path d="M247.05 337.722C249.167 337.502 251.289 337.449 253.412 337.437C255.534 337.425 257.656 337.496 259.779 337.722C257.656 337.947 255.534 338.001 253.412 338.012C251.289 338.024 249.167 337.947 247.05 337.722Z" fill="white"/>
<path d="M247.05 340.776C249.743 340.551 252.441 340.498 255.14 340.486C257.839 340.474 260.531 340.551 263.23 340.776C260.531 340.996 257.839 341.049 255.14 341.061C252.441 341.073 249.725 341.002 247.05 340.776Z" fill="white"/>
<path d="M234.163 286.909H211.234C210.561 285.462 210.174 283.897 210.093 282.301V263.772H233.022V282.544C233.022 284.418 234.163 286.909 234.163 286.909Z" fill="#A6A6A6"/>
<path d="M214.033 269.235C216.731 269.009 219.43 268.956 222.128 268.944C224.827 268.932 227.52 269.009 230.218 269.235C227.52 269.454 224.821 269.507 222.128 269.519C219.436 269.531 216.731 269.46 214.033 269.235Z" fill="white"/>
<path d="M214.033 272.289C216.461 272.064 218.889 272.016 221.311 272.004C223.733 271.993 226.161 272.064 228.59 272.289C226.161 272.515 223.739 272.562 221.311 272.574C218.883 272.586 216.461 272.515 214.033 272.289Z" fill="white"/>
<path d="M214.033 275.338C216.155 275.118 218.277 275.065 220.4 275.053C222.522 275.041 224.645 275.112 226.767 275.338C224.645 275.563 222.522 275.617 220.4 275.628C218.277 275.64 216.155 275.563 214.033 275.338Z" fill="white"/>
<path d="M214.033 278.392C216.731 278.167 219.43 278.113 222.128 278.102C224.827 278.09 227.52 278.167 230.218 278.392C227.52 278.612 224.821 278.665 222.128 278.677C219.436 278.689 216.731 278.612 214.033 278.392Z" fill="white"/>
<path d="M324.943 380.308H306.718C306.477 378.785 306.345 377.247 306.324 375.705V357.17H329.253V375.942C329.247 377.817 324.943 380.308 324.943 380.308Z" fill="#CF0303"/>
<path opacity="0.2" d="M329.247 375.937C329.247 377.763 325.202 380.148 324.949 380.296C325.619 379.839 325.508 376.215 325.508 376.215C325.508 376.215 329.182 375.735 329.247 375.937Z" fill="black"/>
<path d="M309.693 362.639C312.386 362.413 315.084 362.36 317.783 362.348C320.481 362.336 323.174 362.413 325.872 362.639C323.174 362.864 320.481 362.912 317.783 362.923C315.084 362.935 312.386 362.858 309.693 362.639Z" fill="white"/>
<path d="M309.693 365.687C311.809 365.462 313.932 365.415 316.054 365.403C318.177 365.391 320.299 365.462 322.421 365.687C320.305 365.892 318.18 365.987 316.054 365.972C313.932 365.96 311.809 365.913 309.693 365.687Z" fill="white"/>
<path d="M309.693 368.736C311.809 368.517 313.932 368.463 316.054 368.451C318.177 368.439 320.299 368.517 322.421 368.736C320.299 368.961 318.177 369.015 316.054 369.027C313.932 369.038 311.809 368.961 309.693 368.736Z" fill="white"/>
<path d="M386.922 317.639H368.696C368.456 316.114 368.324 314.574 368.302 313.03V294.501H391.231V313.274C391.231 315.148 386.922 317.639 386.922 317.639Z" fill="#CF0303"/>
<path opacity="0.2" d="M391.225 313.268C391.225 315.094 387.18 317.479 386.933 317.627C387.603 317.17 387.486 313.546 387.486 313.546C387.486 313.546 391.16 313.06 391.225 313.268Z" fill="black"/>
<path d="M371.671 299.97C374.364 299.745 377.062 299.691 379.761 299.679C382.459 299.667 385.158 299.745 387.85 299.97C385.158 300.189 382.459 300.243 379.761 300.255C377.062 300.266 374.364 300.189 371.671 299.97Z" fill="white"/>
<path d="M371.671 303.042C373.793 302.817 375.916 302.769 378.032 302.758C380.158 302.743 382.283 302.838 384.399 303.042C382.277 303.268 380.155 303.315 378.032 303.327C375.91 303.339 373.776 303.244 371.671 303.042Z" fill="white"/>
<path d="M371.671 306.067C373.793 305.848 375.916 305.794 378.032 305.783C380.149 305.771 382.277 305.842 384.399 306.067C382.277 306.293 380.155 306.346 378.032 306.358C375.91 306.37 373.776 306.293 371.671 306.067Z" fill="white"/>
<path d="M446.219 358.072C446.219 358.072 456.119 355.812 461.546 350.765C466.972 345.717 470 336.69 470 336.69C466.238 337.423 462.529 338.414 458.9 339.655C457.537 341.065 456.403 342.683 455.537 344.448C455.453 343.307 455.453 342.161 455.537 341.02C454.27 341.575 453.083 342.301 452.01 343.179C447.489 347.129 446.219 358.072 446.219 358.072Z" fill="#92E3A9"/>
<path d="M463.821 341.079C465.167 340.136 466.543 339.228 467.884 338.279C467.892 338.274 467.899 338.267 467.905 338.258C467.911 338.25 467.915 338.241 467.917 338.231C467.919 338.221 467.92 338.211 467.918 338.201C467.916 338.191 467.913 338.181 467.907 338.173C467.902 338.164 467.895 338.157 467.886 338.151C467.878 338.145 467.869 338.141 467.859 338.139C467.849 338.136 467.839 338.136 467.829 338.138C467.819 338.14 467.81 338.143 467.801 338.149C465.256 339.685 462.739 341.328 460.305 343.048C459.459 343.641 458.624 344.27 457.801 344.904L457.971 344.614C458.271 344.11 458.559 343.617 458.894 343.125C459.517 342.125 460.221 341.179 460.999 340.296C460.999 340.266 460.999 340.219 460.952 340.249C460.182 341.144 459.412 342.028 458.706 342.983C458.371 343.439 458.059 343.902 457.766 344.383C457.613 344.632 457.46 344.881 457.319 345.136L457.172 345.397C455.89 346.411 454.644 347.467 453.456 348.588C452.721 349.276 452.016 349.993 451.328 350.729C451.71 349.543 452.045 348.297 452.504 347.105C452.504 347.069 452.451 347.052 452.439 347.105C452.004 348.35 451.534 349.608 451.199 350.889C450.44 351.713 449.717 352.568 449.035 353.463L449.07 353.297C449.184 352.831 449.301 352.362 449.423 351.891C449.664 350.99 449.929 350.112 450.228 349.205C450.798 347.365 451.701 345.647 452.892 344.139C452.892 344.104 452.892 344.056 452.839 344.092C450.981 346.42 449.677 349.147 449.029 352.063C448.923 352.49 448.823 352.917 448.729 353.345C448.676 353.57 448.618 353.801 448.582 354.038C448.282 354.442 447.994 354.857 447.706 355.278C446.02 357.887 444.616 360.67 443.52 363.582C442.281 366.846 441.221 370.176 440.346 373.558C440.344 373.57 440.347 373.583 440.354 373.593C440.361 373.604 440.371 373.612 440.383 373.615C440.395 373.619 440.408 373.618 440.419 373.613C440.431 373.608 440.44 373.599 440.446 373.588C442.386 367.74 444.361 361.814 447.677 356.589C448.377 355.486 449.135 354.424 449.934 353.404C451.575 353.295 453.194 352.968 454.75 352.431C456.452 351.851 458.074 351.053 459.576 350.059C460.433 349.476 461.258 348.847 462.046 348.173C462.049 348.17 462.051 348.167 462.053 348.163C462.055 348.159 462.056 348.155 462.056 348.151C462.056 348.147 462.056 348.143 462.055 348.139C462.053 348.135 462.051 348.131 462.049 348.128C462.046 348.125 462.043 348.122 462.039 348.121C462.035 348.119 462.031 348.118 462.027 348.117C462.023 348.117 462.019 348.118 462.015 348.119C462.011 348.12 462.008 348.122 462.004 348.125C460.621 349.248 459.094 350.18 457.466 350.895C455.867 351.636 454.193 352.201 452.474 352.579C451.745 352.745 451.005 352.864 450.258 352.965C451.181 351.827 452.162 350.738 453.197 349.703C453.533 349.365 453.879 349.044 454.22 348.718C455.375 347.904 456.598 347.196 457.877 346.601C459.5 345.812 461.099 344.976 462.704 344.151C463.609 343.683 464.509 343.208 465.42 342.757C465.461 342.757 465.42 342.68 465.385 342.704C463.756 343.493 462.104 344.234 460.464 344.993C458.918 345.711 457.354 346.429 455.872 347.265L455.684 347.378C457.025 346.192 458.408 345.065 459.835 343.997C461.134 343.001 462.463 342.022 463.821 341.079Z" fill="#263238"/>
<path d="M463.257 346.227C462.451 346.583 461.628 346.903 460.835 347.277C460.029 347.672 459.244 348.107 458.483 348.582C458.448 348.582 458.483 348.647 458.518 348.629C459.306 348.25 460.106 347.894 460.87 347.496C461.634 347.099 462.463 346.66 463.28 346.31C463.316 346.275 463.298 346.209 463.257 346.227Z" fill="#263238"/>
<path d="M414.06 308.06C415.882 310.446 416.911 313.353 417 316.364C417.029 317.259 416.888 318.505 416.788 319.97C419.261 321.415 421.452 323.303 423.255 325.539C421.276 324.384 419.006 323.838 416.723 323.967C416.774 324.965 416.902 325.956 417.105 326.933C418.545 326.935 419.971 327.219 421.303 327.769C420.003 327.756 418.713 328.014 417.517 328.529C419.281 334.193 424.525 340.011 439.011 342.479C440.547 335.533 439.638 328.265 436.442 321.921C432.121 313.321 414.06 308.06 414.06 308.06Z" fill="#92E3A9"/>
<path d="M444.037 366.411C443.787 363.991 443.475 361.579 443.103 359.175C442.362 354.361 441.381 349.589 440.163 344.875C439.596 342.66 438.897 340.481 438.07 338.351C438.112 337.957 438.13 337.561 438.123 337.164C438.123 336.696 438.123 336.227 438.123 335.759C438.123 334.822 438.064 333.89 437.988 332.959C437.84 331.111 437.543 329.278 437.1 327.479C436.835 326.435 436.512 325.415 436.224 324.383C436.221 324.376 436.217 324.371 436.211 324.367C436.205 324.363 436.198 324.361 436.192 324.361C436.185 324.361 436.178 324.363 436.172 324.367C436.167 324.371 436.162 324.376 436.159 324.383C436.639 326.179 436.996 328.006 437.229 329.851C437.487 331.67 437.648 333.501 437.711 335.338C437.711 335.836 437.741 336.34 437.741 336.844C437.741 337.058 437.741 337.271 437.741 337.491C437.031 335.742 436.217 334.038 435.301 332.39C433.831 329.778 432.175 327.279 430.345 324.911C430.341 324.634 430.302 324.359 430.227 324.092L430.016 323.113C429.869 322.449 429.698 321.785 429.522 321.126C429.163 319.798 428.687 318.523 428.275 317.212C428.273 317.206 428.268 317.2 428.262 317.196C428.257 317.193 428.25 317.191 428.243 317.191C428.236 317.191 428.229 317.193 428.224 317.196C428.218 317.2 428.213 317.206 428.211 317.212C428.593 318.511 428.846 319.851 429.14 321.168C429.287 321.82 429.428 322.473 429.569 323.125C429.639 323.452 429.71 323.778 429.775 324.104V324.175C429.187 323.428 428.599 322.694 428.011 321.975C425.242 318.701 422.208 315.682 419.157 312.686C418.78 312.319 418.398 311.957 418.016 311.595C418.016 311.595 417.94 311.595 417.969 311.643C420.909 314.715 423.76 317.817 426.482 321.067C427.129 321.858 427.764 322.649 428.387 323.44L427.399 322.775C426.559 322.224 425.706 321.678 424.824 321.186C423.942 320.694 423.06 320.201 422.155 319.75C421.25 319.3 420.233 318.908 419.339 318.38C419.304 318.38 419.268 318.422 419.339 318.44C420.252 318.87 421.134 319.363 421.979 319.917C422.861 320.444 423.743 320.978 424.607 321.53C425.471 322.081 426.312 322.609 427.158 323.167C427.864 323.629 428.558 324.134 429.287 324.561C430.966 326.735 432.515 329.009 433.925 331.37C434.803 332.857 435.604 334.389 436.324 335.96L435.807 335.735L434.478 335.142C433.631 334.756 432.773 334.389 431.92 334.009C430.292 333.297 428.646 332.645 427.052 331.862C426.153 331.435 425.283 330.948 424.448 330.403C424.413 330.403 424.383 330.438 424.448 330.462C427.388 332.532 430.745 333.985 434.031 335.45L435.46 336.091C435.848 336.263 436.242 336.459 436.636 336.613C437.594 338.82 438.395 341.094 439.034 343.416C440.334 348.069 441.386 352.789 442.185 357.556C443.02 362.301 443.579 367.129 444.014 371.957C444.067 372.55 444.12 373.143 444.19 373.736C444.19 373.786 444.21 373.835 444.245 373.87C444.281 373.906 444.329 373.926 444.378 373.926C444.428 373.926 444.476 373.906 444.511 373.87C444.547 373.835 444.567 373.786 444.567 373.736C444.543 371.298 444.29 368.878 444.037 366.411Z" fill="#263238"/>
<path d="M435.225 326.061C434.96 324.578 434.572 323.125 434.173 321.672C434.175 321.667 434.176 321.661 434.175 321.655C434.175 321.649 434.173 321.643 434.17 321.638C434.167 321.633 434.162 321.629 434.157 321.627C434.152 321.624 434.146 321.622 434.14 321.622C434.134 321.622 434.129 321.624 434.123 321.627C434.118 321.629 434.114 321.633 434.111 321.638C434.108 321.643 434.106 321.649 434.105 321.655C434.105 321.661 434.106 321.667 434.108 321.672C434.472 323.102 434.737 324.555 435.002 326.002C435.266 327.449 435.513 328.967 435.719 330.45H435.76C435.666 328.978 435.488 327.512 435.225 326.061Z" fill="#263238"/>
<path d="M428.987 330.088C427.978 329.424 426.925 328.83 425.836 328.309C425.307 328.03 424.772 327.769 424.237 327.508C423.702 327.247 423.114 327.016 422.567 326.737C422.532 326.737 422.497 326.779 422.567 326.797C423.096 327.064 423.596 327.39 424.119 327.674L425.724 328.564C426.765 329.177 427.837 329.735 428.934 330.237C428.952 330.237 428.969 330.232 428.983 330.222C428.997 330.212 429.008 330.198 429.014 330.182C429.02 330.165 429.02 330.148 429.015 330.131C429.011 330.114 429.001 330.099 428.987 330.088Z" fill="#263238"/>
<path opacity="0.1" d="M446.401 340.776C446.401 340.776 455.561 338.57 459.765 332.372C463.78 326.441 465.056 316.358 465.179 315.468C465.015 316.287 463.128 325.106 456.89 329.211C452.116 332.36 447.501 334.946 446.401 340.776Z" fill="#263238"/>
<path d="M454.856 324.81C453.225 326.32 452.053 328.265 451.475 330.421C451.475 330.421 451.475 330.421 451.505 330.421C452.175 328.316 453.339 326.406 454.897 324.851C454.909 324.827 454.909 324.78 454.856 324.81Z" fill="#263238"/>
<path d="M446.401 341.091C446.401 341.091 455.561 338.884 459.764 332.68C463.78 326.749 465.056 316.666 465.179 315.782C465.181 315.763 465.181 315.743 465.179 315.723C465.179 315.723 460.787 322.022 456.184 323.629C451.581 325.237 445.072 330.794 446.401 341.091Z" fill="#92E3A9"/>
<path d="M463.568 318.884C462.747 320.58 461.802 322.212 460.74 323.766C459.669 325.24 458.401 326.557 456.972 327.68C455.725 328.677 454.408 329.578 453.15 330.557V330.51C453.385 330.16 453.638 329.816 453.897 329.478C454.426 328.801 454.996 328.161 455.572 327.532C456.713 326.287 457.871 325.065 458.894 323.712C459.46 322.972 459.953 322.178 460.364 321.34C460.364 321.298 460.317 321.281 460.299 321.34C458.812 324.466 455.849 326.464 453.726 329.098C453.426 329.478 453.138 329.863 452.88 330.284C452.671 330.578 452.496 330.894 452.356 331.227C451.195 332.163 450.145 333.232 449.229 334.412C449.311 333.811 449.435 333.217 449.599 332.633C449.811 331.81 450.138 331.021 450.569 330.29C450.569 330.255 450.534 330.213 450.51 330.255C450.066 330.985 449.709 331.765 449.446 332.58C449.251 333.227 449.138 333.896 449.111 334.572C448.658 335.191 448.246 335.839 447.876 336.512C447.912 336.316 447.947 336.12 447.988 335.919C448.17 334.994 448.37 334.08 448.606 333.167C449.037 331.317 449.783 329.557 450.81 327.965C450.81 327.929 450.781 327.888 450.757 327.924C449.705 329.495 448.881 331.211 448.312 333.018C448.024 333.926 447.788 334.851 447.583 335.776C447.483 336.233 447.394 336.69 447.306 337.147C447.259 337.384 447.212 337.627 447.171 337.87C446.262 339.881 445.554 341.98 445.06 344.133C444.161 347.982 443.509 351.885 443.108 355.818C442.635 359.936 442.423 364.08 442.474 368.226C442.474 368.742 442.515 369.264 442.544 369.78C442.544 369.916 442.75 369.934 442.756 369.78C442.844 367.734 442.897 365.681 443.014 363.629C443.132 361.577 443.314 359.537 443.532 357.49C443.948 353.476 444.586 349.488 445.443 345.545C446.183 342.164 447.148 338.766 448.97 335.806C449.881 334.333 450.993 332.997 452.274 331.838C453.556 330.652 454.961 329.655 456.319 328.582C457.69 327.531 458.935 326.323 460.029 324.982C461.156 323.498 462.141 321.909 462.968 320.237C463.186 319.822 463.403 319.4 463.627 318.985C463.644 318.884 463.586 318.843 463.568 318.884Z" fill="#263238"/>
<path d="M412.784 337.004C412.784 337.004 412.637 350.136 420.427 353.926C428.217 357.716 432.385 354.561 437.676 355.83C437.471 355.515 433.696 350.041 427.682 348.534C421.503 346.975 414.659 342.473 412.784 337.004Z" fill="#92E3A9"/>
<path opacity="0.2" d="M412.784 337.004C412.784 337.004 412.637 350.136 420.427 353.926C428.217 357.716 432.385 354.561 437.676 355.83C434.893 354.488 431.917 353.599 428.858 353.196C423.901 352.591 414.524 349.365 412.784 337.004Z" fill="black"/>
<path d="M438.182 355.747C437.254 354.898 436.21 354.187 435.083 353.635C434.919 353.552 434.748 353.487 434.578 353.416C434.496 353.31 434.408 353.209 434.313 353.113C434.084 352.87 433.837 352.633 433.584 352.413C433.097 351.986 432.571 351.605 432.014 351.275C430.727 350.51 429.316 349.97 427.993 349.264C427.958 349.264 427.923 349.3 427.964 349.323C428.616 349.661 429.245 350.041 429.88 350.415C430.515 350.788 431.127 351.12 431.726 351.512C432.269 351.868 432.784 352.264 433.267 352.698C433.402 352.817 433.537 352.947 433.667 353.084C432.807 352.79 431.929 352.554 431.039 352.378C429.61 352.087 428.169 351.88 426.747 351.577C426.05 351.425 425.361 351.237 424.683 351.014C424.036 350.486 423.396 349.964 422.784 349.4C422.042 348.716 421.367 347.961 420.768 347.147C420.768 347.111 420.685 347.147 420.715 347.182C421.656 348.473 422.724 349.665 423.901 350.741C423.566 350.61 423.237 350.474 422.908 350.326C420.235 349.114 417.942 347.188 416.276 344.756C416.276 344.721 416.194 344.756 416.217 344.792C417.633 346.878 419.461 348.646 421.585 349.988C422.649 350.659 423.788 351.202 424.977 351.607C426.356 352.038 427.763 352.375 429.187 352.615C430.58 352.845 431.956 353.176 433.302 353.606C434.544 354.026 435.711 354.645 436.759 355.438C438.741 356.992 440.337 358.991 441.421 361.275C442.817 364.303 443.686 367.552 443.99 370.877C443.99 371.014 444.226 371.014 444.214 370.877C443.861 365.32 442.397 359.584 438.182 355.747Z" fill="#263238"/>
<path d="M429.145 351.464C428.739 350.853 428.19 350.352 427.546 350.005C426.809 349.617 426.162 349.075 425.647 348.416C425.618 348.38 425.559 348.416 425.589 348.451C426.056 349.054 426.625 349.568 427.27 349.97C427.978 350.346 428.601 350.867 429.098 351.5C429.103 351.506 429.11 351.51 429.118 351.512C429.126 351.513 429.133 351.511 429.14 351.506C429.146 351.501 429.15 351.494 429.151 351.486C429.152 351.479 429.15 351.471 429.145 351.464Z" fill="#263238"/>
<path d="M433.279 365.438L433.632 372.662L434.719 394.726H451.046L452.127 372.662L452.486 365.438H433.279Z" fill="#455A64"/>
<path d="M433.279 365.438L433.632 372.662H452.127L452.486 365.438H433.279Z" fill="#263238"/>
<path d="M432.139 369.317H453.633V362.431H432.139V369.317Z" fill="#455A64"/>
<path d="M186.059 258.588V273.315H188.105V276.886L191.644 273.315H211.075V258.588H186.059Z" fill="white"/>
<path d="M186.059 258.588C186.112 262.266 186.194 269.644 186.235 273.315L186.059 273.137C186.112 273.137 188.328 273.137 188.293 273.137V273.333V276.892L187.923 276.738L191.45 273.143C191.538 273.054 191.515 273.066 191.627 273.066L211.028 273.031L210.74 273.321L210.781 258.594L211.028 258.849C204.796 258.814 192.244 258.677 186.012 258.594L186.059 258.588ZM186.059 258.588C192.42 258.505 204.961 258.375 211.34 258.333V258.588L211.375 273.315V273.606H211.087L191.685 273.57L191.868 273.493L187.923 277.42C187.923 277.242 187.964 273.618 187.958 273.315L188.146 273.511H186.1H185.918C185.959 269.751 186.041 262.366 186.1 258.606L186.059 258.588Z" fill="#263238"/>
<path d="M203.279 265.955C203.279 266.189 203.348 266.419 203.477 266.614C203.607 266.809 203.79 266.961 204.005 267.051C204.22 267.14 204.456 267.164 204.685 267.118C204.913 267.072 205.122 266.959 205.287 266.793C205.451 266.628 205.563 266.416 205.608 266.186C205.654 265.956 205.63 265.717 205.541 265.501C205.452 265.284 205.302 265.099 205.108 264.968C204.915 264.838 204.688 264.768 204.455 264.768C204.143 264.768 203.844 264.893 203.624 265.116C203.403 265.338 203.279 265.64 203.279 265.955Z" fill="#263238"/>
<path d="M197.4 265.955C197.4 266.189 197.469 266.419 197.598 266.614C197.727 266.809 197.911 266.961 198.126 267.051C198.341 267.14 198.577 267.164 198.805 267.118C199.033 267.072 199.243 266.959 199.407 266.793C199.572 266.628 199.684 266.416 199.729 266.186C199.774 265.956 199.751 265.717 199.662 265.501C199.573 265.284 199.422 265.099 199.229 264.968C199.036 264.838 198.808 264.768 198.576 264.768C198.264 264.768 197.965 264.893 197.744 265.116C197.524 265.338 197.4 265.64 197.4 265.955Z" fill="#263238"/>
<path d="M191.468 265.955C191.468 266.189 191.537 266.419 191.666 266.614C191.795 266.809 191.979 266.961 192.194 267.051C192.408 267.14 192.645 267.164 192.873 267.118C193.101 267.072 193.311 266.959 193.475 266.793C193.639 266.628 193.751 266.416 193.797 266.186C193.842 265.956 193.819 265.717 193.73 265.501C193.641 265.284 193.49 265.099 193.297 264.968C193.103 264.838 192.876 264.768 192.644 264.768C192.332 264.768 192.033 264.893 191.812 265.116C191.592 265.338 191.468 265.64 191.468 265.955Z" fill="#263238"/>
<path d="M412.672 187.592V202.313H414.724V205.884L418.263 202.313H437.694V187.592H412.672Z" fill="white"/>
<path d="M412.672 187.592C412.731 191.263 412.807 198.642 412.848 202.313L412.672 202.135C412.731 202.135 414.941 202.135 414.912 202.135V202.331V205.89L414.542 205.735L418.069 202.141C418.151 202.052 418.134 202.07 418.245 202.07L437.676 202.028L437.388 202.319L437.423 187.598L437.676 187.847C431.438 187.811 418.863 187.675 412.654 187.598L412.672 187.592ZM412.672 187.592C419.039 187.509 431.579 187.373 437.952 187.337V187.592L437.988 202.313V202.604H437.7L418.269 202.568L418.445 202.491C418.328 202.616 414.465 206.459 414.506 206.418C414.506 206.24 414.547 202.616 414.536 202.313L414.73 202.509H412.678H412.501C412.543 198.749 412.625 191.364 412.678 187.61L412.672 187.592Z" fill="#263238"/>
<path d="M429.916 194.953C429.916 195.187 429.985 195.417 430.114 195.612C430.243 195.807 430.427 195.959 430.641 196.049C430.856 196.138 431.093 196.162 431.321 196.116C431.549 196.07 431.758 195.957 431.923 195.791C432.087 195.625 432.199 195.414 432.245 195.184C432.29 194.954 432.267 194.715 432.178 194.499C432.089 194.282 431.938 194.097 431.745 193.966C431.551 193.836 431.324 193.766 431.091 193.766C430.78 193.766 430.48 193.891 430.26 194.114C430.039 194.336 429.916 194.638 429.916 194.953Z" fill="#263238"/>
<path d="M423.995 194.953C423.995 195.187 424.064 195.417 424.193 195.612C424.323 195.807 424.506 195.959 424.721 196.049C424.936 196.138 425.172 196.162 425.4 196.116C425.628 196.07 425.838 195.957 426.002 195.791C426.167 195.625 426.279 195.414 426.324 195.184C426.37 194.954 426.346 194.715 426.257 194.499C426.168 194.282 426.018 194.097 425.824 193.966C425.631 193.836 425.404 193.766 425.171 193.766C424.859 193.766 424.56 193.891 424.34 194.114C424.119 194.336 423.995 194.638 423.995 194.953Z" fill="#263238"/>
<path d="M418.081 194.953C418.081 195.187 418.15 195.417 418.279 195.612C418.408 195.807 418.592 195.959 418.806 196.049C419.021 196.138 419.258 196.162 419.486 196.116C419.714 196.07 419.923 195.957 420.088 195.791C420.252 195.625 420.364 195.414 420.41 195.184C420.455 194.954 420.432 194.715 420.343 194.499C420.254 194.282 420.103 194.097 419.91 193.966C419.716 193.836 419.489 193.766 419.256 193.766C418.945 193.766 418.645 193.891 418.425 194.114C418.204 194.336 418.081 194.638 418.081 194.953Z" fill="#263238"/>
</svg>
