<svg width="1000" height="600" viewBox="0 0 1000 600" fill="none" xmlns="http://www.w3.org/2000/svg">
<rect x="236" y="218" width="583" height="164" rx="82" fill="#7D7D7D"/>
<path d="M448.523 298.068L445.511 298.92C445.322 298.419 445.043 297.931 444.673 297.457C444.313 296.974 443.821 296.577 443.196 296.264C442.571 295.952 441.771 295.795 440.795 295.795C439.46 295.795 438.348 296.103 437.457 296.719C436.577 297.325 436.136 298.097 436.136 299.034C436.136 299.867 436.439 300.526 437.045 301.009C437.652 301.491 438.598 301.894 439.886 302.216L443.125 303.011C445.076 303.485 446.529 304.209 447.486 305.185C448.442 306.151 448.92 307.396 448.92 308.92C448.92 310.17 448.561 311.288 447.841 312.273C447.131 313.258 446.136 314.034 444.858 314.602C443.58 315.17 442.093 315.455 440.398 315.455C438.172 315.455 436.33 314.972 434.872 314.006C433.414 313.04 432.491 311.629 432.102 309.773L435.284 308.977C435.587 310.152 436.16 311.032 437.003 311.619C437.855 312.206 438.968 312.5 440.341 312.5C441.903 312.5 443.144 312.169 444.062 311.506C444.991 310.833 445.455 310.028 445.455 309.091C445.455 308.333 445.189 307.699 444.659 307.188C444.129 306.667 443.314 306.278 442.216 306.023L438.58 305.17C436.581 304.697 435.114 303.963 434.176 302.969C433.248 301.965 432.784 300.71 432.784 299.205C432.784 297.973 433.13 296.884 433.821 295.938C434.522 294.991 435.473 294.247 436.676 293.707C437.888 293.168 439.261 292.898 440.795 292.898C442.955 292.898 444.65 293.371 445.881 294.318C447.121 295.265 448.002 296.515 448.523 298.068ZM457.319 285.909V315H453.967V285.909H457.319ZM463.459 315V293.182H466.811V315H463.459ZM465.163 289.545C464.51 289.545 463.946 289.323 463.473 288.878C463.009 288.433 462.777 287.898 462.777 287.273C462.777 286.648 463.009 286.113 463.473 285.668C463.946 285.223 464.51 285 465.163 285C465.817 285 466.375 285.223 466.839 285.668C467.313 286.113 467.55 286.648 467.55 287.273C467.55 287.898 467.313 288.433 466.839 288.878C466.375 289.323 465.817 289.545 465.163 289.545ZM481.19 315.455C479.371 315.455 477.766 314.995 476.374 314.077C474.982 313.149 473.893 311.842 473.107 310.156C472.321 308.461 471.928 306.458 471.928 304.148C471.928 301.856 472.321 299.867 473.107 298.182C473.893 296.496 474.987 295.194 476.388 294.276C477.79 293.357 479.409 292.898 481.246 292.898C482.667 292.898 483.789 293.134 484.613 293.608C485.446 294.072 486.081 294.602 486.516 295.199C486.961 295.786 487.307 296.269 487.553 296.648H487.837V285.909H491.19V315H487.951V311.648H487.553C487.307 312.045 486.957 312.547 486.502 313.153C486.048 313.75 485.399 314.285 484.556 314.759C483.713 315.223 482.591 315.455 481.19 315.455ZM481.644 312.443C482.989 312.443 484.125 312.093 485.053 311.392C485.981 310.682 486.687 309.702 487.17 308.452C487.653 307.192 487.894 305.739 487.894 304.091C487.894 302.462 487.657 301.037 487.184 299.815C486.71 298.584 486.01 297.628 485.082 296.946C484.154 296.255 483.008 295.909 481.644 295.909C480.224 295.909 479.04 296.274 478.093 297.003C477.156 297.723 476.45 298.703 475.977 299.943C475.513 301.174 475.281 302.557 475.281 304.091C475.281 305.644 475.517 307.055 475.991 308.324C476.474 309.583 477.184 310.587 478.121 311.335C479.068 312.074 480.243 312.443 481.644 312.443ZM506.942 315.455C504.84 315.455 503.027 314.991 501.502 314.062C499.987 313.125 498.817 311.818 497.994 310.142C497.179 308.456 496.772 306.496 496.772 304.261C496.772 302.027 497.179 300.057 497.994 298.352C498.817 296.638 499.963 295.303 501.431 294.347C502.908 293.381 504.632 292.898 506.602 292.898C507.738 292.898 508.86 293.087 509.968 293.466C511.076 293.845 512.085 294.46 512.994 295.312C513.903 296.155 514.627 297.273 515.167 298.665C515.707 300.057 515.977 301.771 515.977 303.807V305.227H499.158V302.33H512.567C512.567 301.098 512.321 300 511.829 299.034C511.346 298.068 510.655 297.306 509.755 296.747C508.865 296.188 507.814 295.909 506.602 295.909C505.266 295.909 504.111 296.241 503.136 296.903C502.17 297.557 501.426 298.409 500.906 299.46C500.385 300.511 500.124 301.638 500.124 302.841V304.773C500.124 306.42 500.408 307.817 500.977 308.963C501.554 310.099 502.354 310.966 503.377 311.562C504.4 312.15 505.588 312.443 506.942 312.443C507.823 312.443 508.619 312.32 509.329 312.074C510.049 311.818 510.669 311.439 511.19 310.938C511.71 310.426 512.113 309.792 512.397 309.034L515.636 309.943C515.295 311.042 514.722 312.008 513.917 312.841C513.112 313.665 512.118 314.309 510.934 314.773C509.75 315.227 508.42 315.455 506.942 315.455ZM541.815 293.182V296.023H530.508V293.182H541.815ZM533.803 287.955H537.156V308.75C537.156 309.697 537.293 310.407 537.567 310.881C537.852 311.345 538.211 311.657 538.647 311.818C539.092 311.97 539.561 312.045 540.053 312.045C540.423 312.045 540.726 312.027 540.962 311.989C541.199 311.941 541.388 311.903 541.531 311.875L542.212 314.886C541.985 314.972 541.668 315.057 541.261 315.142C540.853 315.237 540.337 315.284 539.712 315.284C538.765 315.284 537.837 315.08 536.928 314.673C536.029 314.266 535.281 313.646 534.684 312.812C534.097 311.979 533.803 310.928 533.803 309.659V287.955ZM555.487 315.455C553.517 315.455 551.789 314.986 550.302 314.048C548.825 313.111 547.669 311.799 546.836 310.114C546.012 308.428 545.6 306.458 545.6 304.205C545.6 301.932 546.012 299.948 546.836 298.253C547.669 296.558 548.825 295.241 550.302 294.304C551.789 293.366 553.517 292.898 555.487 292.898C557.456 292.898 559.18 293.366 560.657 294.304C562.144 295.241 563.299 296.558 564.123 298.253C564.956 299.948 565.373 301.932 565.373 304.205C565.373 306.458 564.956 308.428 564.123 310.114C563.299 311.799 562.144 313.111 560.657 314.048C559.18 314.986 557.456 315.455 555.487 315.455ZM555.487 312.443C556.983 312.443 558.214 312.06 559.18 311.293C560.146 310.526 560.861 309.517 561.325 308.267C561.789 307.017 562.021 305.663 562.021 304.205C562.021 302.746 561.789 301.387 561.325 300.128C560.861 298.868 560.146 297.85 559.18 297.074C558.214 296.297 556.983 295.909 555.487 295.909C553.99 295.909 552.759 296.297 551.793 297.074C550.827 297.85 550.112 298.868 549.648 300.128C549.184 301.387 548.952 302.746 548.952 304.205C548.952 305.663 549.184 307.017 549.648 308.267C550.112 309.517 550.827 310.526 551.793 311.293C552.759 312.06 553.99 312.443 555.487 312.443ZM581.74 323.182V293.182H584.979V296.648H585.376C585.623 296.269 585.964 295.786 586.399 295.199C586.844 294.602 587.479 294.072 588.303 293.608C589.136 293.134 590.263 292.898 591.683 292.898C593.52 292.898 595.14 293.357 596.541 294.276C597.943 295.194 599.036 296.496 599.822 298.182C600.608 299.867 601.001 301.856 601.001 304.148C601.001 306.458 600.608 308.461 599.822 310.156C599.036 311.842 597.947 313.149 596.555 314.077C595.163 314.995 593.558 315.455 591.74 315.455C590.339 315.455 589.216 315.223 588.374 314.759C587.531 314.285 586.882 313.75 586.428 313.153C585.973 312.547 585.623 312.045 585.376 311.648H585.092V323.182H581.74ZM585.036 304.091C585.036 305.739 585.277 307.192 585.76 308.452C586.243 309.702 586.948 310.682 587.876 311.392C588.804 312.093 589.941 312.443 591.286 312.443C592.687 312.443 593.857 312.074 594.794 311.335C595.741 310.587 596.451 309.583 596.925 308.324C597.408 307.055 597.649 305.644 597.649 304.091C597.649 302.557 597.412 301.174 596.939 299.943C596.475 298.703 595.769 297.723 594.822 297.003C593.885 296.274 592.706 295.909 591.286 295.909C589.922 295.909 588.776 296.255 587.848 296.946C586.92 297.628 586.219 298.584 585.746 299.815C585.272 301.037 585.036 302.462 585.036 304.091ZM614.979 315.455C613.009 315.455 611.281 314.986 609.794 314.048C608.317 313.111 607.161 311.799 606.328 310.114C605.504 308.428 605.092 306.458 605.092 304.205C605.092 301.932 605.504 299.948 606.328 298.253C607.161 296.558 608.317 295.241 609.794 294.304C611.281 293.366 613.009 292.898 614.979 292.898C616.948 292.898 618.672 293.366 620.149 294.304C621.636 295.241 622.791 296.558 623.615 298.253C624.448 299.948 624.865 301.932 624.865 304.205C624.865 306.458 624.448 308.428 623.615 310.114C622.791 311.799 621.636 313.111 620.149 314.048C618.672 314.986 616.948 315.455 614.979 315.455ZM614.979 312.443C616.475 312.443 617.706 312.06 618.672 311.293C619.638 310.526 620.353 309.517 620.817 308.267C621.281 307.017 621.513 305.663 621.513 304.205C621.513 302.746 621.281 301.387 620.817 300.128C620.353 298.868 619.638 297.85 618.672 297.074C617.706 296.297 616.475 295.909 614.979 295.909C613.482 295.909 612.251 296.297 611.286 297.074C610.32 297.85 609.605 298.868 609.141 300.128C608.677 301.387 608.445 302.746 608.445 304.205C608.445 305.663 608.677 307.017 609.141 308.267C609.605 309.517 610.32 310.526 611.286 311.293C612.251 312.06 613.482 312.443 614.979 312.443ZM634.183 315L627.536 293.182H631.058L635.774 309.886H636.001L640.661 293.182H644.24L648.842 309.83H649.07L653.786 293.182H657.308L650.661 315H647.365L642.592 298.239H642.251L637.479 315H634.183ZM670.146 315.455C668.043 315.455 666.23 314.991 664.705 314.062C663.19 313.125 662.021 311.818 661.197 310.142C660.382 308.456 659.975 306.496 659.975 304.261C659.975 302.027 660.382 300.057 661.197 298.352C662.021 296.638 663.166 295.303 664.634 294.347C666.112 293.381 667.835 292.898 669.805 292.898C670.941 292.898 672.063 293.087 673.171 293.466C674.279 293.845 675.288 294.46 676.197 295.312C677.106 296.155 677.83 297.273 678.37 298.665C678.91 300.057 679.18 301.771 679.18 303.807V305.227H662.362V302.33H675.771C675.771 301.098 675.524 300 675.032 299.034C674.549 298.068 673.858 297.306 672.958 296.747C672.068 296.188 671.017 295.909 669.805 295.909C668.469 295.909 667.314 296.241 666.339 296.903C665.373 297.557 664.629 298.409 664.109 299.46C663.588 300.511 663.327 301.638 663.327 302.841V304.773C663.327 306.42 663.612 307.817 664.18 308.963C664.757 310.099 665.558 310.966 666.58 311.562C667.603 312.15 668.791 312.443 670.146 312.443C671.026 312.443 671.822 312.32 672.532 312.074C673.252 311.818 673.872 311.439 674.393 310.938C674.914 310.426 675.316 309.792 675.6 309.034L678.839 309.943C678.498 311.042 677.925 312.008 677.12 312.841C676.315 313.665 675.321 314.309 674.137 314.773C672.953 315.227 671.623 315.455 670.146 315.455ZM684.279 315V293.182H687.518V296.477H687.745C688.143 295.398 688.862 294.522 689.904 293.849C690.946 293.177 692.12 292.841 693.427 292.841C693.673 292.841 693.981 292.846 694.35 292.855C694.719 292.865 694.999 292.879 695.188 292.898V296.307C695.075 296.278 694.814 296.236 694.407 296.179C694.009 296.113 693.588 296.08 693.143 296.08C692.082 296.08 691.135 296.302 690.302 296.747C689.478 297.183 688.825 297.789 688.342 298.565C687.868 299.332 687.631 300.208 687.631 301.193V315H684.279ZM719.276 315.455C717.306 315.455 715.578 314.986 714.091 314.048C712.614 313.111 711.458 311.799 710.625 310.114C709.801 308.428 709.389 306.458 709.389 304.205C709.389 301.932 709.801 299.948 710.625 298.253C711.458 296.558 712.614 295.241 714.091 294.304C715.578 293.366 717.306 292.898 719.276 292.898C721.245 292.898 722.969 293.366 724.446 294.304C725.933 295.241 727.088 296.558 727.912 298.253C728.745 299.948 729.162 301.932 729.162 304.205C729.162 306.458 728.745 308.428 727.912 310.114C727.088 311.799 725.933 313.111 724.446 314.048C722.969 314.986 721.245 315.455 719.276 315.455ZM719.276 312.443C720.772 312.443 722.003 312.06 722.969 311.293C723.935 310.526 724.65 309.517 725.114 308.267C725.578 307.017 725.81 305.663 725.81 304.205C725.81 302.746 725.578 301.387 725.114 300.128C724.65 298.868 723.935 297.85 722.969 297.074C722.003 296.297 720.772 295.909 719.276 295.909C717.779 295.909 716.548 296.297 715.582 297.074C714.616 297.85 713.902 298.868 713.438 300.128C712.973 301.387 712.741 302.746 712.741 304.205C712.741 305.663 712.973 307.017 713.438 308.267C713.902 309.517 714.616 310.526 715.582 311.293C716.548 312.06 717.779 312.443 719.276 312.443ZM743.995 293.182V296.023H732.234V293.182H743.995ZM735.756 315V290.17C735.756 288.92 736.05 287.879 736.637 287.045C737.224 286.212 737.987 285.587 738.924 285.17C739.862 284.754 740.851 284.545 741.893 284.545C742.717 284.545 743.389 284.612 743.91 284.744C744.431 284.877 744.819 285 745.075 285.114L744.109 288.011C743.938 287.955 743.701 287.884 743.398 287.798C743.105 287.713 742.717 287.67 742.234 287.67C741.126 287.67 740.326 287.95 739.833 288.509C739.35 289.067 739.109 289.886 739.109 290.966V315H735.756ZM758.409 293.182V296.023H746.648V293.182H758.409ZM750.17 315V290.17C750.17 288.92 750.464 287.879 751.051 287.045C751.638 286.212 752.401 285.587 753.338 285.17C754.276 284.754 755.265 284.545 756.307 284.545C757.131 284.545 757.803 284.612 758.324 284.744C758.845 284.877 759.233 285 759.489 285.114L758.523 288.011C758.352 287.955 758.116 287.884 757.812 287.798C757.519 287.713 757.131 287.67 756.648 287.67C755.54 287.67 754.74 287.95 754.247 288.509C753.764 289.067 753.523 289.886 753.523 290.966V315H750.17Z" fill="url(#paint0_linear_60_57)"/>
<circle cx="318" cy="300" r="75" fill="#F6F6F6"/>
<path d="M333.045 280.034C337.262 283.211 340.364 287.642 341.908 292.691C343.451 297.74 343.357 303.147 341.638 308.139C339.919 313.131 336.664 317.451 332.339 320.479C328.015 323.507 322.842 325.088 317.564 324.996C312.285 324.904 307.171 323.143 302.955 319.966C298.738 316.789 295.636 312.358 294.092 307.309C292.549 302.26 292.643 296.853 294.362 291.861C296.081 286.869 299.336 282.549 303.661 279.521" stroke="#CF0303" stroke-width="10" stroke-linecap="round" stroke-linejoin="round"/>
<path d="M319 263V293" stroke="#CF0303" stroke-width="9" stroke-linecap="round"/>
<defs>
<linearGradient id="paint0_linear_60_57" x1="442" y1="357" x2="827" y2="276" gradientUnits="userSpaceOnUse">
<stop/>
<stop offset="1" stop-color="white" stop-opacity="0.5"/>
</linearGradient>
</defs>
</svg>
