<svg width="1000" height="600" viewBox="0 0 1000 600" fill="none" xmlns="http://www.w3.org/2000/svg">
<path d="M273 300C273 264.654 301.652 236 336.997 236H664.003C699.348 236 728 264.654 728 300C728 335.346 699.348 364 664.003 364H336.997C301.652 364 273 335.346 273 300Z" fill="#7D7D7D"/>
<path d="M438.863 298.492L436.512 299.157C436.364 298.766 436.146 298.385 435.858 298.016C435.577 297.639 435.193 297.328 434.705 297.084C434.218 296.84 433.593 296.718 432.832 296.718C431.79 296.718 430.921 296.959 430.227 297.439C429.539 297.912 429.196 298.514 429.196 299.246C429.196 299.897 429.432 300.41 429.905 300.787C430.378 301.164 431.117 301.478 432.122 301.729L434.65 302.35C436.172 302.72 437.307 303.285 438.053 304.047C438.8 304.8 439.173 305.772 439.173 306.962C439.173 307.938 438.892 308.81 438.33 309.579C437.776 310.347 437 310.953 436.002 311.397C435.005 311.84 433.844 312.062 432.521 312.062C430.785 312.062 429.347 311.685 428.209 310.931C427.071 310.177 426.35 309.076 426.047 307.627L428.53 307.007C428.767 307.923 429.214 308.61 429.872 309.069C430.537 309.527 431.405 309.756 432.477 309.756C433.696 309.756 434.665 309.497 435.382 308.98C436.106 308.455 436.468 307.827 436.468 307.095C436.468 306.504 436.261 306.009 435.847 305.61C435.433 305.203 434.798 304.9 433.94 304.701L431.102 304.035C429.543 303.666 428.397 303.093 427.666 302.317C426.942 301.534 426.579 300.554 426.579 299.379C426.579 298.418 426.849 297.568 427.389 296.829C427.936 296.09 428.678 295.51 429.617 295.089C430.563 294.667 431.635 294.457 432.832 294.457C434.517 294.457 435.84 294.826 436.801 295.565C437.769 296.305 438.456 297.28 438.863 298.492Z" fill="url(#paint0_linear_60_57)"/>
<path d="M445.727 289.002V311.707H443.111V289.002H445.727Z" fill="url(#paint1_linear_60_57)"/>
<path d="M450.519 311.707V294.678H453.136V311.707H450.519ZM451.85 291.84C451.34 291.84 450.9 291.667 450.53 291.319C450.168 290.972 449.987 290.554 449.987 290.067C449.987 289.579 450.168 289.161 450.53 288.814C450.9 288.466 451.34 288.293 451.85 288.293C452.36 288.293 452.796 288.466 453.158 288.814C453.527 289.161 453.712 289.579 453.712 290.067C453.712 290.554 453.527 290.972 453.158 291.319C452.796 291.667 452.36 291.84 451.85 291.84Z" fill="url(#paint2_linear_60_57)"/>
<path d="M464.357 312.062C462.938 312.062 461.686 311.704 460.599 310.987C459.513 310.262 458.663 309.242 458.049 307.927C457.436 306.604 457.129 305.041 457.129 303.237C457.129 301.449 457.436 299.897 458.049 298.581C458.663 297.265 459.516 296.249 460.61 295.532C461.704 294.815 462.968 294.457 464.402 294.457C465.51 294.457 466.386 294.642 467.029 295.011C467.679 295.373 468.175 295.787 468.514 296.253C468.862 296.711 469.132 297.088 469.324 297.384H469.545V289.002H472.162V311.707H469.634V309.091H469.324C469.132 309.401 468.858 309.793 468.503 310.266C468.149 310.732 467.642 311.149 466.985 311.519C466.327 311.881 465.451 312.062 464.357 312.062ZM464.712 309.712C465.761 309.712 466.648 309.438 467.373 308.891C468.097 308.337 468.648 307.572 469.024 306.596C469.401 305.613 469.59 304.479 469.59 303.193C469.59 301.922 469.405 300.809 469.036 299.856C468.666 298.895 468.119 298.149 467.395 297.616C466.671 297.077 465.776 296.807 464.712 296.807C463.603 296.807 462.68 297.092 461.941 297.661C461.209 298.222 460.658 298.987 460.289 299.956C459.927 300.916 459.746 301.996 459.746 303.193C459.746 304.405 459.93 305.506 460.3 306.497C460.677 307.48 461.231 308.263 461.963 308.847C462.702 309.424 463.618 309.712 464.712 309.712Z" fill="url(#paint3_linear_60_57)"/>
<path d="M484.456 312.062C482.815 312.062 481.4 311.7 480.21 310.976C479.028 310.244 478.115 309.224 477.472 307.916C476.836 306.6 476.518 305.07 476.518 303.326C476.518 301.582 476.836 300.044 477.472 298.714C478.115 297.376 479.009 296.334 480.155 295.588C481.308 294.834 482.653 294.457 484.19 294.457C485.077 294.457 485.953 294.605 486.817 294.9C487.682 295.196 488.469 295.676 489.179 296.341C489.888 296.999 490.453 297.871 490.875 298.958C491.296 300.044 491.507 301.382 491.507 302.971V304.08H478.381V301.818H488.846C488.846 300.857 488.654 300 488.27 299.246C487.893 298.492 487.353 297.897 486.651 297.461C485.956 297.025 485.136 296.807 484.19 296.807C483.148 296.807 482.246 297.066 481.485 297.583C480.731 298.093 480.151 298.758 479.744 299.579C479.338 300.399 479.135 301.279 479.135 302.217V303.725C479.135 305.011 479.356 306.101 479.8 306.996C480.251 307.882 480.875 308.559 481.673 309.024C482.472 309.483 483.399 309.712 484.456 309.712C485.143 309.712 485.764 309.616 486.318 309.424C486.88 309.224 487.364 308.928 487.771 308.537C488.177 308.137 488.491 307.642 488.713 307.051L491.241 307.761C490.974 308.618 490.527 309.372 489.899 310.022C489.271 310.665 488.495 311.168 487.571 311.53C486.647 311.885 485.609 312.062 484.456 312.062Z" fill="url(#paint4_linear_60_57)"/>
<path d="M511.672 294.678V296.896H502.847V294.678H511.672ZM505.419 290.599H508.036V306.829C508.036 307.568 508.143 308.123 508.357 308.492C508.579 308.854 508.86 309.098 509.2 309.224C509.547 309.342 509.913 309.401 510.297 309.401C510.585 309.401 510.822 309.387 511.007 309.357C511.191 309.32 511.339 309.29 511.45 309.268L511.982 311.619C511.805 311.685 511.557 311.752 511.239 311.818C510.922 311.892 510.519 311.929 510.031 311.929C509.292 311.929 508.568 311.77 507.858 311.452C507.156 311.135 506.572 310.65 506.107 310C505.648 309.35 505.419 308.529 505.419 307.539V290.599Z" fill="url(#paint5_linear_60_57)"/>
<path d="M522.342 312.062C520.805 312.062 519.456 311.696 518.296 310.965C517.143 310.233 516.241 309.209 515.591 307.894C514.948 306.578 514.626 305.041 514.626 303.282C514.626 301.508 514.948 299.959 515.591 298.636C516.241 297.313 517.143 296.286 518.296 295.554C519.456 294.823 520.805 294.457 522.342 294.457C523.879 294.457 525.224 294.823 526.377 295.554C527.538 296.286 528.439 297.313 529.082 298.636C529.733 299.959 530.058 301.508 530.058 303.282C530.058 305.041 529.733 306.578 529.082 307.894C528.439 309.209 527.538 310.233 526.377 310.965C525.224 311.696 523.879 312.062 522.342 312.062ZM522.342 309.712C523.51 309.712 524.47 309.412 525.224 308.814C525.978 308.215 526.536 307.428 526.898 306.452C527.26 305.477 527.441 304.42 527.441 303.282C527.441 302.143 527.26 301.083 526.898 300.1C526.536 299.117 525.978 298.322 525.224 297.716C524.47 297.11 523.51 296.807 522.342 296.807C521.174 296.807 520.213 297.11 519.46 297.716C518.706 298.322 518.148 299.117 517.786 300.1C517.424 301.083 517.242 302.143 517.242 303.282C517.242 304.42 517.424 305.477 517.786 306.452C518.148 307.428 518.706 308.215 519.46 308.814C520.213 309.412 521.174 309.712 522.342 309.712Z" fill="url(#paint6_linear_60_57)"/>
<path d="M542.831 318.093V294.678H545.359V297.384H545.669C545.862 297.088 546.128 296.711 546.468 296.253C546.815 295.787 547.31 295.373 547.953 295.011C548.603 294.642 549.483 294.457 550.592 294.457C552.025 294.457 553.289 294.815 554.383 295.532C555.477 296.249 556.33 297.265 556.944 298.581C557.557 299.897 557.864 301.449 557.864 303.237C557.864 305.041 557.557 306.604 556.944 307.927C556.33 309.242 555.48 310.262 554.394 310.987C553.308 311.704 552.055 312.062 550.636 312.062C549.542 312.062 548.666 311.881 548.009 311.519C547.351 311.149 546.845 310.732 546.49 310.266C546.135 309.793 545.862 309.401 545.669 309.091H545.448V318.093H542.831ZM545.403 303.193C545.403 304.479 545.592 305.613 545.969 306.596C546.346 307.572 546.896 308.337 547.621 308.891C548.345 309.438 549.232 309.712 550.281 309.712C551.375 309.712 552.288 309.424 553.019 308.847C553.758 308.263 554.313 307.48 554.682 306.497C555.059 305.506 555.248 304.405 555.248 303.193C555.248 301.996 555.063 300.916 554.693 299.956C554.331 298.987 553.781 298.222 553.042 297.661C552.31 297.092 551.39 296.807 550.281 296.807C549.217 296.807 548.323 297.077 547.598 297.616C546.874 298.149 546.327 298.895 545.958 299.856C545.588 300.809 545.403 301.922 545.403 303.193Z" fill="url(#paint7_linear_60_57)"/>
<path d="M568.772 312.062C567.235 312.062 565.886 311.696 564.726 310.965C563.573 310.233 562.671 309.209 562.021 307.894C561.378 306.578 561.057 305.041 561.057 303.282C561.057 301.508 561.378 299.959 562.021 298.636C562.671 297.313 563.573 296.286 564.726 295.554C565.886 294.823 567.235 294.457 568.772 294.457C570.31 294.457 571.655 294.823 572.808 295.554C573.968 296.286 574.87 297.313 575.513 298.636C576.163 299.959 576.488 301.508 576.488 303.282C576.488 305.041 576.163 306.578 575.513 307.894C574.87 309.209 573.968 310.233 572.808 310.965C571.655 311.696 570.31 312.062 568.772 312.062ZM568.772 309.712C569.94 309.712 570.901 309.412 571.655 308.814C572.409 308.215 572.967 307.428 573.329 306.452C573.691 305.477 573.872 304.42 573.872 303.282C573.872 302.143 573.691 301.083 573.329 300.1C572.967 299.117 572.409 298.322 571.655 297.716C570.901 297.11 569.94 296.807 568.772 296.807C567.605 296.807 566.644 297.11 565.89 297.716C565.136 298.322 564.578 299.117 564.216 300.1C563.854 301.083 563.673 302.143 563.673 303.282C563.673 304.42 563.854 305.477 564.216 306.452C564.578 307.428 565.136 308.215 565.89 308.814C566.644 309.412 567.605 309.712 568.772 309.712Z" fill="url(#paint8_linear_60_57)"/>
<path d="M583.761 311.707L578.572 294.678H581.322L585.002 307.716H585.179L588.816 294.678H591.609L595.201 307.672H595.378L599.059 294.678H601.808L596.62 311.707H594.048L590.323 298.625H590.057L586.332 311.707H583.761Z" fill="url(#paint9_linear_60_57)"/>
<path d="M611.827 312.062C610.186 312.062 608.771 311.7 607.581 310.976C606.399 310.244 605.486 309.224 604.843 307.916C604.207 306.6 603.89 305.07 603.89 303.326C603.89 301.582 604.207 300.044 604.843 298.714C605.486 297.376 606.38 296.334 607.526 295.588C608.679 294.834 610.024 294.457 611.561 294.457C612.448 294.457 613.324 294.605 614.188 294.9C615.053 295.196 615.84 295.676 616.55 296.341C617.259 296.999 617.825 297.871 618.246 298.958C618.667 300.044 618.878 301.382 618.878 302.971V304.08H605.752V301.818H616.217C616.217 300.857 616.025 300 615.641 299.246C615.264 298.492 614.724 297.897 614.022 297.461C613.327 297.025 612.507 296.807 611.561 296.807C610.519 296.807 609.617 297.066 608.856 297.583C608.102 298.093 607.522 298.758 607.116 299.579C606.709 300.399 606.506 301.279 606.506 302.217V303.725C606.506 305.011 606.728 306.101 607.171 306.996C607.622 307.882 608.246 308.559 609.045 309.024C609.843 309.483 610.77 309.712 611.827 309.712C612.515 309.712 613.135 309.616 613.69 309.424C614.251 309.224 614.735 308.928 615.142 308.537C615.548 308.137 615.862 307.642 616.084 307.051L618.612 307.761C618.346 308.618 617.899 309.372 617.27 310.022C616.642 310.665 615.866 311.168 614.942 311.53C614.019 311.885 612.98 312.062 611.827 312.062Z" fill="url(#paint10_linear_60_57)"/>
<path d="M622.858 311.707V294.678H625.385V297.251H625.563C625.873 296.408 626.435 295.724 627.248 295.2C628.061 294.675 628.977 294.412 629.997 294.412C630.189 294.412 630.429 294.416 630.718 294.424C631.006 294.431 631.224 294.442 631.372 294.457V297.118C631.283 297.095 631.08 297.062 630.762 297.018C630.451 296.966 630.123 296.94 629.775 296.94C628.947 296.94 628.208 297.114 627.558 297.461C626.915 297.801 626.405 298.274 626.028 298.88C625.659 299.479 625.474 300.163 625.474 300.931V311.707H622.858Z" fill="url(#paint11_linear_60_57)"/>
<path d="M650.17 312.062C648.633 312.062 647.284 311.696 646.124 310.965C644.971 310.233 644.07 309.209 643.419 307.894C642.776 306.578 642.455 305.041 642.455 303.282C642.455 301.508 642.776 299.959 643.419 298.636C644.07 297.313 644.971 296.286 646.124 295.554C647.284 294.823 648.633 294.457 650.17 294.457C651.708 294.457 653.053 294.823 654.206 295.554C655.366 296.286 656.268 297.313 656.911 298.636C657.561 299.959 657.886 301.508 657.886 303.282C657.886 305.041 657.561 306.578 656.911 307.894C656.268 309.209 655.366 310.233 654.206 310.965C653.053 311.696 651.708 312.062 650.17 312.062ZM650.17 309.712C651.338 309.712 652.299 309.412 653.053 308.814C653.807 308.215 654.365 307.428 654.727 306.452C655.089 305.477 655.27 304.42 655.27 303.282C655.27 302.143 655.089 301.083 654.727 300.1C654.365 299.117 653.807 298.322 653.053 297.716C652.299 297.11 651.338 296.807 650.17 296.807C649.003 296.807 648.042 297.11 647.288 297.716C646.534 298.322 645.976 299.117 645.614 300.1C645.252 301.083 645.071 302.143 645.071 303.282C645.071 304.42 645.252 305.477 645.614 306.452C645.976 307.428 646.534 308.215 647.288 308.814C648.042 309.412 649.003 309.712 650.17 309.712Z" fill="url(#paint12_linear_60_57)"/>
<path d="M669.463 294.678V296.896H660.284V294.678H669.463ZM663.033 311.707V292.328C663.033 291.353 663.262 290.54 663.72 289.889C664.178 289.239 664.773 288.751 665.505 288.426C666.237 288.101 667.009 287.938 667.822 287.938C668.465 287.938 668.99 287.99 669.396 288.093C669.803 288.197 670.106 288.293 670.305 288.381L669.551 290.643C669.418 290.599 669.234 290.543 668.997 290.477C668.768 290.41 668.465 290.377 668.088 290.377C667.223 290.377 666.599 290.595 666.215 291.031C665.838 291.467 665.649 292.106 665.649 292.949V311.707H663.033Z" fill="url(#paint13_linear_60_57)"/>
<path d="M680.712 294.678V296.896H671.533V294.678H680.712ZM674.282 311.707V292.328C674.282 291.353 674.511 290.54 674.97 289.889C675.428 289.239 676.023 288.751 676.754 288.426C677.486 288.101 678.258 287.938 679.071 287.938C679.714 287.938 680.239 287.99 680.646 288.093C681.052 288.197 681.355 288.293 681.555 288.381L680.801 290.643C680.668 290.599 680.483 290.543 680.246 290.477C680.017 290.41 679.714 290.377 679.337 290.377C678.473 290.377 677.848 290.595 677.464 291.031C677.087 291.467 676.899 292.106 676.899 292.949V311.707H674.282Z" fill="url(#paint14_linear_60_57)"/>
<path d="M395.53 300C395.53 332.329 369.324 358.537 336.997 358.537C304.669 358.537 278.463 332.329 278.463 300C278.463 267.671 304.669 241.463 336.997 241.463C369.324 241.463 395.53 267.671 395.53 300Z" fill="#F6F6F6"/>
<path fill-rule="evenodd" clip-rule="evenodd" d="M322.238 294.918C321.165 298.035 321.106 301.411 322.07 304.564C323.033 307.716 324.97 310.483 327.603 312.466C330.235 314.45 333.428 315.55 336.724 315.607C340.02 315.665 343.249 314.678 345.949 312.787C348.65 310.896 350.682 308.199 351.755 305.082C352.828 301.965 352.887 298.589 351.923 295.436C350.96 292.284 349.023 289.517 346.39 287.533C344.669 286.236 344.325 283.79 345.622 282.068C346.919 280.347 349.366 280.003 351.087 281.3C355.036 284.276 357.941 288.426 359.387 293.154C360.833 297.883 360.744 302.948 359.134 307.623C357.525 312.298 354.476 316.344 350.426 319.18C346.376 322.016 341.532 323.497 336.588 323.411C331.644 323.325 326.855 321.676 322.906 318.7C318.957 315.724 316.052 311.574 314.606 306.846C313.161 302.117 313.249 297.052 314.859 292.377C316.469 287.702 319.517 283.656 323.567 280.82C325.333 279.584 327.766 280.013 329.002 281.778C330.238 283.544 329.809 285.977 328.044 287.213C325.344 289.104 323.311 291.801 322.238 294.918Z" fill="#CF0303"/>
<path fill-rule="evenodd" clip-rule="evenodd" d="M337.777 267.61C339.717 267.61 341.289 269.182 341.289 271.122V294.537C341.289 296.476 339.717 298.049 337.777 298.049C335.837 298.049 334.265 296.476 334.265 294.537V271.122C334.265 269.182 335.837 267.61 337.777 267.61Z" fill="#CF0303"/>
<defs>
<linearGradient id="paint0_linear_60_57" x1="286.756" y1="476.037" x2="841.192" y2="427.103" gradientUnits="userSpaceOnUse">
<stop/>
<stop offset="1" stop-color="white" stop-opacity="0.5"/>
</linearGradient>
<linearGradient id="paint1_linear_60_57" x1="286.756" y1="476.037" x2="841.192" y2="427.103" gradientUnits="userSpaceOnUse">
<stop/>
<stop offset="1" stop-color="white" stop-opacity="0.5"/>
</linearGradient>
<linearGradient id="paint2_linear_60_57" x1="286.756" y1="476.037" x2="841.192" y2="427.103" gradientUnits="userSpaceOnUse">
<stop/>
<stop offset="1" stop-color="white" stop-opacity="0.5"/>
</linearGradient>
<linearGradient id="paint3_linear_60_57" x1="286.756" y1="476.037" x2="841.192" y2="427.103" gradientUnits="userSpaceOnUse">
<stop/>
<stop offset="1" stop-color="white" stop-opacity="0.5"/>
</linearGradient>
<linearGradient id="paint4_linear_60_57" x1="286.756" y1="476.037" x2="841.192" y2="427.103" gradientUnits="userSpaceOnUse">
<stop/>
<stop offset="1" stop-color="white" stop-opacity="0.5"/>
</linearGradient>
<linearGradient id="paint5_linear_60_57" x1="286.756" y1="476.037" x2="841.192" y2="427.103" gradientUnits="userSpaceOnUse">
<stop/>
<stop offset="1" stop-color="white" stop-opacity="0.5"/>
</linearGradient>
<linearGradient id="paint6_linear_60_57" x1="286.756" y1="476.037" x2="841.192" y2="427.103" gradientUnits="userSpaceOnUse">
<stop/>
<stop offset="1" stop-color="white" stop-opacity="0.5"/>
</linearGradient>
<linearGradient id="paint7_linear_60_57" x1="286.756" y1="476.037" x2="841.192" y2="427.103" gradientUnits="userSpaceOnUse">
<stop/>
<stop offset="1" stop-color="white" stop-opacity="0.5"/>
</linearGradient>
<linearGradient id="paint8_linear_60_57" x1="286.756" y1="476.037" x2="841.192" y2="427.103" gradientUnits="userSpaceOnUse">
<stop/>
<stop offset="1" stop-color="white" stop-opacity="0.5"/>
</linearGradient>
<linearGradient id="paint9_linear_60_57" x1="286.756" y1="476.037" x2="841.192" y2="427.103" gradientUnits="userSpaceOnUse">
<stop/>
<stop offset="1" stop-color="white" stop-opacity="0.5"/>
</linearGradient>
<linearGradient id="paint10_linear_60_57" x1="286.756" y1="476.037" x2="841.192" y2="427.103" gradientUnits="userSpaceOnUse">
<stop/>
<stop offset="1" stop-color="white" stop-opacity="0.5"/>
</linearGradient>
<linearGradient id="paint11_linear_60_57" x1="286.756" y1="476.037" x2="841.192" y2="427.103" gradientUnits="userSpaceOnUse">
<stop/>
<stop offset="1" stop-color="white" stop-opacity="0.5"/>
</linearGradient>
<linearGradient id="paint12_linear_60_57" x1="286.756" y1="476.037" x2="841.192" y2="427.103" gradientUnits="userSpaceOnUse">
<stop/>
<stop offset="1" stop-color="white" stop-opacity="0.5"/>
</linearGradient>
<linearGradient id="paint13_linear_60_57" x1="286.756" y1="476.037" x2="841.192" y2="427.103" gradientUnits="userSpaceOnUse">
<stop/>
<stop offset="1" stop-color="white" stop-opacity="0.5"/>
</linearGradient>
<linearGradient id="paint14_linear_60_57" x1="286.756" y1="476.037" x2="841.192" y2="427.103" gradientUnits="userSpaceOnUse">
<stop/>
<stop offset="1" stop-color="white" stop-opacity="0.5"/>
</linearGradient>
</defs>
</svg>
