<svg width="570" height="570" viewBox="0 0 570 570" fill="none" xmlns="http://www.w3.org/2000/svg">
<path d="M150.089 369.576C161.54 376.127 161.54 386.753 150.089 393.287C138.639 399.821 120.054 399.838 108.595 393.287C97.1352 386.736 97.1352 376.101 108.595 369.576C120.054 363.051 138.568 363.016 150.089 369.576Z" fill="#E0E0E0"/>
<path d="M175.206 384.637L279.129 444.091C280.318 444.689 281.633 445 282.966 445C284.3 445 285.614 444.689 286.804 444.091L462.727 343.45C464.845 342.238 464.845 340.271 462.727 339.059L358.804 279.596C357.614 278.998 356.3 278.687 354.966 278.687C353.632 278.687 352.318 278.998 351.129 279.596L175.206 380.246C173.079 381.458 173.079 383.425 175.206 384.637Z" fill="#E0E0E0"/>
<path d="M437.486 322.127L430.246 317.982C430.246 317.982 425.929 300.234 427.649 284.268C430.068 261.821 442.254 252.047 450.647 255.288C456.231 257.466 457.959 263.753 448.573 277.128C443.043 285.041 436.246 301.463 437.486 322.127Z" fill="#92E3A9"/>
<g opacity="0.3">
<path d="M437.486 322.127L430.246 317.982C430.246 317.982 425.929 300.234 427.649 284.268C430.068 261.821 442.254 252.047 450.647 255.288C456.231 257.466 457.959 263.753 448.573 277.128C443.043 285.041 436.246 301.463 437.486 322.127Z" fill="black"/>
</g>
<path d="M434.482 313.45H434.58C434.645 313.439 434.707 313.415 434.762 313.379C434.817 313.344 434.865 313.297 434.902 313.244C434.939 313.19 434.965 313.129 434.978 313.065C434.991 313.001 434.992 312.935 434.979 312.871C431.008 292.172 438.311 268.9 447.386 259.222C447.472 259.123 447.516 258.996 447.509 258.866C447.501 258.736 447.443 258.614 447.346 258.526C447.249 258.438 447.121 258.39 446.99 258.394C446.858 258.398 446.734 258.452 446.642 258.546C437.443 268.408 429.998 292.049 434.03 313.055C434.05 313.162 434.105 313.259 434.187 313.33C434.269 313.402 434.373 313.444 434.482 313.45Z" fill="white"/>
<path d="M456.453 332.982C457.596 333.552 460.636 330.971 461.487 330.347C462.938 329.256 464.083 327.813 464.81 326.158C465.619 324.277 465.82 322.194 465.386 320.195C465.164 319.14 464.868 318.101 464.5 317.086L463.463 314.083C463.052 313.116 462.844 312.076 462.851 311.027C463.011 308.919 464.81 307.365 466.45 306.021C468.222 304.528 470.119 302.587 469.995 300.076C469.757 298.13 468.875 296.317 467.487 294.921C466.201 293.463 464.686 292.189 463.507 290.635C462.589 289.557 462.07 288.199 462.036 286.789C462.109 285.919 462.359 285.074 462.772 284.303C463.721 282.697 464.539 281.017 465.218 279.28C465.749 277.524 465.546 275.302 464.101 274.116C462.905 273.141 461.212 273.08 459.67 273.238C458.238 273.485 456.878 274.036 455.682 274.854C451.764 277.278 449.708 282.125 445.516 284.04C443.847 284.649 442.143 285.157 440.411 285.559C438.71 286.095 436.999 287.052 436.29 288.659C434.872 291.847 437.983 295.527 437.043 298.881C436.219 301.85 433.419 303.105 431.947 305.819C431.345 307.01 431.149 308.363 431.389 309.674C431.64 311.897 432.301 314.055 433.339 316.041C434.504 318.084 435.797 320.052 437.212 321.934C437.212 321.934 456.275 332.894 456.453 332.982Z" fill="#92E3A9"/>
<g opacity="0.15">
<path d="M456.453 332.982C457.596 333.552 460.636 330.971 461.487 330.347C462.938 329.256 464.083 327.813 464.81 326.158C465.619 324.277 465.82 322.194 465.386 320.195C465.164 319.14 464.868 318.101 464.5 317.086L463.463 314.083C463.052 313.116 462.844 312.076 462.851 311.027C463.011 308.919 464.81 307.365 466.45 306.021C468.222 304.528 470.119 302.587 469.995 300.076C469.757 298.13 468.875 296.317 467.487 294.921C466.201 293.463 464.686 292.189 463.507 290.635C462.589 289.557 462.07 288.199 462.036 286.789C462.109 285.919 462.359 285.074 462.772 284.303C463.721 282.697 464.539 281.017 465.218 279.28C465.749 277.524 465.546 275.302 464.101 274.116C462.905 273.141 461.212 273.08 459.67 273.238C458.238 273.485 456.878 274.036 455.682 274.854C451.764 277.278 449.708 282.125 445.516 284.04C443.847 284.649 442.143 285.157 440.411 285.559C438.71 286.095 436.999 287.052 436.29 288.659C434.872 291.847 437.983 295.527 437.043 298.881C436.219 301.85 433.419 303.105 431.947 305.819C431.345 307.01 431.149 308.363 431.389 309.674C431.64 311.897 432.301 314.055 433.339 316.041C434.504 318.084 435.797 320.052 437.212 321.934C437.212 321.934 456.275 332.894 456.453 332.982Z" fill="black"/>
</g>
<path d="M445.365 327.256C445.432 327.25 445.496 327.232 445.555 327.201C445.615 327.171 445.667 327.129 445.71 327.079C445.753 327.028 445.785 326.969 445.805 326.906C445.825 326.843 445.832 326.777 445.826 326.711C443.991 307.022 452.269 284.769 458.765 278.094C458.821 278.05 458.867 277.994 458.899 277.931C458.932 277.868 458.951 277.799 458.954 277.728C458.958 277.657 458.946 277.587 458.92 277.521C458.894 277.455 458.853 277.395 458.802 277.345C458.751 277.296 458.69 277.258 458.623 277.233C458.555 277.209 458.484 277.199 458.412 277.204C458.341 277.21 458.272 277.23 458.209 277.264C458.146 277.298 458.091 277.344 458.048 277.401C451.409 284.207 442.981 306.838 444.825 326.799C444.836 326.93 444.899 327.052 445 327.137C445.101 327.223 445.233 327.265 445.365 327.256Z" fill="white"/>
<path d="M447.342 302.974H447.492C452.142 301.444 456.948 300.428 461.823 299.944C461.956 299.931 462.078 299.866 462.162 299.764C462.247 299.662 462.287 299.531 462.275 299.399C462.272 299.334 462.255 299.27 462.226 299.211C462.196 299.152 462.155 299.1 462.104 299.058C462.053 299.016 461.994 298.985 461.931 298.966C461.867 298.948 461.8 298.943 461.734 298.952C456.773 299.452 451.882 300.486 447.147 302.034C447.037 302.077 446.945 302.157 446.889 302.26C446.832 302.363 446.814 302.483 446.837 302.598C446.86 302.713 446.923 302.816 447.016 302.89C447.108 302.963 447.223 303.002 447.342 303V302.974Z" fill="white"/>
<path d="M178.751 373.712C178.86 375.171 179.314 376.584 180.076 377.836C180.838 379.089 181.887 380.146 183.138 380.922L278.598 435.52C279.957 436.198 281.458 436.551 282.98 436.551C284.502 436.551 286.003 436.198 287.363 435.52L455.407 339.384C456.732 338.692 457.841 337.655 458.615 336.384C459.388 335.113 459.797 333.658 459.797 332.174C459.797 330.69 459.388 329.234 458.615 327.963C457.841 326.693 456.732 325.655 455.407 324.964L359.965 270.349C358.608 269.665 357.106 269.308 355.583 269.308C354.06 269.308 352.558 269.665 351.2 270.349L183.138 366.493C181.887 367.272 180.838 368.33 180.076 369.584C179.314 370.838 178.86 372.252 178.751 373.712Z" fill="#37474F"/>
<path d="M183.139 371.508L278.598 426.123C279.956 426.807 281.457 427.164 282.981 427.164C284.504 427.164 286.005 426.807 287.363 426.123L455.407 329.978C457.836 328.591 457.836 326.342 455.407 324.964L359.966 270.349C358.608 269.665 357.106 269.308 355.583 269.308C354.06 269.308 352.558 269.665 351.201 270.349L183.139 366.493C180.719 367.899 180.719 370.129 183.139 371.508Z" fill="#455A64"/>
<path d="M282.967 427.168V436.573C281.424 436.613 279.898 436.256 278.536 435.537L183.139 380.922C181.853 380.252 180.77 379.257 179.999 378.036C179.229 376.816 178.799 375.415 178.754 373.976C178.709 372.538 179.05 371.113 179.743 369.848C180.435 368.582 181.454 367.522 182.695 366.774C180.728 368.171 180.923 370.217 183.139 371.517L278.598 426.132C279.943 426.836 281.446 427.192 282.967 427.168Z" fill="#263238"/>
<path d="M174.639 366.652C172.37 365.352 172.494 363.139 172.494 360.39V229.759C172.586 228.248 173.035 226.78 173.805 225.473C174.575 224.165 175.644 223.055 176.926 222.233L344.943 126.088C346.247 125.404 347.694 125.033 349.169 125.005C350.644 124.978 352.105 125.294 353.434 125.93C355.711 127.23 355.587 129.443 355.587 132.2V262.823C355.504 264.331 355.064 265.798 354.302 267.106C353.539 268.413 352.477 269.524 351.2 270.349L183.138 366.494C181.834 367.18 180.385 367.552 178.908 367.58C177.431 367.607 175.969 367.289 174.639 366.652Z" fill="#37474F"/>
<path d="M355.587 132.191C355.587 129.425 353.62 128.31 351.2 129.688L183.139 225.842C181.84 226.639 180.772 227.755 180.037 229.082L173.789 225.482C174.525 224.154 175.593 223.035 176.89 222.233L344.935 126.088C346.239 125.401 347.688 125.029 349.165 125.002C350.642 124.974 352.104 125.292 353.434 125.93C355.703 127.273 355.587 129.425 355.587 132.191Z" fill="#455A64"/>
<path d="M182.625 366.757C181.368 367.319 180.003 367.6 178.625 367.582C177.246 367.564 175.889 367.246 174.648 366.651C172.379 365.352 172.495 363.139 172.495 360.39V229.759C172.544 228.247 172.987 226.774 173.78 225.482L180.037 229.074C179.249 230.368 178.807 231.84 178.752 233.35V363.991C178.752 366.555 180.444 367.714 182.625 366.757Z" fill="#263238"/>
<path d="M185.541 230.848L347.531 138.172C348.985 137.294 350.19 138.014 350.19 139.673V253.733C350.138 254.64 349.87 255.522 349.408 256.307C348.946 257.091 348.303 257.756 347.531 258.247L185.541 350.897C184.087 351.722 182.882 351.055 182.882 349.386V235.361C182.935 234.455 183.204 233.573 183.666 232.789C184.128 232.005 184.77 231.339 185.541 230.848Z" fill="#7D7D7D"/>
<path d="M195.29 366.757L351.272 277.506C351.95 277.164 352.7 276.985 353.461 276.985C354.222 276.985 354.972 277.164 355.65 277.506L358.246 278.92C359.461 279.614 359.461 280.738 358.246 281.432L202.264 370.656C201.579 371.005 200.819 371.187 200.049 371.187C199.278 371.187 198.519 371.005 197.833 370.656L195.263 369.26C194.058 368.566 194.058 367.442 195.29 366.757Z" fill="#263238"/>
<path d="M207.502 373.958L363.484 284.716C364.088 284.373 364.765 284.175 365.46 284.137C366.156 284.098 366.851 284.222 367.489 284.496L408.089 307.733C409.091 308.304 408.922 309.332 407.717 310.026L251.921 399.145C251.315 399.487 250.637 399.685 249.941 399.725C249.244 399.764 248.548 399.644 247.906 399.373L207.138 376.25C206.128 375.679 206.296 374.652 207.502 373.958Z" fill="#263238"/>
<path d="M342.674 322.232L347.566 319.44C347.77 319.326 347.788 319.141 347.566 319.036L342.896 316.401C342.786 316.347 342.664 316.319 342.541 316.319C342.418 316.319 342.297 316.347 342.187 316.401L337.303 319.203C337.091 319.317 337.073 319.501 337.303 319.607L341.974 322.241C342.083 322.295 342.203 322.322 342.325 322.32C342.447 322.319 342.566 322.289 342.674 322.232ZM335.584 312.572L330.701 315.365C330.488 315.479 330.47 315.664 330.656 315.769L335.327 318.404C335.437 318.458 335.559 318.486 335.682 318.486C335.805 318.486 335.926 318.458 336.036 318.404L340.919 315.602C341.132 315.488 341.15 315.303 340.964 315.198L336.293 312.563C336.178 312.503 336.05 312.471 335.92 312.473C335.79 312.474 335.662 312.509 335.549 312.572H335.584ZM319.8 321.6L311.54 326.325C311.327 326.439 311.309 326.623 311.495 326.729L316.166 329.407C316.276 329.461 316.398 329.49 316.521 329.49C316.644 329.49 316.765 329.461 316.875 329.407L325.144 324.674C325.348 324.56 325.365 324.375 325.144 324.27L320.464 321.635C320.362 321.569 320.245 321.529 320.123 321.516C320.001 321.504 319.878 321.521 319.764 321.565L319.8 321.6ZM328.441 316.656L323.558 319.449C323.354 319.563 323.336 319.747 323.513 319.853L328.193 322.487C328.303 322.541 328.424 322.569 328.547 322.569C328.67 322.569 328.792 322.541 328.902 322.487L333.785 319.686C333.989 319.571 334.007 319.387 333.785 319.282L329.106 316.647C328.999 316.588 328.88 316.555 328.759 316.551C328.637 316.546 328.516 316.57 328.405 316.621L328.441 316.656ZM309.28 327.616L304.397 330.408C304.193 330.531 304.175 330.707 304.352 330.812L309.032 333.447C309.142 333.5 309.263 333.528 309.386 333.528C309.509 333.528 309.63 333.5 309.741 333.447L314.624 330.654C314.828 330.531 314.846 330.356 314.668 330.242L309.989 327.607C309.877 327.541 309.75 327.503 309.62 327.499C309.49 327.494 309.361 327.522 309.244 327.581L309.28 327.616ZM302.145 331.699L297.209 334.457C296.996 334.58 296.979 334.755 297.209 334.861L301.88 337.539C301.99 337.593 302.111 337.622 302.234 337.622C302.357 337.622 302.478 337.593 302.589 337.539L307.472 334.747C307.685 334.624 307.702 334.448 307.516 334.334L302.846 331.699C302.736 331.633 302.611 331.595 302.482 331.589C302.354 331.583 302.226 331.609 302.11 331.664L302.145 331.699ZM320.456 342.607L325.348 339.814C325.552 339.691 325.569 339.515 325.348 339.41L320.677 336.775C320.568 336.719 320.446 336.69 320.323 336.69C320.199 336.69 320.078 336.719 319.968 336.775L315.085 339.568C314.872 339.691 314.854 339.867 315.041 339.972L319.711 342.65C319.827 342.693 319.952 342.708 320.075 342.694C320.198 342.68 320.316 342.638 320.42 342.571L320.456 342.607ZM313.321 346.69L318.204 343.897C318.408 343.775 318.435 343.599 318.249 343.493L313.578 340.815C313.467 340.759 313.344 340.729 313.219 340.729C313.094 340.729 312.971 340.759 312.86 340.815L307.977 343.608C307.773 343.731 307.755 343.906 307.977 344.012L312.648 346.646C312.748 346.691 312.856 346.715 312.966 346.717C313.076 346.718 313.185 346.697 313.286 346.655L313.321 346.69ZM306.178 350.774L311.07 347.981C311.274 347.858 311.292 347.682 311.07 347.577L306.399 344.899C306.29 344.842 306.168 344.813 306.045 344.813C305.922 344.813 305.8 344.842 305.69 344.899L300.807 347.7C300.594 347.823 300.577 347.999 300.763 348.104L305.433 350.783C305.547 350.832 305.67 350.854 305.793 350.846C305.917 350.839 306.036 350.802 306.142 350.739L306.178 350.774ZM298.981 354.822L303.865 352.03C304.077 351.907 304.095 351.731 303.865 351.626L299.194 348.947C299.085 348.891 298.963 348.862 298.84 348.862C298.716 348.862 298.595 348.891 298.485 348.947L293.664 351.766C293.46 351.889 293.442 352.065 293.664 352.17L298.335 354.849C298.438 354.891 298.549 354.91 298.661 354.906C298.773 354.901 298.882 354.873 298.981 354.822ZM335.513 326.281L340.396 323.488C340.6 323.374 340.627 323.19 340.441 323.084L335.77 320.45C335.66 320.396 335.539 320.367 335.416 320.367C335.293 320.367 335.171 320.396 335.061 320.45L330.169 323.251C329.965 323.365 329.947 323.55 330.169 323.655L334.84 326.29C334.949 326.343 335.069 326.37 335.191 326.369C335.312 326.367 335.432 326.337 335.54 326.281H335.513ZM327.537 338.488L338.429 332.253C338.642 332.138 338.659 331.954 338.429 331.849L327.085 325.359C326.973 325.305 326.85 325.276 326.726 325.276C326.601 325.276 326.479 325.305 326.367 325.359L320.739 328.582C320.526 328.705 320.509 328.889 320.695 328.995L326.704 332.428C326.89 332.534 326.863 332.718 326.659 332.832L322.219 335.405C322.015 335.528 321.998 335.704 322.219 335.809L326.89 338.488C326.995 338.536 327.11 338.562 327.227 338.562C327.343 338.562 327.458 338.536 327.563 338.488H327.537ZM294.94 335.748L290.119 338.54C289.915 338.663 289.897 338.839 290.119 338.944L294.789 341.623C294.9 341.677 295.021 341.705 295.144 341.705C295.267 341.705 295.388 341.677 295.498 341.623L300.382 338.83C300.586 338.707 300.603 338.532 300.426 338.426L295.747 335.748C295.628 335.679 295.494 335.643 295.357 335.643C295.22 335.643 295.085 335.679 294.967 335.748H294.94ZM287.832 339.796L282.949 342.589C282.736 342.712 282.719 342.888 282.949 342.993L287.62 345.671C287.729 345.728 287.851 345.757 287.974 345.757C288.097 345.757 288.219 345.728 288.329 345.671L293.212 342.879C293.425 342.756 293.442 342.58 293.256 342.475L288.541 339.796C288.432 339.74 288.31 339.711 288.187 339.711C288.063 339.711 287.942 339.74 287.832 339.796ZM248.332 383.399C248.441 383.455 248.563 383.484 248.686 383.484C248.81 383.484 248.931 383.455 249.041 383.399L253.924 380.606C254.128 380.492 254.146 380.307 253.968 380.202L249.289 377.567C249.179 377.511 249.058 377.482 248.934 377.482C248.811 377.482 248.689 377.511 248.58 377.567L243.697 380.36C243.493 380.483 243.475 380.667 243.652 380.773L248.332 383.399ZM230.739 372.5L225.856 375.293C225.652 375.416 225.626 375.6 225.812 375.706L230.491 378.34C230.601 378.396 230.722 378.426 230.846 378.426C230.969 378.426 231.091 378.396 231.2 378.34L236.084 375.548C236.287 375.433 236.305 375.249 236.084 375.144L231.413 372.509C231.309 372.457 231.194 372.429 231.077 372.428C230.96 372.426 230.845 372.451 230.739 372.5ZM239.788 380.694C239.9 380.747 240.023 380.775 240.147 380.775C240.271 380.775 240.394 380.747 240.506 380.694L245.389 377.901C245.593 377.778 245.611 377.594 245.389 377.488L240.719 374.854C240.609 374.798 240.488 374.768 240.364 374.768C240.241 374.768 240.119 374.798 240.01 374.854L235.171 377.611C234.967 377.725 234.94 377.91 235.126 378.015L239.788 380.694ZM259.49 385.085L264.373 382.292C264.577 382.178 264.595 381.994 264.373 381.888L259.694 379.254C259.583 379.199 259.462 379.171 259.339 379.171C259.216 379.171 259.095 379.199 258.985 379.254L254.101 382.055C253.897 382.169 253.88 382.354 254.101 382.459L258.772 385.094C258.882 385.146 259.002 385.171 259.124 385.168C259.246 385.165 259.365 385.133 259.472 385.076L259.49 385.085ZM251.637 389.195C251.747 389.251 251.869 389.28 251.992 389.28C252.115 389.28 252.237 389.251 252.346 389.195L257.23 386.402C257.442 386.288 257.46 386.103 257.23 385.998L252.559 383.363C252.449 383.309 252.328 383.281 252.205 383.281C252.082 383.281 251.96 383.309 251.85 383.363L246.967 386.165C246.754 386.279 246.736 386.464 246.922 386.569L251.637 389.195ZM237.829 368.417L232.937 371.209C232.733 371.332 232.716 371.517 232.937 371.622L237.608 374.257C237.717 374.313 237.839 374.342 237.962 374.342C238.086 374.342 238.207 374.313 238.317 374.257L243.2 371.464C243.413 371.35 243.431 371.165 243.245 371.06L238.574 368.381C238.456 368.327 238.327 368.301 238.197 368.308C238.068 368.314 237.941 368.351 237.829 368.417ZM273.519 347.999L268.636 350.791C268.423 350.914 268.405 351.09 268.592 351.195L273.262 353.83C273.372 353.886 273.493 353.915 273.617 353.915C273.74 353.915 273.862 353.886 273.971 353.83L278.863 351.037C279.067 350.914 279.085 350.739 278.863 350.633L274.193 347.955C274.089 347.916 273.979 347.9 273.869 347.908C273.759 347.916 273.652 347.946 273.555 347.999H273.519ZM244.964 364.333L240.081 367.126C239.877 367.249 239.85 367.433 240.036 367.538L244.707 370.173C244.818 370.229 244.941 370.259 245.066 370.259C245.191 370.259 245.314 370.229 245.425 370.173L250.308 367.38C250.512 367.257 250.53 367.082 250.308 366.976L245.637 364.342C245.537 364.297 245.429 364.273 245.319 364.271C245.209 364.27 245.101 364.291 244.999 364.333H244.964ZM280.654 343.915L275.77 346.708C275.566 346.831 275.549 347.006 275.77 347.112L280.441 349.79C280.55 349.846 280.672 349.876 280.795 349.876C280.919 349.876 281.04 349.846 281.15 349.79L286.033 346.997C286.237 346.875 286.255 346.699 286.078 346.594L281.398 343.959C281.292 343.896 281.172 343.859 281.049 343.851C280.926 343.844 280.802 343.865 280.689 343.915H280.654ZM266.411 352.091L261.528 354.884C261.324 355.007 261.307 355.182 261.528 355.288L266.199 357.966C266.308 358.022 266.43 358.052 266.553 358.052C266.677 358.052 266.798 358.022 266.908 357.966L271.791 355.173C271.995 355.051 272.021 354.875 271.835 354.769L267.129 352.091C267.018 352.035 266.895 352.005 266.77 352.005C266.646 352.005 266.523 352.035 266.411 352.091ZM259.277 356.175L254.394 358.967C254.181 359.09 254.163 359.266 254.349 359.371L259.02 362.05C259.13 362.106 259.251 362.135 259.374 362.135C259.498 362.135 259.619 362.106 259.729 362.05L264.621 359.257C264.825 359.134 264.843 358.958 264.621 358.853L259.986 356.139C259.874 356.089 259.751 356.066 259.628 356.07C259.505 356.075 259.385 356.108 259.277 356.166V356.175ZM252.187 360.258L247.295 363.051C247.091 363.174 247.073 363.358 247.295 363.464L251.965 366.098C252.075 366.154 252.196 366.184 252.32 366.184C252.443 366.184 252.565 366.154 252.674 366.098L257.558 363.306C257.77 363.183 257.788 363.007 257.602 362.902L252.896 360.223C252.778 360.166 252.647 360.138 252.516 360.143C252.384 360.147 252.256 360.184 252.143 360.249L252.187 360.258ZM284.775 362.998L289.658 360.206C289.871 360.083 289.888 359.907 289.658 359.802L284.987 357.167C284.877 357.113 284.756 357.085 284.633 357.085C284.51 357.085 284.389 357.113 284.278 357.167L279.386 359.96C279.182 360.083 279.165 360.258 279.386 360.364L284.057 363.042C284.166 363.085 284.283 363.102 284.4 363.093C284.516 363.084 284.63 363.048 284.73 362.989L284.775 362.998ZM351.368 303.518L346.485 306.311C346.281 306.425 346.264 306.609 346.441 306.715L351.12 309.349C351.23 309.403 351.352 309.432 351.475 309.432C351.598 309.432 351.719 309.403 351.829 309.349L356.713 306.548C356.916 306.434 356.934 306.249 356.757 306.144L352.077 303.509C351.962 303.445 351.833 303.412 351.701 303.412C351.569 303.412 351.439 303.445 351.324 303.509L351.368 303.518ZM342.727 308.454L337.844 311.255C337.64 311.369 337.622 311.554 337.8 311.659L342.479 314.294C342.589 314.348 342.711 314.376 342.834 314.376C342.957 314.376 343.078 314.348 343.188 314.294L348.072 311.492C348.275 311.378 348.293 311.194 348.116 311.088L343.436 308.454C343.321 308.391 343.192 308.357 343.061 308.355C342.929 308.354 342.8 308.385 342.683 308.445L342.727 308.454ZM358.467 299.399L353.584 302.192C353.371 302.306 353.354 302.491 353.54 302.596L358.21 305.231C358.321 305.285 358.442 305.313 358.565 305.313C358.688 305.313 358.809 305.285 358.919 305.231L363.803 302.429C364.015 302.315 364.033 302.131 363.847 302.025L359.176 299.391C359.066 299.336 358.944 299.308 358.821 299.309C358.697 299.311 358.576 299.342 358.467 299.399ZM319.011 335.739L323.894 332.946C324.098 332.832 324.116 332.648 323.939 332.542L319.259 329.908C319.149 329.854 319.028 329.825 318.905 329.825C318.782 329.825 318.66 329.854 318.55 329.908L313.667 332.709C313.463 332.823 313.445 333.008 313.623 333.113L318.302 335.748C318.412 335.803 318.534 335.831 318.658 335.829C318.781 335.827 318.902 335.797 319.011 335.739ZM366.311 295.342C366.201 295.288 366.079 295.26 365.956 295.26C365.833 295.26 365.712 295.288 365.602 295.342L360.718 298.144C360.515 298.258 360.497 298.442 360.674 298.548L365.354 301.182C365.464 301.236 365.585 301.264 365.708 301.264C365.831 301.264 365.952 301.236 366.063 301.182L370.946 298.381C371.15 298.267 371.167 298.082 370.99 297.977L366.311 295.342ZM291.865 358.932L296.748 356.139C296.952 356.017 296.97 355.841 296.748 355.736L292.078 353.057C291.968 353.001 291.846 352.971 291.723 352.971C291.6 352.971 291.478 353.001 291.369 353.057L286.574 355.85C286.37 355.973 286.343 356.148 286.574 356.254L291.244 358.932C291.348 358.973 291.459 358.992 291.571 358.988C291.682 358.983 291.792 358.955 291.891 358.906L291.865 358.932ZM379.401 308.875L384.284 306.082C384.497 305.968 384.515 305.784 384.328 305.678L379.631 302.912C379.521 302.858 379.4 302.83 379.277 302.83C379.154 302.83 379.032 302.858 378.922 302.912L374.039 305.705C373.826 305.828 373.809 306.012 373.995 306.118L378.665 308.752C378.773 308.825 378.898 308.87 379.028 308.883C379.159 308.895 379.29 308.874 379.41 308.822L379.401 308.875ZM365.584 309.139L370.476 306.346C370.68 306.232 370.698 306.047 370.476 305.942L365.806 303.307C365.695 303.253 365.574 303.225 365.451 303.225C365.328 303.225 365.207 303.253 365.097 303.307L360.213 306.109C360.001 306.223 359.983 306.407 360.169 306.513L364.84 309.147C364.962 309.198 365.096 309.217 365.228 309.202C365.36 309.186 365.486 309.137 365.593 309.06L365.584 309.139ZM372.975 299.189C372.865 299.134 372.744 299.106 372.621 299.106C372.498 299.106 372.377 299.134 372.266 299.189L367.383 301.99C367.179 302.104 367.162 302.289 367.383 302.394L372.054 305.029C372.163 305.085 372.285 305.114 372.408 305.114C372.532 305.114 372.653 305.085 372.763 305.029L377.646 302.236C377.85 302.122 377.876 301.937 377.646 301.832L372.975 299.189ZM374.482 298.31L385.826 304.8C385.937 304.857 386.06 304.886 386.185 304.886C386.31 304.886 386.433 304.857 386.544 304.8L391.427 302.008C391.631 301.893 391.649 301.709 391.427 301.604L380.083 295.114C379.973 295.06 379.852 295.031 379.729 295.031C379.606 295.031 379.484 295.06 379.374 295.114L374.491 297.906C374.314 297.985 374.314 298.17 374.491 298.275L374.482 298.31ZM357.998 307.303L353.114 310.105C352.91 310.219 352.893 310.403 353.114 310.509L357.785 313.143C357.894 313.199 358.016 313.229 358.139 313.229C358.263 313.229 358.384 313.199 358.494 313.143L363.377 310.35C363.581 310.236 363.608 310.052 363.422 309.946L358.751 307.312C358.635 307.251 358.507 307.218 358.375 307.216C358.244 307.215 358.115 307.244 357.998 307.303ZM304.299 338.04L299.416 340.841C299.212 340.956 299.194 341.14 299.416 341.245L304.095 343.88C304.205 343.936 304.326 343.965 304.45 343.965C304.573 343.965 304.695 343.936 304.804 343.88L309.617 341.114C309.82 340.999 309.838 340.815 309.661 340.71L304.981 338.075C304.877 338.019 304.762 337.987 304.644 337.981C304.526 337.975 304.408 337.995 304.299 338.04ZM371.593 312.915C371.702 312.971 371.824 313 371.947 313C372.071 313 372.192 312.971 372.302 312.915L377.185 310.122C377.389 310.008 377.407 309.824 377.185 309.718L372.541 307.031C372.431 306.977 372.31 306.949 372.187 306.949C372.064 306.949 371.942 306.977 371.832 307.031L366.949 309.824C366.745 309.946 366.727 310.131 366.905 310.236L371.593 312.915ZM311.442 333.991L306.559 336.793C306.346 336.907 306.329 337.091 306.559 337.197L311.23 339.831C311.339 339.888 311.461 339.917 311.584 339.917C311.707 339.917 311.829 339.888 311.939 339.831L316.822 337.039C317.035 336.925 317.052 336.74 316.866 336.635L312.196 334C312.076 333.925 311.938 333.883 311.796 333.879C311.654 333.874 311.514 333.907 311.389 333.974L311.442 333.991ZM255.466 379.315C255.576 379.371 255.697 379.401 255.821 379.401C255.944 379.401 256.066 379.371 256.175 379.315L261.058 376.522C261.271 376.408 261.289 376.224 261.058 376.118L256.441 373.449C256.331 373.395 256.209 373.366 256.086 373.366C255.963 373.366 255.842 373.395 255.732 373.449L250.849 376.241C250.636 376.364 250.618 376.549 250.804 376.654L255.466 379.315ZM247.171 370.7L242.261 373.528C242.057 373.642 242.039 373.826 242.261 373.932L246.931 376.566C247.041 376.622 247.162 376.652 247.286 376.652C247.409 376.652 247.531 376.622 247.64 376.566L252.524 373.774C252.736 373.651 252.754 373.466 252.568 373.361L247.897 370.726C247.785 370.668 247.66 370.639 247.533 370.641C247.406 370.642 247.282 370.675 247.171 370.735V370.7ZM263.318 375.205L268.202 372.412C268.405 372.298 268.423 372.114 268.202 372.008L263.531 369.365C263.421 369.311 263.3 369.283 263.177 369.283C263.054 369.283 262.932 369.311 262.822 369.365L257.939 372.158C257.735 372.281 257.717 372.465 257.939 372.571L262.618 375.205C262.724 375.265 262.842 375.3 262.964 375.306C263.086 375.312 263.207 375.29 263.318 375.24V375.205ZM270.453 371.121L275.336 368.329C275.549 368.206 275.566 368.03 275.38 367.925L270.71 365.264C270.6 365.21 270.478 365.182 270.355 365.182C270.232 365.182 270.111 365.21 270.001 365.264L265.117 368.057C264.905 368.18 264.887 368.364 265.117 368.469L269.788 371.104C269.888 371.161 269.999 371.196 270.114 371.205C270.229 371.214 270.345 371.198 270.453 371.157V371.121ZM277.596 367.038L282.479 364.245C282.683 364.122 282.701 363.947 282.479 363.841L277.809 361.163C277.699 361.109 277.577 361.08 277.454 361.08C277.331 361.08 277.21 361.109 277.1 361.163L272.216 363.955C272.013 364.078 271.986 364.263 272.172 364.359L276.852 366.994C276.959 367.069 277.083 367.115 277.213 367.129C277.344 367.143 277.475 367.124 277.596 367.073V367.038ZM254.305 366.616L249.422 369.409C249.218 369.523 249.191 369.708 249.377 369.813L254.048 372.448C254.16 372.502 254.283 372.53 254.407 372.53C254.531 372.53 254.654 372.502 254.766 372.448L259.649 369.655C259.853 369.532 259.871 369.348 259.649 369.242L254.979 366.608C254.87 366.564 254.753 366.545 254.637 366.553C254.52 366.56 254.407 366.594 254.305 366.651V366.616ZM261.448 362.533L256.556 365.325C256.352 365.44 256.335 365.624 256.556 365.729L261.227 368.364C261.337 368.418 261.458 368.446 261.581 368.446C261.704 368.446 261.826 368.418 261.936 368.364L266.819 365.563C267.023 365.448 267.049 365.264 266.863 365.159L262.193 362.524C262.075 362.468 261.945 362.443 261.815 362.451C261.685 362.458 261.559 362.499 261.448 362.568V362.533ZM289.995 346.198L285.112 348.991C284.908 349.105 284.89 349.29 285.112 349.395L289.782 352.03C289.892 352.084 290.014 352.112 290.137 352.112C290.26 352.112 290.381 352.084 290.491 352.03L295.374 349.228C295.578 349.114 295.596 348.93 295.419 348.824L290.739 346.19C290.622 346.134 290.492 346.109 290.361 346.116C290.231 346.124 290.105 346.164 289.995 346.233V346.198ZM282.86 350.335L277.977 353.127C277.764 353.241 277.747 353.426 277.933 353.531L282.603 356.166C282.714 356.22 282.835 356.248 282.958 356.248C283.081 356.248 283.202 356.22 283.312 356.166L288.196 353.364C288.408 353.25 288.426 353.066 288.196 352.96L283.525 350.326C283.421 350.278 283.307 350.254 283.192 350.256C283.077 350.257 282.964 350.284 282.86 350.335ZM297.138 342.159L292.255 344.96C292.042 345.074 292.024 345.259 292.255 345.364L296.925 347.999C297.036 348.053 297.157 348.081 297.28 348.081C297.403 348.081 297.524 348.053 297.634 347.999L302.518 345.197C302.73 345.083 302.748 344.899 302.562 344.793L297.891 342.159C297.777 342.094 297.648 342.059 297.517 342.056C297.386 342.053 297.255 342.082 297.138 342.141V342.159ZM268.583 358.484L263.699 361.277C263.487 361.391 263.469 361.576 263.655 361.681L268.326 364.315C268.436 364.37 268.557 364.398 268.68 364.398C268.803 364.398 268.925 364.37 269.035 364.315L273.927 361.514C274.131 361.4 274.148 361.215 273.927 361.11L269.256 358.475C269.151 358.426 269.035 358.402 268.918 358.403C268.802 358.405 268.687 358.432 268.583 358.484ZM275.717 354.401L270.834 357.193C270.63 357.307 270.612 357.492 270.834 357.597L275.504 360.232C275.615 360.286 275.736 360.314 275.859 360.314C275.982 360.314 276.103 360.286 276.213 360.232L281.097 357.43C281.301 357.316 281.327 357.132 281.141 357.026L276.462 354.392C276.347 354.331 276.218 354.3 276.088 354.301C275.958 354.303 275.83 354.337 275.717 354.401ZM266.606 380.992L271.49 378.2C271.702 378.086 271.72 377.901 271.534 377.796L266.863 375.161C266.753 375.107 266.632 375.079 266.509 375.079C266.386 375.079 266.265 375.107 266.154 375.161L261.271 377.954C261.058 378.077 261.041 378.261 261.271 378.367L265.942 381.001C266.046 381.049 266.16 381.073 266.275 381.071C266.39 381.07 266.503 381.043 266.606 380.992ZM228.967 379.236L224.296 376.601C224.187 376.545 224.065 376.516 223.942 376.516C223.818 376.516 223.697 376.545 223.587 376.601L218.704 379.394C218.491 379.517 218.474 379.701 218.704 379.807L223.375 382.441C223.484 382.498 223.606 382.527 223.729 382.527C223.852 382.527 223.974 382.498 224.084 382.441L228.967 379.649C229.135 379.526 229.153 379.315 228.967 379.236ZM238.273 381.546L233.602 378.911C233.492 378.855 233.371 378.826 233.247 378.826C233.124 378.826 233.003 378.855 232.893 378.911L225.422 383.197C225.209 383.32 225.191 383.504 225.422 383.609L230.092 386.244C230.202 386.3 230.324 386.33 230.447 386.33C230.57 386.33 230.692 386.3 230.801 386.244L238.317 381.95C238.441 381.835 238.459 381.651 238.273 381.546ZM221.992 373.958L217.321 371.323C217.212 371.267 217.09 371.238 216.967 371.238C216.844 371.238 216.722 371.267 216.612 371.323L210.595 374.766C210.391 374.88 210.373 375.065 210.595 375.17L215.265 377.805C215.375 377.859 215.497 377.887 215.62 377.887C215.743 377.887 215.864 377.859 215.974 377.805L221.983 374.362C222.16 374.239 222.178 374.046 221.992 373.958ZM226.601 371.323C226.71 371.38 226.832 371.409 226.955 371.409C227.078 371.409 227.2 371.38 227.31 371.323L232.193 368.531C232.406 368.408 232.423 368.223 232.237 368.118L227.567 365.483C227.457 365.427 227.335 365.398 227.212 365.398C227.089 365.398 226.967 365.427 226.858 365.483L221.974 368.276C221.762 368.39 221.744 368.575 221.93 368.68L226.601 371.323ZM246.825 384.303L242.154 381.669C242.044 381.614 241.923 381.586 241.8 381.586C241.677 381.586 241.556 381.614 241.445 381.669L232.051 387.043C231.847 387.166 231.821 387.342 232.051 387.447L236.722 390.082C236.833 390.138 236.956 390.167 237.081 390.167C237.205 390.167 237.328 390.138 237.44 390.082L246.825 384.707C246.993 384.584 247.011 384.4 246.825 384.294V384.303ZM250.122 390.055L245.442 387.421C245.332 387.367 245.211 387.338 245.088 387.338C244.965 387.338 244.844 387.367 244.733 387.421L238.716 390.837C238.512 390.96 238.494 391.136 238.716 391.241L243.395 393.919C243.506 393.973 243.627 394.001 243.75 394.001C243.873 394.001 243.994 393.973 244.104 393.919L250.113 390.477C250.281 390.336 250.308 390.152 250.122 390.047V390.055ZM279.679 340.964C279.788 341.02 279.91 341.05 280.033 341.05C280.157 341.05 280.278 341.02 280.388 340.964L285.271 338.172C285.475 338.049 285.493 337.873 285.315 337.768L280.636 335.133C280.526 335.08 280.404 335.052 280.281 335.052C280.158 335.052 280.037 335.08 279.927 335.133L275.052 337.873C274.849 337.996 274.831 338.172 275.008 338.277L279.679 340.964ZM265.401 349.132C265.511 349.188 265.632 349.217 265.756 349.217C265.879 349.217 266 349.188 266.11 349.132L270.993 346.339C271.197 346.225 271.224 346.04 271.038 345.935L266.358 343.256C266.248 343.203 266.127 343.175 266.004 343.175C265.881 343.175 265.76 343.203 265.649 343.256L260.766 346.049C260.562 346.172 260.544 346.356 260.766 346.462L265.401 349.132ZM233.735 367.24C233.847 367.294 233.969 367.322 234.094 367.322C234.218 367.322 234.341 367.294 234.453 367.24L239.336 364.386C239.54 364.263 239.558 364.078 239.336 363.973L234.666 361.338C234.556 361.282 234.434 361.253 234.311 361.253C234.188 361.253 234.066 361.282 233.957 361.338L229.073 364.131C228.869 364.245 228.843 364.43 229.073 364.535L233.735 367.24ZM272.535 345.065C272.645 345.122 272.767 345.151 272.89 345.151C273.013 345.151 273.135 345.122 273.244 345.065L278.128 342.273C278.34 342.159 278.358 341.974 278.172 341.869L273.501 339.19C273.391 339.136 273.27 339.108 273.147 339.108C273.024 339.108 272.903 339.136 272.792 339.19L267.909 341.983C267.696 342.106 267.679 342.29 267.865 342.396L272.535 345.065ZM258.258 353.233C258.367 353.289 258.489 353.318 258.612 353.318C258.736 353.318 258.857 353.289 258.967 353.233L263.85 350.44C264.063 350.326 264.081 350.141 263.85 350.036L259.179 347.358C259.069 347.303 258.948 347.275 258.825 347.275C258.702 347.275 258.581 347.303 258.47 347.358L253.587 350.15C253.374 350.273 253.357 350.458 253.543 350.563L258.258 353.233ZM253.623 390.363C253.512 390.309 253.391 390.28 253.268 390.28C253.145 390.28 253.024 390.309 252.914 390.363L245.398 394.666C245.194 394.78 245.177 394.964 245.398 395.07L250.069 397.704C250.178 397.761 250.3 397.79 250.423 397.79C250.547 397.79 250.668 397.761 250.778 397.704L258.293 393.401C258.497 393.287 258.515 393.103 258.293 392.997L253.623 390.363ZM248.013 359.09C248.123 359.144 248.244 359.173 248.367 359.173C248.49 359.173 248.611 359.144 248.722 359.09L253.614 356.289C253.818 356.175 253.835 355.99 253.614 355.885L248.943 353.25C248.834 353.194 248.712 353.165 248.589 353.165C248.465 353.165 248.344 353.194 248.234 353.25L243.351 356.043C243.138 356.157 243.12 356.341 243.307 356.447L248.013 359.09ZM240.878 363.174C240.988 363.228 241.11 363.256 241.233 363.256C241.356 363.256 241.477 363.228 241.587 363.174L246.471 360.372C246.683 360.258 246.701 360.074 246.515 359.968L241.844 357.334C241.735 357.278 241.613 357.248 241.49 357.248C241.366 357.248 241.245 357.278 241.135 357.334L236.243 360.126C236.039 360.241 236.021 360.425 236.243 360.53L240.878 363.174ZM385.879 314.698C385.77 314.641 385.648 314.612 385.525 314.612C385.402 314.612 385.28 314.641 385.17 314.698L373.144 321.574C372.94 321.697 372.913 321.872 373.1 321.978L377.779 324.656C377.889 324.712 378.01 324.742 378.133 324.742C378.257 324.742 378.378 324.712 378.488 324.656L390.506 317.78C390.718 317.657 390.736 317.481 390.55 317.376L385.879 314.698ZM370.095 323.725C369.986 323.669 369.864 323.64 369.741 323.64C369.617 323.64 369.496 323.669 369.386 323.725L364.503 326.518C364.299 326.641 364.272 326.817 364.458 326.922L369.129 329.6C369.24 329.657 369.363 329.686 369.488 329.686C369.613 329.686 369.736 329.657 369.847 329.6L374.73 326.808C374.934 326.685 374.952 326.509 374.73 326.404L370.095 323.725ZM273.75 376.909L278.633 374.116C278.837 374.002 278.854 373.818 278.677 373.712L273.998 371.078C273.888 371.023 273.766 370.995 273.643 370.995C273.52 370.995 273.399 371.023 273.289 371.078L268.405 373.87C268.202 373.993 268.184 374.178 268.405 374.283L273.076 376.918C273.182 376.967 273.297 376.991 273.414 376.99C273.531 376.988 273.645 376.961 273.75 376.909ZM355.817 331.893C355.707 331.838 355.586 331.81 355.463 331.81C355.34 331.81 355.219 331.838 355.108 331.893L350.225 334.685C350.021 334.808 349.995 334.984 350.181 335.089L354.86 337.768C354.97 337.824 355.091 337.853 355.215 337.853C355.338 337.853 355.46 337.824 355.569 337.768L360.453 334.975C360.656 334.852 360.674 334.676 360.453 334.571L355.817 331.893ZM393.04 310.614C392.931 310.558 392.809 310.528 392.686 310.528C392.563 310.528 392.441 310.558 392.331 310.614L387.422 313.45C387.218 313.573 387.191 313.749 387.377 313.854L392.048 316.489C392.158 316.543 392.279 316.571 392.402 316.571C392.525 316.571 392.647 316.543 392.757 316.489L397.649 313.696C397.853 313.573 397.871 313.398 397.649 313.292L393.04 310.614ZM404.854 309.209L393.501 302.71C393.392 302.654 393.27 302.625 393.147 302.625C393.023 302.625 392.902 302.654 392.792 302.71L387.882 305.547C387.679 305.67 387.661 305.845 387.838 305.951L399.191 312.449C399.301 312.503 399.423 312.532 399.546 312.532C399.669 312.532 399.79 312.503 399.9 312.449L404.783 309.657C404.987 309.463 405.014 309.288 404.828 309.182L404.854 309.209ZM329.114 347.129C329.005 347.073 328.883 347.044 328.76 347.044C328.637 347.044 328.515 347.073 328.405 347.129L322.397 350.563C322.193 350.686 322.166 350.87 322.352 350.976L327.023 353.61C327.134 353.667 327.257 353.696 327.382 353.696C327.507 353.696 327.63 353.667 327.741 353.61L333.75 350.177C333.953 350.054 333.971 349.869 333.794 349.764L329.114 347.129ZM347.15 336.81C347.04 336.754 346.919 336.725 346.795 336.725C346.672 336.725 346.55 336.754 346.441 336.81L338.925 341.105C338.721 341.228 338.704 341.412 338.881 341.518L343.56 344.152C343.67 344.208 343.792 344.238 343.915 344.238C344.038 344.238 344.16 344.208 344.269 344.152L351.785 339.858C351.989 339.735 352.006 339.559 351.785 339.454L347.15 336.81ZM312.586 356.587C312.476 356.531 312.354 356.502 312.231 356.502C312.108 356.502 311.986 356.531 311.877 356.587L271.676 379.587C271.472 379.701 271.445 379.886 271.631 379.991L276.302 382.626C276.412 382.682 276.533 382.711 276.657 382.711C276.78 382.711 276.902 382.682 277.011 382.626L317.221 359.635C317.425 359.512 317.442 359.327 317.221 359.222L312.586 356.587ZM270.134 380.878C270.024 380.824 269.902 380.796 269.779 380.796C269.656 380.796 269.535 380.824 269.425 380.878L263.407 384.321C263.203 384.444 263.185 384.619 263.407 384.725L268.078 387.403C268.188 387.457 268.309 387.486 268.432 387.486C268.555 387.486 268.676 387.457 268.787 387.403L274.795 383.961C274.999 383.847 275.026 383.662 274.84 383.557L270.134 380.878ZM320.854 351.898C320.745 351.842 320.623 351.812 320.5 351.812C320.377 351.812 320.255 351.842 320.145 351.898L314.128 355.34C313.924 355.455 313.906 355.639 314.128 355.744L318.798 358.379C318.908 358.435 319.029 358.464 319.153 358.464C319.276 358.464 319.398 358.435 319.507 358.379L325.516 354.936C325.729 354.822 325.747 354.638 325.56 354.532L320.854 351.898ZM261.865 385.638C261.755 385.582 261.634 385.552 261.51 385.552C261.387 385.552 261.265 385.582 261.156 385.638L255.147 389.072C254.934 389.195 254.917 389.379 255.147 389.484L259.818 392.119C259.927 392.175 260.049 392.205 260.172 392.205C260.295 392.205 260.417 392.175 260.527 392.119L266.535 388.685C266.748 388.562 266.766 388.387 266.535 388.281L261.865 385.638ZM337.41 342.431C337.3 342.377 337.178 342.349 337.055 342.349C336.932 342.349 336.811 342.377 336.701 342.431L330.692 345.873C330.479 345.988 330.461 346.172 330.692 346.277L335.363 348.956C335.473 349.01 335.594 349.038 335.717 349.038C335.84 349.038 335.961 349.01 336.072 348.956L342.08 345.513C342.293 345.399 342.311 345.215 342.125 345.109L337.41 342.431ZM362.961 327.809C362.851 327.753 362.73 327.723 362.606 327.723C362.483 327.723 362.361 327.753 362.252 327.809L357.36 330.602C357.156 330.725 357.138 330.9 357.36 331.006L361.995 333.649C362.104 333.705 362.226 333.734 362.349 333.734C362.473 333.734 362.594 333.705 362.704 333.649L367.587 330.856C367.8 330.733 367.817 330.558 367.587 330.452L362.961 327.809ZM378.913 316.752L383.797 313.96C384.001 313.837 384.027 313.661 383.841 313.556L379.162 310.921C379.051 310.868 378.93 310.84 378.807 310.84C378.684 310.84 378.563 310.868 378.453 310.921L373.569 313.714C373.365 313.837 373.348 314.013 373.569 314.127L378.24 316.761C378.352 316.812 378.475 316.835 378.599 316.829C378.722 316.823 378.842 316.788 378.949 316.726L378.913 316.752ZM349.782 318.14L354.665 315.347C354.869 315.233 354.896 315.049 354.71 314.943L350.039 312.309C349.927 312.255 349.804 312.226 349.68 312.226C349.556 312.226 349.433 312.255 349.321 312.309L344.438 315.11C344.234 315.224 344.216 315.409 344.438 315.514L349.108 318.149C349.221 318.2 349.344 318.223 349.467 318.217C349.591 318.211 349.711 318.175 349.817 318.114L349.782 318.14ZM330.887 344.24L345.156 336.073C345.368 335.95 345.386 335.774 345.2 335.669L340.529 332.99C340.419 332.936 340.298 332.908 340.175 332.908C340.052 332.908 339.931 332.936 339.82 332.99L325.543 341.157C325.339 341.28 325.312 341.456 325.498 341.561L330.169 344.196C330.277 344.259 330.398 344.296 330.523 344.304C330.647 344.311 330.772 344.29 330.887 344.24ZM371.123 320.836C371.233 320.892 371.354 320.922 371.478 320.922C371.601 320.922 371.723 320.892 371.832 320.836L376.715 318.043C376.928 317.92 376.946 317.745 376.76 317.639L372.089 314.961C371.979 314.907 371.858 314.879 371.735 314.879C371.612 314.879 371.49 314.907 371.38 314.961L366.497 317.754C366.284 317.877 366.266 318.061 366.497 318.166L371.123 320.836ZM365.132 316.963L370.015 314.171C370.228 314.056 370.246 313.872 370.06 313.767L365.389 311.132C365.279 311.078 365.158 311.05 365.035 311.05C364.912 311.05 364.79 311.078 364.68 311.132L359.797 313.925C359.584 314.048 359.566 314.232 359.752 314.337L364.423 316.972C364.533 317.027 364.655 317.055 364.779 317.053C364.902 317.052 365.023 317.021 365.132 316.963ZM323.717 348.297L328.6 345.505C328.813 345.382 328.831 345.206 328.645 345.101L323.974 342.431C323.865 342.375 323.743 342.345 323.62 342.345C323.496 342.345 323.375 342.375 323.265 342.431L318.373 345.224C318.169 345.346 318.151 345.522 318.373 345.628L323.043 348.306C323.147 348.359 323.262 348.389 323.378 348.392C323.495 348.395 323.611 348.371 323.717 348.324V348.297ZM355.321 329.855C355.431 329.911 355.552 329.941 355.676 329.941C355.799 329.941 355.921 329.911 356.03 329.855L360.913 327.062C361.117 326.94 361.135 326.764 360.958 326.659L356.278 324.024C356.168 323.97 356.047 323.943 355.924 323.943C355.801 323.943 355.68 323.97 355.569 324.024L350.686 326.817C350.482 326.94 350.464 327.115 350.686 327.229L355.321 329.855ZM288.027 368.777L292.911 365.984C293.114 365.87 293.132 365.685 292.911 365.58L288.231 362.902C288.121 362.848 288 362.82 287.877 362.82C287.754 362.82 287.633 362.848 287.522 362.902L282.639 365.694C282.435 365.817 282.417 366.002 282.595 366.107L287.274 368.742C287.386 368.811 287.514 368.85 287.646 368.857C287.778 368.863 287.909 368.835 288.027 368.777ZM295.162 364.693L300.045 361.9C300.258 361.786 300.275 361.602 300.089 361.496L295.436 358.783C295.326 358.729 295.205 358.7 295.082 358.7C294.959 358.7 294.838 358.729 294.727 358.783L289.844 361.575C289.631 361.698 289.614 361.883 289.844 361.988L294.515 364.623C294.614 364.675 294.723 364.705 294.834 364.711C294.946 364.717 295.058 364.699 295.162 364.658V364.693ZM280.884 372.86L285.767 370.068C285.98 369.953 285.998 369.769 285.767 369.664L281.097 367.029C280.987 366.975 280.865 366.947 280.742 366.947C280.619 366.947 280.498 366.975 280.388 367.029L275.504 369.822C275.292 369.945 275.274 370.129 275.46 370.235L280.131 372.869C280.25 372.926 280.381 372.952 280.513 372.945C280.645 372.937 280.773 372.896 280.884 372.825V372.86ZM309.439 356.482L314.323 353.689C314.535 353.566 314.553 353.391 314.367 353.285L309.696 350.607C309.586 350.553 309.465 350.525 309.342 350.525C309.219 350.525 309.098 350.553 308.987 350.607L304.104 353.4C303.891 353.522 303.874 353.698 304.104 353.804L308.73 356.482C308.84 356.538 308.961 356.568 309.085 356.568C309.208 356.568 309.33 356.538 309.439 356.482ZM302.305 360.566L307.188 357.773C307.392 357.659 307.41 357.474 307.233 357.369L302.527 354.726C302.416 354.671 302.295 354.643 302.172 354.643C302.049 354.643 301.928 354.671 301.818 354.726L296.934 357.518C296.73 357.641 296.713 357.826 296.89 357.931L301.569 360.566C301.682 360.628 301.808 360.661 301.936 360.663C302.065 360.664 302.191 360.634 302.305 360.574V360.566ZM316.583 352.398L321.466 349.606C321.67 349.483 321.687 349.307 321.466 349.202L316.795 346.523C316.686 346.467 316.564 346.438 316.441 346.438C316.317 346.438 316.196 346.467 316.086 346.523L311.203 349.316C310.999 349.439 310.973 349.614 311.159 349.72L315.838 352.398C315.951 352.462 316.079 352.496 316.209 352.498C316.339 352.499 316.468 352.468 316.583 352.407V352.398ZM355.534 295.588C355.643 295.644 355.765 295.674 355.888 295.674C356.012 295.674 356.133 295.644 356.243 295.588L361.126 292.795C361.339 292.672 361.357 292.497 361.17 292.391L359.93 291.68C359.819 291.626 359.698 291.598 359.575 291.598C359.452 291.598 359.331 291.626 359.221 291.68L354.329 294.481C354.125 294.596 354.107 294.78 354.329 294.885L355.534 295.588ZM320.083 317.85C320.194 317.904 320.315 317.932 320.438 317.932C320.561 317.932 320.682 317.904 320.792 317.85L325.676 315.058C325.88 314.935 325.897 314.75 325.676 314.645L321.005 312.01C320.896 311.954 320.774 311.925 320.651 311.925C320.527 311.925 320.406 311.954 320.296 312.01L315.413 314.803C315.209 314.917 315.191 315.101 315.368 315.207L320.083 317.85ZM334.361 309.683C334.471 309.737 334.593 309.764 334.716 309.764C334.838 309.764 334.96 309.737 335.07 309.683L339.953 306.89C340.157 306.767 340.175 306.583 339.953 306.478L335.318 303.79C335.209 303.734 335.087 303.705 334.964 303.705C334.84 303.705 334.719 303.734 334.609 303.79L329.726 306.583C329.522 306.697 329.495 306.882 329.682 306.987L334.361 309.683ZM311.363 322.856C311.473 322.91 311.594 322.938 311.717 322.938C311.84 322.938 311.961 322.91 312.072 322.856L316.955 320.054C317.168 319.94 317.185 319.756 316.999 319.651L312.275 316.963C312.166 316.907 312.044 316.878 311.921 316.878C311.798 316.878 311.676 316.907 311.566 316.963L306.683 319.756C306.47 319.87 306.453 320.055 306.639 320.16L311.363 322.856ZM327.218 313.793C327.328 313.847 327.449 313.875 327.572 313.875C327.695 313.875 327.817 313.847 327.927 313.793L332.81 311C333.023 310.877 333.041 310.693 332.854 310.588L328.184 307.953C328.074 307.897 327.953 307.867 327.829 307.867C327.706 307.867 327.584 307.897 327.475 307.953L322.592 310.746C322.379 310.86 322.361 311.044 322.547 311.15L327.218 313.793ZM297.085 331.032C297.196 331.084 297.317 331.11 297.439 331.11C297.562 331.11 297.683 331.084 297.794 331.032L302.677 328.239C302.89 328.116 302.908 327.932 302.722 327.827L298.051 325.192C297.941 325.136 297.82 325.106 297.696 325.106C297.573 325.106 297.451 325.136 297.342 325.192L292.459 327.985C292.246 328.099 292.228 328.283 292.414 328.389L297.085 331.032ZM304.228 326.94C304.338 326.994 304.46 327.022 304.583 327.022C304.706 327.022 304.827 326.994 304.937 326.94L309.82 324.147C310.024 324.024 310.042 323.84 309.82 323.734L305.15 321.1C305.04 321.043 304.919 321.014 304.795 321.014C304.672 321.014 304.55 321.043 304.441 321.1L299.558 323.892C299.354 324.006 299.336 324.191 299.513 324.296L304.228 326.94ZM341.256 303.79C341.366 303.847 341.487 303.876 341.611 303.876C341.734 303.876 341.856 303.847 341.965 303.79L346.848 300.998C347.061 300.875 347.079 300.699 346.893 300.594L345.652 299.882C345.542 299.828 345.421 299.8 345.298 299.8C345.175 299.8 345.053 299.828 344.943 299.882L340.06 302.684C339.847 302.798 339.829 302.982 340.015 303.088L341.256 303.79ZM362.677 291.496C362.787 291.552 362.908 291.581 363.032 291.581C363.155 291.581 363.277 291.552 363.386 291.496L368.269 288.703C368.473 288.58 368.491 288.404 368.269 288.299L367.029 287.588C366.918 287.534 366.797 287.505 366.674 287.505C366.551 287.505 366.43 287.534 366.32 287.588L361.436 290.389C361.224 290.503 361.206 290.688 361.392 290.793L362.677 291.496ZM372.488 297.107C372.598 297.161 372.72 297.19 372.843 297.19C372.966 297.19 373.087 297.161 373.197 297.107L378.08 294.306C378.293 294.192 378.311 294.007 378.125 293.902L373.454 291.267C373.344 291.213 373.223 291.185 373.1 291.185C372.977 291.185 372.855 291.213 372.745 291.267L367.862 294.069C367.649 294.183 367.631 294.367 367.817 294.473L372.488 297.107ZM386.083 312.625L390.967 309.832C391.179 309.709 391.197 309.534 390.967 309.428L386.296 306.75C386.186 306.696 386.064 306.667 385.941 306.667C385.818 306.667 385.697 306.696 385.587 306.75L380.704 309.543C380.491 309.665 380.473 309.841 380.659 309.946L385.33 312.625C385.443 312.692 385.572 312.728 385.704 312.731C385.836 312.734 385.967 312.704 386.083 312.643V312.625ZM348.399 299.663C348.509 299.719 348.631 299.748 348.754 299.748C348.877 299.748 348.999 299.719 349.108 299.663L353.992 296.87C354.196 296.747 354.213 296.572 353.992 296.466L352.751 295.755C352.641 295.701 352.519 295.673 352.396 295.673C352.273 295.673 352.152 295.701 352.042 295.755L347.159 298.556C346.955 298.67 346.928 298.855 347.159 298.96L348.399 299.663ZM289.906 335.08C290.017 335.134 290.138 335.162 290.261 335.162C290.384 335.162 290.505 335.134 290.615 335.08L295.498 332.288C295.702 332.165 295.72 331.98 295.543 331.875L290.863 329.24C290.754 329.184 290.632 329.155 290.509 329.155C290.385 329.155 290.264 329.184 290.154 329.24L285.271 332.033C285.067 332.147 285.049 332.332 285.227 332.437L289.906 335.08Z" fill="#455A64"/>
<path d="M311.043 371.578L312.045 372.149L338.651 387.359L385.95 360.302L386.934 359.74L359.336 343.959L311.043 371.578Z" fill="#37474F"/>
<path d="M312.045 372.149L338.651 387.359L385.951 360.302L359.336 345.083L312.045 372.149Z" fill="#263238"/>
<path d="M161.664 253.031L150.825 246.883C150.347 246.602 149.992 246.532 149.806 246.646L148.485 247.402C148.255 247.533 148.264 247.92 148.547 248.517L151.206 253.927L149.239 255.683C149.03 255.842 148.866 256.051 148.762 256.291C148.658 256.531 148.619 256.793 148.647 257.053C148.676 257.312 148.771 257.56 148.925 257.772C149.078 257.985 149.284 258.154 149.522 258.265L160.361 264.465L161.682 263.701L161.664 253.031Z" fill="#CF0303"/>
<path opacity="0.5" d="M161.664 253.031L150.825 246.883C150.347 246.602 149.992 246.532 149.806 246.646L148.485 247.402C148.255 247.533 148.264 247.92 148.547 248.517L151.206 253.927L149.239 255.683C149.03 255.842 148.866 256.051 148.762 256.291C148.658 256.531 148.619 256.793 148.647 257.053C148.676 257.312 148.771 257.56 148.925 257.772C149.078 257.985 149.284 258.154 149.522 258.265L160.361 264.465L161.682 263.701L161.664 253.031Z" fill="white"/>
<path d="M149.505 247.586C148.45 246.98 148.016 247.375 148.548 248.464L151.206 253.874L149.239 255.63C149.03 255.789 148.866 255.998 148.762 256.238C148.659 256.478 148.619 256.741 148.648 257C148.676 257.26 148.772 257.507 148.925 257.72C149.078 257.932 149.284 258.102 149.523 258.212L160.362 264.412V253.795L149.505 247.586Z" fill="#CF0303"/>
<path d="M161.611 287.201C161.443 287.202 161.276 287.171 161.121 287.107C160.966 287.044 160.824 286.951 160.706 286.833C160.587 286.716 160.493 286.576 160.429 286.422C160.366 286.268 160.333 286.103 160.335 285.937V250.264C160.361 249.948 160.507 249.654 160.742 249.439C160.978 249.224 161.286 249.105 161.606 249.105C161.926 249.105 162.235 249.224 162.47 249.439C162.706 249.654 162.851 249.948 162.878 250.264V285.937C162.879 286.102 162.847 286.267 162.784 286.42C162.721 286.573 162.628 286.713 162.51 286.83C162.392 286.948 162.252 287.041 162.098 287.105C161.943 287.168 161.778 287.201 161.611 287.201Z" fill="#455A64"/>
<path d="M114.985 382.187V379.965H115.525C116.367 378.467 117.633 377.246 119.168 376.452C124.769 373.247 133.844 373.247 139.445 376.452C140.982 377.242 142.25 378.464 143.088 379.965H143.637V382.117C143.637 384.251 142.29 386.393 139.445 388.018C133.844 391.223 124.769 391.223 119.168 388.018C116.411 386.411 114.967 384.294 114.985 382.187Z" fill="#263238"/>
<path d="M129.316 388.167C137.235 388.167 143.655 384.495 143.655 379.965C143.655 375.435 137.235 371.763 129.316 371.763C121.396 371.763 114.976 375.435 114.976 379.965C114.976 384.495 121.396 388.167 129.316 388.167Z" fill="#455A64"/>
<path d="M133.011 302.71V378.99C132.98 379.311 132.864 379.619 132.674 379.881C132.484 380.143 132.227 380.351 131.93 380.483C131.122 380.89 130.227 381.103 129.32 381.103C128.413 381.103 127.519 380.89 126.71 380.483C126.412 380.353 126.154 380.145 125.964 379.883C125.774 379.62 125.658 379.312 125.629 378.99V302.71H133.011Z" fill="#37474F"/>
<path d="M125.629 311.94V319.115L133.011 323.33V316.173L125.629 311.94Z" fill="#263238"/>
<path d="M152.394 295.887L166.043 303.703C165.973 303.812 165.883 303.908 165.777 303.984L141.901 317.64C141.697 317.754 141.538 317.64 141.538 317.42V300.374C141.603 297.095 142.279 293.856 143.532 290.82L152.394 295.887Z" fill="#CF0303"/>
<path opacity="0.4" d="M152.394 295.887L166.043 303.703C165.973 303.812 165.883 303.908 165.777 303.984L141.901 317.64C141.697 317.754 141.538 317.64 141.538 317.42V300.374C141.603 297.095 142.279 293.856 143.532 290.82L152.394 295.887Z" fill="black"/>
<path d="M166.148 284.69V303.79L143.531 290.828L143.611 290.644C146.03 284.637 150.089 279.552 154.52 277.023C156.056 276.064 157.82 275.522 159.634 275.451C163.658 275.451 166.148 278.99 166.148 284.69Z" fill="#CF0303"/>
<path opacity="0.3" d="M166.148 284.69V303.79L143.531 290.828L143.611 290.644C146.03 284.637 150.089 279.552 154.52 277.023C156.056 276.064 157.82 275.522 159.634 275.451C163.658 275.451 166.148 278.99 166.148 284.69Z" fill="black"/>
<path d="M190.707 325.06V323.356H190.538V323.602C190.437 323.129 190.288 322.668 190.095 322.224C189.209 320.133 187.286 318.131 184.388 316.471L168.231 307.224C167.853 307.038 167.436 306.941 167.013 306.941C166.59 306.941 166.173 307.038 165.794 307.224L141.085 321.354C140.78 321.104 140.517 320.807 140.305 320.476V322.232C140.32 322.382 140.374 322.525 140.461 322.648C140.548 322.771 140.665 322.87 140.801 322.935L156.967 332.174C161.708 334.697 167.035 335.944 172.414 335.792C176.895 335.841 181.317 334.775 185.274 332.692C188.908 330.628 190.698 327.879 190.698 325.078L190.707 325.06Z" fill="#CF0303"/>
<path opacity="0.4" d="M190.707 325.06V323.356H190.538V323.602C190.437 323.129 190.288 322.668 190.095 322.224C189.209 320.133 187.286 318.131 184.388 316.471L168.231 307.224C167.853 307.038 167.436 306.941 167.013 306.941C166.59 306.941 166.173 307.038 165.794 307.224L141.085 321.354C140.78 321.104 140.517 320.807 140.305 320.476V322.232C140.32 322.382 140.374 322.525 140.461 322.648C140.548 322.771 140.665 322.87 140.801 322.935L156.967 332.174C161.708 334.697 167.035 335.944 172.414 335.792C176.895 335.841 181.317 334.775 185.274 332.692C188.908 330.628 190.698 327.879 190.698 325.078L190.707 325.06Z" fill="black"/>
<path d="M190.095 322.232C189.209 320.142 187.286 318.14 184.388 316.48L168.231 307.233C167.852 307.046 167.435 306.949 167.013 306.949C166.59 306.949 166.173 307.046 165.794 307.233L141.085 321.354L156.967 330.435C161.71 332.954 167.035 334.201 172.414 334.053C176.895 334.098 181.315 333.032 185.274 330.953C188.535 329.091 190.317 326.694 190.645 324.191C190.557 323.515 190.372 322.856 190.095 322.232Z" fill="#CF0303"/>
<path opacity="0.2" d="M190.095 322.232C189.209 320.142 187.286 318.14 184.388 316.48L168.231 307.233C167.852 307.046 167.435 306.949 167.013 306.949C166.59 306.949 166.173 307.046 165.794 307.233L141.085 321.354L156.967 330.435C161.71 332.954 167.035 334.201 172.414 334.053C176.895 334.098 181.315 333.032 185.274 330.953C188.535 329.091 190.317 326.694 190.645 324.191C190.557 323.515 190.372 322.856 190.095 322.232Z" fill="black"/>
<path d="M190.645 324.2C190.559 323.518 190.374 322.853 190.096 322.224C189.21 320.134 187.286 318.131 184.388 316.471L168.232 307.224C167.853 307.038 167.436 306.941 167.013 306.941C166.59 306.941 166.173 307.038 165.794 307.224L141.086 321.354L140.802 321.196C140.655 321.146 140.527 321.052 140.437 320.927C140.346 320.802 140.298 320.652 140.298 320.498C140.298 320.344 140.346 320.194 140.437 320.069C140.527 319.944 140.655 319.85 140.802 319.8L165.794 305.547C166.171 305.354 166.589 305.254 167.013 305.254C167.437 305.254 167.855 305.354 168.232 305.547L184.388 314.794C187.286 316.454 189.192 318.456 190.096 320.546C190.392 321.213 190.584 321.921 190.663 322.645C190.721 323.162 190.715 323.684 190.645 324.2Z" fill="#CF0303"/>
<path opacity="0.3" d="M190.645 324.2C190.559 323.518 190.374 322.853 190.096 322.224C189.21 320.134 187.286 318.131 184.388 316.471L168.232 307.224C167.853 307.038 167.436 306.941 167.013 306.941C166.59 306.941 166.173 307.038 165.794 307.224L141.086 321.354L140.802 321.196C140.655 321.146 140.527 321.052 140.437 320.927C140.346 320.802 140.298 320.652 140.298 320.498C140.298 320.344 140.346 320.194 140.437 320.069C140.527 319.944 140.655 319.85 140.802 319.8L165.794 305.547C166.171 305.354 166.589 305.254 167.013 305.254C167.437 305.254 167.855 305.354 168.232 305.547L184.388 314.794C187.286 316.454 189.192 318.456 190.096 320.546C190.392 321.213 190.584 321.921 190.663 322.645C190.721 323.162 190.715 323.684 190.645 324.2Z" fill="black"/>
<path d="M141.351 319.563L166.334 305.266L165.776 303.975L141.9 317.639L141.351 319.563Z" fill="#CF0303"/>
<path opacity="0.1" d="M141.351 319.563L166.334 305.266L165.776 303.975L141.9 317.639L141.351 319.563Z" fill="black"/>
<path d="M163.942 283.592C163.931 283.387 163.872 283.189 163.769 283.011C163.666 282.834 163.521 282.684 163.348 282.573L132.932 265.15C132.748 265.054 132.545 265.004 132.338 265.004C132.131 265.004 131.927 265.054 131.744 265.15L131.07 265.536C130.897 265.647 130.753 265.797 130.65 265.975C130.546 266.152 130.487 266.351 130.477 266.555V289.66C130.488 289.864 130.548 290.062 130.651 290.239C130.755 290.416 130.898 290.567 131.07 290.679L161.487 308.085C161.673 308.175 161.878 308.222 162.085 308.222C162.292 308.222 162.497 308.175 162.683 308.085L163.348 307.698C163.52 307.586 163.664 307.436 163.767 307.259C163.87 307.082 163.93 306.883 163.942 306.679V283.592Z" fill="#F5F5F5"/>
<path d="M163.774 282.977L162.081 283.943L130.654 265.958C130.752 265.776 130.896 265.621 131.071 265.51L131.744 265.132C131.928 265.037 132.131 264.987 132.338 264.987C132.545 264.987 132.749 265.037 132.932 265.132L163.384 282.538C163.55 282.648 163.685 282.8 163.774 282.977Z" fill="#E0E0E0"/>
<path d="M162.09 283.935L161.779 284.119C161.877 284.16 161.959 284.231 162.015 284.321C162.07 284.41 162.096 284.515 162.09 284.62V307.725C162.098 307.8 162.085 307.876 162.052 307.944C162.019 308.013 161.968 308.071 161.903 308.111C161.812 308.147 161.711 308.147 161.62 308.111L161.496 308.059L131.07 290.662C130.898 290.549 130.755 290.398 130.652 290.222C130.549 290.045 130.489 289.847 130.477 289.643V266.538C130.484 266.33 130.545 266.127 130.654 265.949L162.09 283.935Z" fill="#EBEBEB"/>
<path opacity="0.2" d="M162.081 283.943L147.998 289.151C147.511 289.335 146.976 289.348 146.481 289.188C145.986 289.028 145.561 288.705 145.277 288.273L142.999 284.83L130.539 265.888L142.565 284.962L130.477 289.652C130.484 289.861 130.548 290.064 130.663 290.24L142.601 285.015L145.259 289.186C145.552 289.65 146.003 289.994 146.53 290.156C147.057 290.317 147.626 290.284 148.131 290.064L150.001 289.248L161.939 308.12C162 308.077 162.049 308.018 162.08 307.95C162.111 307.883 162.124 307.808 162.116 307.734V307.303L150.027 289.212L162.081 283.943Z" fill="black"/>
<path d="M156.745 287.64C156.733 287.437 156.672 287.238 156.569 287.062C156.466 286.885 156.323 286.734 156.151 286.622L125.726 269.225C125.543 269.129 125.339 269.079 125.132 269.079C124.925 269.079 124.721 269.129 124.538 269.225L123.865 269.602C123.693 269.715 123.55 269.865 123.447 270.042C123.344 270.219 123.284 270.417 123.271 270.621V293.726C123.284 293.931 123.345 294.13 123.448 294.308C123.55 294.486 123.693 294.639 123.865 294.754L154.29 312.151C154.473 312.246 154.677 312.296 154.884 312.296C155.091 312.296 155.295 312.246 155.478 312.151L156.151 311.773C156.323 311.661 156.466 311.51 156.569 311.333C156.672 311.156 156.733 310.958 156.745 310.754V287.64Z" fill="#F5F5F5"/>
<path d="M156.568 287.105L154.884 288.071L123.449 270.041C123.549 269.863 123.692 269.713 123.865 269.602L124.539 269.225C124.722 269.129 124.926 269.079 125.133 269.079C125.34 269.079 125.543 269.129 125.726 269.225L156.152 286.622C156.33 286.744 156.474 286.911 156.568 287.105Z" fill="#E0E0E0"/>
<path d="M154.884 288.027L154.574 288.211C154.671 288.253 154.753 288.323 154.809 288.413C154.865 288.502 154.891 288.607 154.884 288.712V311.817C154.893 311.892 154.88 311.968 154.847 312.037C154.814 312.105 154.762 312.163 154.698 312.203C154.607 312.239 154.505 312.239 154.414 312.203L154.29 312.151L123.865 294.754C123.693 294.641 123.55 294.49 123.447 294.314C123.344 294.137 123.284 293.939 123.271 293.735V270.63C123.279 270.422 123.34 270.219 123.448 270.041L154.884 288.027Z" fill="#EBEBEB"/>
<path opacity="0.2" d="M154.884 288.027L140.792 293.252C140.307 293.432 139.774 293.443 139.281 293.283C138.788 293.124 138.365 292.803 138.08 292.374L135.812 288.94L123.333 269.98L135.36 289.054L123.271 293.744C123.289 293.951 123.353 294.152 123.457 294.332L135.395 289.063L138.054 293.234C138.346 293.696 138.795 294.039 139.321 294.2C139.846 294.361 140.412 294.33 140.916 294.113L142.795 293.296L154.698 312.203C154.762 312.163 154.814 312.105 154.847 312.037C154.88 311.968 154.893 311.892 154.884 311.817V311.431L142.822 293.305L154.884 288.027Z" fill="black"/>
<path d="M149.54 291.733C149.529 291.528 149.47 291.33 149.367 291.153C149.264 290.975 149.119 290.825 148.946 290.714L118.53 273.308C118.345 273.217 118.142 273.17 117.936 273.17C117.73 273.17 117.526 273.217 117.342 273.308L116.669 273.695C116.495 273.806 116.351 273.956 116.248 274.133C116.144 274.31 116.085 274.509 116.075 274.713V297.819C116.085 298.023 116.144 298.222 116.248 298.399C116.351 298.576 116.495 298.726 116.669 298.837L147.085 316.243C147.271 316.334 147.476 316.381 147.683 316.381C147.891 316.381 148.095 316.334 148.281 316.243L148.946 315.857C149.119 315.746 149.264 315.595 149.367 315.418C149.47 315.241 149.529 315.042 149.54 314.838V291.733Z" fill="#F5F5F5"/>
<path d="M149.372 291.153L147.679 292.119L116.252 274.134C116.35 273.954 116.494 273.803 116.669 273.695L117.343 273.308C117.527 273.217 117.73 273.17 117.936 273.17C118.142 273.17 118.346 273.217 118.53 273.308L148.947 290.714C149.124 290.822 149.271 290.973 149.372 291.153Z" fill="#E0E0E0"/>
<path d="M147.546 316.366C147.584 316.375 147.623 316.375 147.661 316.366C147.644 316.376 147.624 316.382 147.604 316.382C147.583 316.382 147.563 316.376 147.546 316.366Z" fill="#CF0303"/>
<path d="M147.688 292.11L147.377 292.295C147.475 292.336 147.557 292.407 147.613 292.496C147.668 292.586 147.694 292.69 147.688 292.795V315.909C147.696 315.983 147.682 316.058 147.649 316.125C147.617 316.192 147.565 316.248 147.502 316.287C147.41 316.322 147.309 316.322 147.218 316.287L147.094 316.243L116.669 298.837C116.495 298.726 116.351 298.576 116.248 298.399C116.144 298.222 116.085 298.023 116.075 297.819V274.722C116.083 274.514 116.144 274.312 116.252 274.134L147.688 292.11Z" fill="#EBEBEB"/>
<path opacity="0.2" d="M147.679 292.119L133.596 297.336C133.109 297.516 132.575 297.528 132.081 297.368C131.586 297.209 131.161 296.887 130.875 296.457L128.615 293.024L116.137 274.072L128.163 293.138L116.075 297.827C116.082 298.037 116.146 298.24 116.261 298.416L128.199 293.191L130.858 297.362C131.15 297.826 131.601 298.17 132.128 298.331C132.655 298.493 133.224 298.46 133.729 298.24L135.599 297.415L147.537 316.287C147.6 316.245 147.65 316.187 147.681 316.119C147.712 316.051 147.724 315.975 147.714 315.901V315.514L135.661 297.388L147.679 292.119Z" fill="black"/>
<path d="M162.985 274.81C160.565 273.554 157.357 273.774 153.847 275.793C149.903 278.033 146.35 282.108 143.859 286.771C143.28 287.852 142.759 288.963 142.299 290.099C140.932 293.35 140.195 296.827 140.128 300.348V319.861C139.705 319.865 139.288 319.766 138.914 319.571L103.915 299.531C103.563 299.3 103.27 298.991 103.059 298.628C102.849 298.265 102.726 297.859 102.701 297.441V278.946C102.701 269.708 108.843 258.748 116.412 254.357C119.957 252.302 123.262 252.135 125.709 253.479L162.985 274.81Z" fill="#CF0303"/>
<path opacity="0.2" d="M162.985 274.81C160.565 273.554 157.357 273.774 153.847 275.793C149.903 278.033 146.35 282.108 143.859 286.771C143.28 287.852 142.759 288.963 142.299 290.099C140.932 293.35 140.195 296.827 140.128 300.348V319.861C139.705 319.865 139.288 319.766 138.914 319.571L103.915 299.531C103.563 299.3 103.27 298.991 103.059 298.628C102.849 298.265 102.726 297.859 102.701 297.441V278.946C102.701 269.708 108.843 258.748 116.412 254.357C119.957 252.302 123.262 252.135 125.709 253.479L162.985 274.81Z" fill="black"/>
<path opacity="0.1" d="M103.915 299.531L138.914 319.598C139.288 319.792 139.705 319.892 140.128 319.888V300.374C140.141 298.538 140.361 296.708 140.784 294.92L103.348 273.501C102.932 275.287 102.715 277.113 102.701 278.946V297.441C102.726 297.859 102.849 298.265 103.059 298.628C103.27 298.991 103.563 299.3 103.915 299.531Z" fill="black"/>
<path d="M142.299 290.126C140.931 293.376 140.195 296.853 140.128 300.374V319.861C139.979 319.857 139.83 319.84 139.685 319.809C139.685 318.693 139.685 312.441 139.685 300.374C139.685 286.051 150.807 276.944 153.865 275.785C149.921 278.024 146.367 282.099 143.877 286.762C143.29 287.855 142.764 288.977 142.299 290.126Z" fill="#CF0303"/>
<path opacity="0.4" d="M142.299 290.126C140.931 293.376 140.195 296.853 140.128 300.374V319.861C139.979 319.857 139.83 319.84 139.685 319.809C139.685 318.693 139.685 312.441 139.685 300.374C139.685 286.051 150.807 276.944 153.865 275.785C149.921 278.024 146.367 282.099 143.877 286.762C143.29 287.855 142.764 288.977 142.299 290.126Z" fill="black"/>
<path d="M141.901 317.639C141.706 317.754 141.538 317.639 141.538 317.429V300.383C141.601 297.103 142.278 293.864 143.532 290.828L143.611 290.644C144.095 289.441 144.651 288.268 145.278 287.131C147.697 282.714 150.976 279.043 154.521 277.023C156.057 276.064 157.821 275.522 159.635 275.451C160.561 275.444 161.475 275.664 162.294 276.092C164.687 277.357 166.087 280.413 166.087 284.69V303.351C166.079 303.476 166.042 303.597 165.979 303.705C165.916 303.813 165.829 303.906 165.724 303.975L166.273 305.266L166.397 305.195C166.586 305.057 166.756 304.895 166.902 304.712C167.256 304.277 167.461 303.742 167.487 303.184V284.69C167.487 279.745 165.715 276.303 162.923 274.845C160.504 273.58 157.295 273.8 153.786 275.82C149.842 278.059 146.288 282.125 143.798 286.806C143.219 287.884 142.698 288.993 142.238 290.126C140.868 293.379 140.132 296.859 140.066 300.383V319.852H140.341C140.695 319.833 141.039 319.737 141.351 319.571L141.901 317.639Z" fill="#CF0303"/>
<path opacity="0.1" d="M141.901 317.639C141.706 317.754 141.538 317.639 141.538 317.429V300.383C141.601 297.103 142.278 293.864 143.532 290.828L143.611 290.644C144.095 289.441 144.651 288.268 145.278 287.131C147.697 282.714 150.976 279.043 154.521 277.023C156.057 276.064 157.821 275.522 159.635 275.451C160.561 275.444 161.475 275.664 162.294 276.092C164.687 277.357 166.087 280.413 166.087 284.69V303.351C166.079 303.476 166.042 303.597 165.979 303.705C165.916 303.813 165.829 303.906 165.724 303.975L166.273 305.266L166.397 305.195C166.586 305.057 166.756 304.895 166.902 304.712C167.256 304.277 167.461 303.742 167.487 303.184V284.69C167.487 279.745 165.715 276.303 162.923 274.845C160.504 273.58 157.295 273.8 153.786 275.82C149.842 278.059 146.288 282.125 143.798 286.806C143.219 287.884 142.698 288.993 142.238 290.126C140.868 293.379 140.132 296.859 140.066 300.383V319.852H140.341C140.695 319.833 141.039 319.737 141.351 319.571L141.901 317.639Z" fill="black"/>
<path d="M225.369 267.679C225.41 266.887 225.64 266.115 226.041 265.428C226.441 264.741 227.001 264.158 227.673 263.727L341.265 198.741C341.979 198.381 342.769 198.194 343.569 198.194C344.37 198.194 345.16 198.381 345.874 198.741L348.47 200.225C349.139 200.659 349.696 201.242 350.095 201.929C350.494 202.616 350.723 203.386 350.766 204.177V293.647C350.721 294.438 350.491 295.207 350.092 295.894C349.693 296.58 349.138 297.164 348.47 297.599L234.869 362.629C234.156 362.985 233.368 363.17 232.57 363.17C231.771 363.17 230.983 362.985 230.27 362.629L227.673 361.145C227.004 360.711 226.447 360.127 226.046 359.441C225.646 358.755 225.414 357.985 225.369 357.193V267.679Z" fill="#CF0303"/>
<g opacity="0.7">
<path d="M225.369 267.679C225.41 266.887 225.64 266.115 226.041 265.428C226.441 264.741 227.001 264.158 227.673 263.727L341.265 198.741C341.979 198.381 342.769 198.194 343.569 198.194C344.37 198.194 345.16 198.381 345.874 198.741L348.47 200.225C349.139 200.659 349.696 201.242 350.095 201.929C350.494 202.616 350.723 203.386 350.766 204.177V293.647C350.721 294.438 350.491 295.207 350.092 295.894C349.693 296.58 349.138 297.164 348.47 297.599L234.869 362.629C234.156 362.985 233.368 363.17 232.57 363.17C231.771 363.17 230.983 362.985 230.27 362.629L227.673 361.145C227.004 360.711 226.447 360.127 226.046 359.441C225.646 358.755 225.414 357.985 225.369 357.193V267.679Z" fill="white"/>
</g>
<path d="M226.042 265.431L232.574 269.163L350.092 201.92C349.703 201.227 349.146 200.642 348.471 200.216L345.865 198.741C345.155 198.377 344.368 198.188 343.57 198.188C342.771 198.188 341.984 198.377 341.274 198.741L227.673 263.727C226.99 264.145 226.428 264.732 226.042 265.431Z" fill="#CF0303"/>
<path opacity="0.8" d="M226.042 265.431L232.574 269.163L350.092 201.92C349.703 201.227 349.146 200.642 348.471 200.216L345.865 198.741C345.155 198.377 344.368 198.188 343.57 198.188C342.771 198.188 341.984 198.377 341.274 198.741L227.673 263.727C226.99 264.145 226.428 264.732 226.042 265.431Z" fill="white"/>
<path opacity="0.1" d="M225.369 267.67V357.141C225.41 357.933 225.64 358.704 226.041 359.391C226.441 360.078 227.001 360.661 227.673 361.093L230.27 362.585C230.471 362.697 230.682 362.79 230.899 362.866C231.208 362.966 231.525 363.037 231.847 363.077C232.452 363.154 233.066 363.133 233.664 363.016L234.116 362.902L234.4 362.805C234.221 362.876 234.029 362.908 233.837 362.901C233.644 362.893 233.456 362.846 233.283 362.761C233.036 362.603 232.839 362.379 232.713 362.115C232.588 361.851 232.54 361.558 232.574 361.268V271.798C232.55 271.392 232.652 270.989 232.865 270.642C233.079 270.295 233.395 270.021 233.77 269.857L232.574 269.163L226.042 265.431C225.629 266.108 225.397 266.879 225.369 267.67Z" fill="#CF0303"/>
<path opacity="0.05" d="M225.369 267.67V357.141C225.41 357.933 225.64 358.704 226.041 359.391C226.441 360.078 227.001 360.661 227.673 361.093L230.27 362.585C230.471 362.697 230.682 362.79 230.899 362.866C231.208 362.966 231.525 363.037 231.847 363.077C232.452 363.154 233.066 363.133 233.664 363.016L234.116 362.902L234.4 362.805C234.221 362.876 234.029 362.908 233.837 362.901C233.644 362.893 233.456 362.846 233.283 362.761C233.036 362.603 232.839 362.379 232.713 362.115C232.588 361.851 232.54 361.558 232.574 361.268V271.798C232.55 271.392 232.652 270.989 232.865 270.642C233.079 270.295 233.395 270.021 233.77 269.857L232.574 269.163L226.042 265.431C225.629 266.108 225.397 266.879 225.369 267.67Z" fill="black"/>
<path opacity="0.2" d="M232.574 269.163L287.124 289.362C289.011 290.06 291.083 290.101 292.997 289.477C294.911 288.853 296.553 287.601 297.652 285.928L306.409 272.623L350.093 201.92L308.155 273.115L350.766 293.674C350.726 294.483 350.479 295.268 350.048 295.957L308.022 273.335L297.847 289.476C296.717 291.27 294.972 292.599 292.932 293.221C290.892 293.842 288.694 293.713 286.743 292.857L279.484 289.687L233.266 362.761C233.019 362.602 232.821 362.379 232.696 362.115C232.571 361.851 232.522 361.558 232.557 361.268V359.775L279.254 289.59L232.574 269.163Z" fill="#CF0303"/>
<path opacity="0.05" d="M232.574 269.163L287.124 289.362C289.011 290.06 291.083 290.101 292.997 289.477C294.911 288.853 296.553 287.601 297.652 285.928L306.409 272.623L350.093 201.92L308.155 273.115L350.766 293.674C350.726 294.483 350.479 295.268 350.048 295.957L308.022 273.335L297.847 289.476C296.717 291.27 294.972 292.599 292.932 293.221C290.892 293.842 288.694 293.713 286.743 292.857L279.484 289.687L233.266 362.761C233.019 362.602 232.821 362.379 232.696 362.115C232.571 361.851 232.522 361.558 232.557 361.268V359.775L279.254 289.59L232.574 269.163Z" fill="black"/>
<path d="M254.172 284.171C254.214 283.38 254.444 282.61 254.843 281.924C255.242 281.237 255.798 280.653 256.468 280.22L370.068 215.233C370.781 214.874 371.569 214.687 372.368 214.687C373.168 214.687 373.956 214.874 374.668 215.233L377.265 216.717C377.936 217.15 378.494 217.733 378.894 218.42C379.295 219.107 379.526 219.877 379.569 220.669V310.14C379.525 310.931 379.293 311.701 378.892 312.388C378.492 313.074 377.935 313.658 377.265 314.092L263.673 379.078C262.958 379.433 262.169 379.618 261.369 379.618C260.568 379.618 259.779 379.433 259.064 379.078L256.441 377.559C255.774 377.122 255.22 376.538 254.821 375.852C254.423 375.166 254.191 374.397 254.146 373.607L254.172 284.171Z" fill="#CF0303"/>
<g opacity="0.5">
<path d="M254.172 284.171C254.214 283.38 254.444 282.61 254.843 281.924C255.242 281.237 255.798 280.653 256.468 280.22L370.068 215.233C370.781 214.874 371.569 214.687 372.368 214.687C373.168 214.687 373.956 214.874 374.668 215.233L377.265 216.717C377.936 217.15 378.494 217.733 378.894 218.42C379.295 219.107 379.526 219.877 379.569 220.669V310.14C379.525 310.931 379.293 311.701 378.892 312.388C378.492 313.074 377.935 313.658 377.265 314.092L263.673 379.078C262.958 379.433 262.169 379.618 261.369 379.618C260.568 379.618 259.779 379.433 259.064 379.078L256.441 377.559C255.774 377.122 255.22 376.538 254.821 375.852C254.423 375.166 254.191 374.397 254.146 373.607L254.172 284.171Z" fill="white"/>
</g>
<path d="M254.836 281.923L261.377 285.656L378.895 218.421C378.506 217.729 377.948 217.143 377.273 216.717L374.668 215.242C373.957 214.879 373.168 214.689 372.368 214.689C371.568 214.689 370.779 214.879 370.068 215.242L256.441 280.22C255.767 280.642 255.215 281.228 254.836 281.923Z" fill="#CF0303"/>
<path opacity="0.6" d="M254.836 281.923L261.377 285.656L378.895 218.421C378.506 217.729 377.948 217.143 377.273 216.717L374.668 215.242C373.957 214.879 373.168 214.689 372.368 214.689C371.568 214.689 370.779 214.879 370.068 215.242L256.441 280.22C255.767 280.642 255.215 281.228 254.836 281.923Z" fill="white"/>
<path opacity="0.1" d="M254.164 284.163V373.633C254.207 374.418 254.435 375.183 254.831 375.865C255.226 376.546 255.778 377.127 256.441 377.559L259.029 379.052C259.234 379.163 259.447 379.257 259.667 379.333C259.976 379.433 260.293 379.504 260.616 379.543C261.221 379.62 261.834 379.599 262.432 379.482L262.876 379.359C262.97 379.333 263.062 379.298 263.15 379.254C262.977 379.329 262.79 379.367 262.601 379.367C262.412 379.367 262.225 379.329 262.051 379.254C261.805 379.092 261.609 378.867 261.484 378.602C261.358 378.337 261.31 378.043 261.342 377.752V288.29C261.318 287.884 261.42 287.481 261.634 287.134C261.848 286.787 262.163 286.513 262.539 286.349L261.342 285.656L254.802 281.923C254.405 282.606 254.185 283.375 254.164 284.163Z" fill="black"/>
<path opacity="0.4" d="M261.377 285.656L315.926 305.854C317.814 306.553 319.885 306.594 321.799 305.97C323.713 305.345 325.356 304.094 326.455 302.42L335.22 289.125L378.904 218.421L336.966 289.616L379.578 310.175C379.538 310.984 379.291 311.77 378.86 312.458L336.825 289.827L326.641 305.968C325.512 307.76 323.768 309.089 321.73 309.71C319.692 310.331 317.496 310.203 315.545 309.349L308.296 306.179L262.086 379.262C261.84 379.101 261.643 378.875 261.518 378.61C261.393 378.345 261.344 378.051 261.377 377.761V376.268L308.074 306.082L261.377 285.656Z" fill="#CF0303"/>
<path opacity="0.05" d="M261.377 285.656L315.926 305.854C317.814 306.553 319.885 306.594 321.799 305.97C323.713 305.345 325.356 304.094 326.455 302.42L335.22 289.125L378.904 218.421L336.966 289.616L379.578 310.175C379.538 310.984 379.291 311.77 378.86 312.458L336.825 289.827L326.641 305.968C325.512 307.76 323.768 309.089 321.73 309.71C319.692 310.331 317.496 310.203 315.545 309.349L308.296 306.179L262.086 379.262C261.84 379.101 261.643 378.875 261.518 378.61C261.393 378.345 261.344 378.051 261.377 377.761V376.268L308.074 306.082L261.377 285.656Z" fill="black"/>
<path d="M283.206 301.384L401.416 233.763L406.148 236.468C406.794 236.887 407.331 237.45 407.718 238.112C408.104 238.774 408.328 239.516 408.373 240.279V326.694C408.33 327.457 408.106 328.2 407.72 328.862C407.333 329.525 406.795 330.087 406.148 330.505L292.388 395.579C291.701 395.923 290.942 396.102 290.172 396.102C289.402 396.102 288.644 395.923 287.956 395.579L285.448 394.148C284.803 393.729 284.265 393.166 283.879 392.504C283.492 391.842 283.268 391.1 283.224 390.336L283.206 301.384Z" fill="#CF0303"/>
<path opacity="0.2" d="M283.206 301.384L401.416 233.763L406.148 236.468C406.794 236.887 407.331 237.45 407.718 238.112C408.104 238.774 408.328 239.516 408.373 240.279V326.694C408.33 327.457 408.106 328.2 407.72 328.862C407.333 329.525 406.795 330.087 406.148 330.505L292.388 395.579C291.701 395.923 290.942 396.102 290.172 396.102C289.402 396.102 288.644 395.923 287.956 395.579L285.448 394.148C284.803 393.729 284.265 393.166 283.879 392.504C283.492 391.842 283.268 391.1 283.224 390.336L283.206 301.384Z" fill="black"/>
<path d="M400.769 226.158L401.247 225.895L399.413 224.841C399.258 224.749 399.095 224.672 398.925 224.612L346.902 205.503C346.186 205.272 345.415 205.269 344.697 205.496C343.98 205.723 343.353 206.168 342.905 206.767L284.713 290.977C283.802 292.427 283.284 294.084 283.206 295.79V301.375L284.979 302.42L401.38 233.754V228.16C401.371 227.449 401.159 226.755 400.769 226.158Z" fill="#CF0303"/>
<path opacity="0.1" d="M345.315 207.189C345.083 207.369 344.88 207.582 344.712 207.821L286.511 292.031C286.033 292.776 285.669 293.587 285.43 294.438L283.658 293.401C283.789 292.968 283.946 292.543 284.127 292.128C284.207 291.952 284.287 291.785 284.376 291.619L284.42 291.54C284.512 291.363 284.616 291.193 284.73 291.03L342.922 206.82C343.01 206.695 343.108 206.578 343.214 206.469L343.525 206.188L345.315 207.189Z" fill="black"/>
<path opacity="0.35" d="M401.23 225.886C401.072 225.791 400.906 225.712 400.733 225.649L348.701 206.539C348.129 206.351 347.518 206.31 346.926 206.42C346.333 206.531 345.779 206.79 345.315 207.171L343.543 206.135C344.01 205.757 344.566 205.501 345.159 205.39C345.752 205.28 346.363 205.319 346.937 205.503L398.961 224.604C399.131 224.667 399.294 224.746 399.448 224.841L401.23 225.886Z" fill="white"/>
<path opacity="0.2" d="M342.905 206.767C342.995 206.644 343.092 206.527 343.197 206.416C343.088 206.523 342.99 206.641 342.905 206.767Z" fill="black"/>
<path d="M344.712 207.804L286.511 292.014C285.608 293.466 285.092 295.122 285.014 296.826V302.42L403.223 234.799V229.214C403.181 228.456 402.926 227.726 402.485 227.105C402.045 226.484 401.438 225.998 400.733 225.701L348.7 206.548C347.987 206.311 347.216 206.305 346.499 206.531C345.782 206.756 345.157 207.202 344.712 207.804Z" fill="#CF0303"/>
<path opacity="0.05" d="M403.224 229.197C403.2 228.496 402.982 227.815 402.594 227.229L285.431 294.42C285.182 295.193 285.045 295.997 285.023 296.809V302.403L403.232 234.782L403.224 229.197Z" fill="black"/>
<path d="M398.172 205.433C398.196 205.198 398.158 204.961 398.062 204.746C397.965 204.53 397.814 204.343 397.623 204.203L394.007 202.139C393.789 202.042 393.548 202.004 393.31 202.029C393.072 202.053 392.844 202.14 392.651 202.28L295.694 257.773C295.134 258.133 294.668 258.619 294.334 259.191C294 259.764 293.807 260.406 293.771 261.066V376.11C293.744 376.345 293.782 376.584 293.881 376.8C293.979 377.016 294.134 377.202 294.329 377.339L297.927 379.403C298.145 379.5 298.385 379.538 298.623 379.515C298.861 379.492 299.088 379.408 299.283 379.271L396.258 323.813C396.815 323.451 397.279 322.965 397.611 322.393C397.944 321.82 398.136 321.179 398.172 320.52V205.433Z" fill="#F0F0F0"/>
<path d="M299.292 379.315L396.258 323.813C396.815 323.451 397.279 322.964 397.611 322.392C397.944 321.82 398.136 321.179 398.172 320.52V205.433C398.172 204.221 397.286 203.729 396.258 204.335L299.292 259.828C298.735 260.19 298.272 260.677 297.939 261.249C297.607 261.821 297.415 262.462 297.378 263.121V378.165C297.378 379.403 298.238 379.895 299.292 379.315Z" fill="#FAFAFA"/>
<path d="M361.437 270.419C361.344 271.719 361.1 273.004 360.71 274.248C360.361 275.366 359.891 276.444 359.31 277.462C358.807 278.354 358.193 279.18 357.484 279.921C356.898 280.54 356.212 281.06 355.455 281.458C354.63 281.994 353.643 282.23 352.663 282.125C352.092 282.009 351.581 281.698 351.218 281.247C351.005 281.704 350.784 282.16 350.554 282.617C350.305 283.105 350.008 283.567 349.667 283.996C349.284 284.485 348.847 284.93 348.364 285.322C347.779 285.803 347.14 286.216 346.459 286.551C345.733 286.977 344.883 287.144 344.048 287.026C343.315 286.862 342.678 286.416 342.276 285.787C341.726 284.941 341.361 283.989 341.203 282.995C340.969 281.608 340.889 280.201 340.964 278.797C341.023 277.25 341.216 275.71 341.54 274.195C341.835 272.832 342.259 271.5 342.808 270.217C343.29 269.093 343.929 268.041 344.704 267.091C345.372 266.256 346.208 265.568 347.159 265.071C347.475 264.85 347.832 264.695 348.21 264.615C348.588 264.535 348.978 264.532 349.357 264.605C349.841 264.82 350.24 265.187 350.491 265.65V265.176C350.512 264.776 350.624 264.385 350.819 264.034C350.973 263.711 351.22 263.439 351.528 263.253L353.425 262.296C353.528 262.228 353.652 262.198 353.775 262.211C353.897 262.224 354.012 262.278 354.099 262.366C354.2 262.487 354.275 262.627 354.32 262.778C354.364 262.93 354.376 263.088 354.356 263.244L353.93 274.406C353.895 275.249 354.054 275.802 354.409 276.066C354.595 276.193 354.816 276.261 355.042 276.261C355.269 276.261 355.49 276.193 355.676 276.066C356.232 275.754 356.681 275.282 356.961 274.713C357.388 273.872 357.627 272.949 357.661 272.008C357.75 271.034 357.812 270.033 357.856 268.996C357.901 267.96 357.901 267.003 357.856 266.125C357.834 264.548 357.595 262.983 357.147 261.47C356.869 260.404 356.246 259.457 355.375 258.774C354.503 258.195 353.442 257.966 352.406 258.133C350.889 258.368 349.425 258.864 348.081 259.6C346.664 260.325 345.372 261.268 344.252 262.392C343.103 263.56 342.103 264.864 341.274 266.274C340.415 267.762 339.719 269.337 339.2 270.972C338.656 272.66 338.274 274.395 338.057 276.154C337.995 276.637 337.942 277.251 337.898 278.015C337.853 278.779 337.818 279.57 337.782 280.395C337.747 281.221 337.72 282.02 337.703 282.793C337.685 283.566 337.703 284.171 337.703 284.637C337.742 286.055 337.999 287.458 338.465 288.8C338.801 289.837 339.413 290.766 340.237 291.487C341.018 292.129 342.006 292.471 343.02 292.453C344.337 292.409 345.623 292.05 346.769 291.408C347.669 290.957 348.536 290.447 349.366 289.88C350.049 289.411 350.698 288.894 351.307 288.334C351.814 287.852 352.293 287.342 352.743 286.806C353.141 286.305 353.505 285.822 353.833 285.348C354.161 284.874 354.329 284.619 354.497 284.417C354.67 284.199 354.891 284.025 355.144 283.908L357.803 282.538C357.903 282.464 358.024 282.424 358.149 282.424C358.273 282.424 358.395 282.464 358.494 282.538C358.689 282.696 358.769 283.003 358.725 283.478C358.695 283.787 358.598 284.087 358.441 284.356C357.901 285.348 357.289 286.402 356.616 287.5C355.911 288.642 355.11 289.723 354.223 290.732C353.222 291.854 352.128 292.891 350.952 293.832C349.579 294.921 348.094 295.863 346.521 296.642C344.841 297.602 342.939 298.113 341 298.126C339.544 298.084 338.153 297.522 337.082 296.545C335.953 295.436 335.131 294.057 334.698 292.541C334.124 290.67 333.825 288.726 333.812 286.771C333.812 286.297 333.812 285.647 333.812 284.821C333.812 284.005 333.856 283.144 333.892 282.248C333.927 281.352 333.972 280.492 334.016 279.684C334.06 278.876 334.104 278.226 334.149 277.761C334.372 275.432 334.829 273.132 335.514 270.893C336.206 268.574 337.151 266.336 338.332 264.219C339.499 262.118 340.929 260.171 342.586 258.423C344.203 256.695 346.114 255.262 348.232 254.19C350.142 253.099 352.279 252.456 354.48 252.311C355.982 252.251 357.45 252.763 358.583 253.742C359.719 254.855 360.504 256.27 360.843 257.817C361.338 259.785 361.6 261.804 361.623 263.833C361.623 264.711 361.623 265.773 361.561 266.985C361.499 268.197 361.517 269.409 361.437 270.419ZM344.793 276.847C344.638 278.09 344.822 279.352 345.325 280.501C345.741 281.221 346.379 281.379 347.23 280.931C348.198 280.4 348.939 279.539 349.313 278.507C349.848 277.103 350.13 275.617 350.146 274.116C350.294 272.863 350.117 271.594 349.632 270.428C349.224 269.69 348.568 269.55 347.673 270.006C346.722 270.551 346.002 271.418 345.644 272.448C345.109 273.843 344.822 275.32 344.793 276.812V276.847Z" fill="#CF0303"/>
<path d="M297.368 378.191C297.351 378.405 297.383 378.621 297.461 378.822C297.539 379.022 297.662 379.203 297.82 379.35L294.337 377.365C294.14 377.23 293.984 377.044 293.884 376.828C293.784 376.611 293.745 376.373 293.77 376.136V261.093C293.792 260.431 293.988 259.786 294.337 259.222L297.936 261.277C297.585 261.844 297.39 262.492 297.368 263.156V378.191Z" fill="#E0E0E0"/>
<path d="M405.377 327.835C405.342 327.898 405.3 327.957 405.253 328.011L355.986 312.572C354.115 311.754 352.01 311.633 350.056 312.23C348.102 312.826 346.431 314.102 345.351 315.822L292.68 393.366L290.73 394.481C290.513 394.632 290.262 394.726 289.998 394.755C289.735 394.784 289.469 394.747 289.224 394.648L343.383 314.733C344.468 313.017 346.138 311.744 348.09 311.146C350.042 310.548 352.146 310.665 354.018 311.475L405.377 327.835Z" fill="#CF0303"/>
<path opacity="0.4" d="M340.494 323.392L340.618 323.286L292.68 393.366L290.73 394.481C290.512 394.629 290.261 394.722 289.998 394.751C289.735 394.78 289.469 394.745 289.224 394.648L338.597 322.232L340.494 323.392Z" fill="white"/>
<path opacity="0.4" d="M405.377 327.835C405.342 327.898 405.3 327.957 405.253 328.011L355.986 312.572C354.116 311.752 352.009 311.63 350.055 312.227C348.101 312.824 346.43 314.101 345.351 315.822L343.401 314.698C344.487 312.984 346.159 311.714 348.112 311.121C350.064 310.528 352.167 310.65 354.036 311.466L405.377 327.835Z" fill="white"/>
<path d="M408.329 239.726C408.222 239.094 407.886 238.918 407.442 239.217C407.223 239.379 407.032 239.574 406.875 239.796L406.627 240.139L358.016 313.363L350.757 323.383C350.29 323.967 349.671 324.413 348.967 324.675C348.262 324.936 347.5 325.003 346.76 324.867L340.494 323.392L292.636 305.951C292.314 305.886 291.983 305.886 291.661 305.951C291.536 305.976 291.414 306.014 291.298 306.065L293.07 305.029L338.926 321.714L344.961 323.848C345.7 323.986 346.464 323.921 347.169 323.659C347.873 323.397 348.492 322.95 348.958 322.364L356.216 312.353L405.067 238.786C405.216 238.586 405.403 238.416 405.617 238.286L401.389 235.871L403.162 234.861L406.086 236.529C406.656 236.888 407.148 237.355 407.533 237.904C407.918 238.453 408.188 239.072 408.329 239.726Z" fill="#CF0303"/>
<path opacity="0.4" d="M358.016 313.363L350.757 323.383C350.29 323.967 349.671 324.413 348.966 324.675C348.262 324.936 347.499 325.003 346.76 324.867L340.494 323.392L340.618 323.286L340.92 322.812L345.023 323.778C345.762 323.916 346.526 323.85 347.23 323.589C347.935 323.327 348.554 322.879 349.02 322.294L356.208 312.388L358.016 313.363Z" fill="white"/>
<path opacity="0.1" d="M406.148 236.45L403.224 234.782L401.451 235.792L405.679 238.207C405.463 238.335 405.276 238.505 405.129 238.707L356.278 312.274L356.208 312.37L357.98 313.345L406.591 240.112L406.84 239.77C406.996 239.548 407.188 239.352 407.407 239.19C407.841 238.892 408.178 239.067 408.293 239.7C408.171 239.044 407.919 238.419 407.55 237.861C407.182 237.304 406.706 236.824 406.148 236.45Z" fill="black"/>
<path d="M293.664 307.347L283.232 301.384V390.336C283.277 391.1 283.501 391.842 283.887 392.504C284.274 393.166 284.811 393.729 285.457 394.148L287.965 395.579C288.652 395.923 289.411 396.102 290.181 396.102C290.95 396.102 291.709 395.923 292.396 395.579L293.646 394.868L293.664 307.347Z" fill="#CF0303"/>
<path opacity="0.15" d="M293.664 307.347L283.232 301.384V390.336C283.277 391.1 283.501 391.842 283.887 392.504C284.274 393.166 284.811 393.729 285.457 394.148L287.965 395.579C288.652 395.923 289.411 396.102 290.181 396.102C290.95 396.102 291.709 395.923 292.396 395.579L293.646 394.868L293.664 307.347Z" fill="black"/>
<path d="M408.372 240.279V326.685C408.345 327.476 408.106 328.245 407.681 328.915C407.351 329.481 406.907 329.974 406.378 330.365L406.29 330.408C406.245 330.444 406.197 330.476 406.148 330.505L292.387 395.579C292.17 395.732 291.917 395.829 291.652 395.859C291.387 395.89 291.119 395.854 290.872 395.755C290.683 395.646 290.524 395.493 290.408 395.309C290.292 395.126 290.223 394.917 290.207 394.701C290.198 394.569 290.198 394.437 290.207 394.306V307.892C290.188 307.582 290.244 307.273 290.372 306.99C290.499 306.706 290.694 306.458 290.94 306.267C291.186 306.075 291.475 305.945 291.783 305.889C292.091 305.832 292.408 305.85 292.706 305.942L340.565 323.383L346.83 324.858C347.57 324.994 348.333 324.928 349.037 324.666C349.741 324.405 350.36 323.958 350.828 323.374L358.086 313.354L406.697 240.13L406.946 239.788C407.699 238.663 408.372 238.874 408.372 240.279Z" fill="#CF0303"/>
<path d="M406.148 330.505L406.299 330.408L406.378 330.356C406.909 329.971 407.353 329.48 407.681 328.915C408.1 328.256 408.338 327.499 408.372 326.72L358.024 313.371L391.702 338.742L406.148 330.505Z" fill="#CF0303"/>
<path opacity="0.2" d="M406.148 330.505L406.299 330.408L406.378 330.356C406.909 329.971 407.353 329.48 407.681 328.915C408.1 328.256 408.338 327.499 408.372 326.72L358.024 313.371L391.702 338.742L406.148 330.505Z" fill="black"/>
<path d="M290.163 394.306C290.131 394.587 290.178 394.872 290.3 395.128C290.423 395.384 290.614 395.601 290.855 395.755C291.101 395.856 291.369 395.894 291.634 395.865C291.899 395.836 292.152 395.74 292.37 395.588L331.552 373.168L340.503 323.383L290.163 392.866V394.306Z" fill="#CF0303"/>
<path opacity="0.15" d="M345.324 315.769L290.855 395.755C290.614 395.601 290.423 395.384 290.3 395.128C290.178 394.872 290.131 394.587 290.163 394.306V392.874L343.339 314.715L345.324 315.769Z" fill="black"/>
<path d="M407.682 328.915C407.354 329.48 406.91 329.971 406.379 330.356L406.299 330.408L292.388 395.579C292.17 395.732 291.917 395.827 291.652 395.856C291.387 395.885 291.119 395.847 290.873 395.746L345.351 315.751C346.442 314.023 348.125 312.743 350.091 312.144C352.057 311.546 354.175 311.67 356.057 312.493L407.682 328.915Z" fill="#CF0303"/>
<path opacity="0.15" d="M283.623 293.384L285.395 294.42C285.144 295.199 285.004 296.009 284.979 296.826V302.411L283.206 301.375V295.781C283.232 294.967 283.372 294.16 283.623 293.384Z" fill="black"/>
<path d="M293.132 304.993L291.324 306.03L289.499 304.985L285.005 302.42L286.751 301.393L293.132 304.993Z" fill="#CF0303"/>
<path opacity="0.1" d="M293.212 305.029L286.751 301.393L284.979 302.42L289.472 304.985L291.298 306.03L291.643 305.924C291.965 305.859 292.296 305.859 292.618 305.924L296.323 307.303L338.074 322.54L338.73 321.583L293.212 305.029Z" fill="black"/>
</svg>
