<svg width="570" height="570" viewBox="0 0 570 570" fill="none" xmlns="http://www.w3.org/2000/svg">
<path d="M419.716 126.603H274.403V327.732H419.716V126.603Z" stroke="#263238" stroke-width="0.5" stroke-linecap="round" stroke-linejoin="round"/>
<path d="M347.06 126.721V328.437" stroke="#263238" stroke-width="0.5" stroke-linecap="round" stroke-linejoin="round"/>
<path d="M419.843 227.583H274.287" stroke="#263238" stroke-width="0.5" stroke-linecap="round" stroke-linejoin="round"/>
<path d="M419.843 177.073H274.287" stroke="#263238" stroke-width="0.5" stroke-linecap="round" stroke-linejoin="round"/>
<path d="M419.843 278.092H274.287" stroke="#263238" stroke-width="0.5" stroke-linecap="round" stroke-linejoin="round"/>
<path d="M393.356 200.386L379.193 213.996" stroke="#263238" stroke-width="0.5" stroke-linecap="round" stroke-linejoin="round"/>
<path d="M414.421 180.135L397.5 196.4" stroke="#263238" stroke-width="0.5" stroke-linecap="round" stroke-linejoin="round"/>
<path d="M378.166 207.512L373.669 211.835" stroke="#263238" stroke-width="0.5" stroke-linecap="round" stroke-linejoin="round"/>
<path d="M397.485 188.937L381.262 204.529" stroke="#263238" stroke-width="0.5" stroke-linecap="round" stroke-linejoin="round"/>
<path d="M314.77 154.333L300.607 167.943" stroke="#263238" stroke-width="0.5" stroke-linecap="round" stroke-linejoin="round"/>
<path d="M335.835 134.082L318.915 150.354" stroke="#263238" stroke-width="0.5" stroke-linecap="round" stroke-linejoin="round"/>
<path d="M299.58 161.458L295.084 165.781" stroke="#263238" stroke-width="0.5" stroke-linecap="round" stroke-linejoin="round"/>
<path d="M318.896 142.891L302.673 158.475" stroke="#263238" stroke-width="0.5" stroke-linecap="round" stroke-linejoin="round"/>
<path d="M389.965 253.886L375.81 267.496" stroke="#263238" stroke-width="0.5" stroke-linecap="round" stroke-linejoin="round"/>
<path d="M411.038 233.636L394.109 249.908" stroke="#263238" stroke-width="0.5" stroke-linecap="round" stroke-linejoin="round"/>
<path d="M374.775 261.013L370.278 265.335" stroke="#263238" stroke-width="0.5" stroke-linecap="round" stroke-linejoin="round"/>
<path d="M394.101 242.446L377.878 258.029" stroke="#263238" stroke-width="0.5" stroke-linecap="round" stroke-linejoin="round"/>
<path d="M396.358 308.781L395.747 303.55C395.747 303.55 392.966 303.707 391.892 301.287C391.242 299.823 390.584 296.855 391.54 295.391C391.819 294.933 392.225 294.567 392.708 294.336C393.192 294.106 393.732 294.021 394.263 294.092C394.794 294.164 395.293 294.388 395.698 294.738C396.103 295.089 396.398 295.549 396.546 296.064C397.29 298.186 397.658 299.095 397.658 299.095C397.478 296.017 395.159 283.621 402.139 285.508C404.975 286.291 405.75 289.016 405.875 291.177C406.001 293.339 405.711 298.938 405.711 298.938C405.711 298.938 407.583 299.142 407.709 296.033C407.834 292.924 410.842 291.514 412.182 292.986C413.521 294.459 414.124 299.69 412.667 301.326C411.21 302.963 406.596 303.535 406.596 303.535L406.902 308.789L396.358 308.781Z" fill="#92E3A9" stroke="#263238" stroke-width="0.5" stroke-linecap="round" stroke-linejoin="round"/>
<path d="M400.369 286.369C400.369 286.369 399.218 287.419 399.531 290.99C399.844 294.561 399.844 300.951 399.844 300.951" stroke="#263238" stroke-width="0.5" stroke-linecap="round" stroke-linejoin="round"/>
<path d="M403.417 288.781C403.417 288.781 404.779 288.578 404.356 291.828C404.129 294.548 404.129 297.283 404.356 300.003" stroke="#263238" stroke-width="0.5" stroke-linecap="round" stroke-linejoin="round"/>
<path d="M393.546 295.704C393.546 295.704 392.183 296.017 392.818 298.225C393.452 300.434 393.656 302.102 395.121 302.423C395.776 302.585 396.445 302.69 397.118 302.736L397.33 305.038" stroke="#263238" stroke-width="0.5" stroke-linecap="round" stroke-linejoin="round"/>
<path d="M406.769 302.313C406.769 302.313 411.069 302.423 411.907 300.637C412.746 298.852 412.229 295.813 412.229 295.813" stroke="#263238" stroke-width="0.5" stroke-linecap="round" stroke-linejoin="round"/>
<path d="M395.33 296.283C395.33 296.356 395.309 296.427 395.268 296.488C395.228 296.548 395.17 296.595 395.103 296.623C395.036 296.651 394.962 296.658 394.89 296.644C394.819 296.63 394.754 296.595 394.702 296.544C394.651 296.492 394.616 296.426 394.601 296.355C394.587 296.284 394.594 296.21 394.622 296.142C394.65 296.075 394.697 296.018 394.758 295.977C394.818 295.937 394.889 295.915 394.962 295.915C395.011 295.915 395.058 295.925 395.103 295.943C395.148 295.962 395.188 295.989 395.223 296.023C395.257 296.057 395.284 296.098 395.302 296.142C395.321 296.187 395.33 296.235 395.33 296.283Z" stroke="#263238" stroke-width="0.5" stroke-linecap="round" stroke-linejoin="round"/>
<path d="M396.224 300.896C396.428 300.896 396.593 300.731 396.593 300.528C396.593 300.324 396.428 300.159 396.224 300.159C396.021 300.159 395.856 300.324 395.856 300.528C395.856 300.731 396.021 300.896 396.224 300.896Z" stroke="#263238" stroke-width="0.5" stroke-linecap="round" stroke-linejoin="round"/>
<path d="M394.392 299.165C394.595 299.165 394.76 299 394.76 298.797C394.76 298.594 394.595 298.429 394.392 298.429C394.189 298.429 394.024 298.594 394.024 298.797C394.024 299 394.189 299.165 394.392 299.165Z" stroke="#263238" stroke-width="0.5" stroke-linecap="round" stroke-linejoin="round"/>
<path d="M401.841 294.819C402.044 294.819 402.209 294.654 402.209 294.451C402.209 294.248 402.044 294.083 401.841 294.083C401.637 294.083 401.473 294.248 401.473 294.451C401.473 294.654 401.637 294.819 401.841 294.819Z" stroke="#263238" stroke-width="0.5" stroke-linecap="round" stroke-linejoin="round"/>
<path d="M398.378 291.248C398.581 291.248 398.746 291.083 398.746 290.88C398.746 290.677 398.581 290.512 398.378 290.512C398.175 290.512 398.01 290.677 398.01 290.88C398.01 291.083 398.175 291.248 398.378 291.248Z" stroke="#263238" stroke-width="0.5" stroke-linecap="round" stroke-linejoin="round"/>
<path d="M403.416 303.676C403.416 303.748 403.394 303.82 403.354 303.88C403.313 303.941 403.256 303.988 403.189 304.016C403.121 304.044 403.047 304.051 402.976 304.037C402.905 304.022 402.839 303.987 402.787 303.936C402.736 303.884 402.701 303.819 402.687 303.747C402.673 303.676 402.68 303.602 402.708 303.535C402.736 303.468 402.783 303.41 402.843 303.37C402.904 303.329 402.975 303.308 403.048 303.308C403.145 303.308 403.239 303.346 403.308 303.415C403.377 303.484 403.416 303.578 403.416 303.676Z" stroke="#263238" stroke-width="0.5" stroke-linecap="round" stroke-linejoin="round"/>
<path d="M399.428 303.151C399.428 303.224 399.406 303.295 399.365 303.355C399.325 303.416 399.268 303.463 399.2 303.491C399.133 303.519 399.059 303.526 398.988 303.512C398.916 303.498 398.851 303.463 398.799 303.411C398.748 303.36 398.713 303.294 398.698 303.223C398.684 303.151 398.692 303.077 398.719 303.01C398.747 302.943 398.794 302.885 398.855 302.845C398.916 302.804 398.987 302.783 399.059 302.783C399.157 302.783 399.251 302.822 399.32 302.891C399.389 302.96 399.428 303.053 399.428 303.151Z" stroke="#263238" stroke-width="0.5" stroke-linecap="round" stroke-linejoin="round"/>
<path d="M402.467 287.896C402.67 287.896 402.835 287.732 402.835 287.528C402.835 287.325 402.67 287.16 402.467 287.16C402.263 287.16 402.099 287.325 402.099 287.528C402.099 287.732 402.263 287.896 402.467 287.896Z" stroke="#263238" stroke-width="0.5" stroke-linecap="round" stroke-linejoin="round"/>
<path d="M410.286 294.498C410.286 294.57 410.265 294.642 410.224 294.702C410.184 294.763 410.126 294.81 410.059 294.838C409.992 294.866 409.918 294.873 409.847 294.859C409.775 294.844 409.71 294.809 409.658 294.758C409.607 294.706 409.572 294.641 409.557 294.569C409.543 294.498 409.55 294.424 409.578 294.357C409.606 294.29 409.653 294.232 409.714 294.192C409.774 294.151 409.846 294.13 409.918 294.13C410.016 294.13 410.11 294.168 410.179 294.237C410.248 294.306 410.286 294.4 410.286 294.498Z" stroke="#263238" stroke-width="0.5" stroke-linecap="round" stroke-linejoin="round"/>
<path d="M408.968 299.854C409.171 299.854 409.336 299.689 409.336 299.486C409.336 299.283 409.171 299.118 408.968 299.118C408.765 299.118 408.6 299.283 408.6 299.486C408.6 299.689 408.765 299.854 408.968 299.854Z" stroke="#263238" stroke-width="0.5" stroke-linecap="round" stroke-linejoin="round"/>
<path d="M402.467 299.744C402.67 299.744 402.835 299.58 402.835 299.376C402.835 299.173 402.67 299.008 402.467 299.008C402.263 299.008 402.099 299.173 402.099 299.376C402.099 299.58 402.263 299.744 402.467 299.744Z" stroke="#263238" stroke-width="0.5" stroke-linecap="round" stroke-linejoin="round"/>
<path d="M410.827 305.391H391.948L393.836 320.864H408.939L410.827 305.391Z" fill="#CF0303" stroke="#263238" stroke-width="0.5" stroke-linecap="round" stroke-linejoin="round"/>
<path d="M133 276.862L147.453 415.258" stroke="#263238" stroke-width="0.5" stroke-miterlimit="10"/>
<path d="M145.119 388.774L138.57 381.859" stroke="#263238" stroke-width="0.5" stroke-miterlimit="10"/>
<path d="M140.56 383.926C140.55 382.87 140.314 381.828 139.868 380.871C139.422 379.913 138.777 379.062 137.975 378.374C136.298 376.871 127.446 373.151 126.608 376.268C125.668 379.658 134.732 386.315 140.56 383.926Z" fill="#92E3A9" stroke="#263238" stroke-width="0.5" stroke-miterlimit="10"/>
<path d="M140.56 383.926L132.138 378.68" stroke="#263238" stroke-width="0.5" stroke-miterlimit="10"/>
<path d="M146.764 404.514L140.215 397.599" stroke="#263238" stroke-width="0.5" stroke-miterlimit="10"/>
<path d="M142.205 399.667C142.192 398.609 141.952 397.566 141.503 396.608C141.053 395.65 140.403 394.8 139.596 394.115C137.92 392.611 129.068 388.891 128.23 392.008C127.313 395.399 136.408 402.086 142.205 399.667Z" fill="#92E3A9" stroke="#263238" stroke-width="0.5" stroke-miterlimit="10"/>
<path d="M142.205 399.666L133.783 394.42" stroke="#263238" stroke-width="0.5" stroke-miterlimit="10"/>
<path d="M141.108 350.363L134.559 343.449" stroke="#263238" stroke-width="0.5" stroke-miterlimit="10"/>
<path d="M136.549 345.524C136.536 344.465 136.298 343.422 135.849 342.463C135.401 341.504 134.752 340.652 133.948 339.964C132.264 338.468 123.412 334.741 122.573 337.873C121.665 341.248 130.72 347.904 136.549 345.524Z" fill="#92E3A9" stroke="#263238" stroke-width="0.5" stroke-miterlimit="10"/>
<path d="M136.549 345.523L128.127 340.277" stroke="#263238" stroke-width="0.5" stroke-miterlimit="10"/>
<path d="M142.752 366.103L136.203 359.189" stroke="#263238" stroke-width="0.5" stroke-miterlimit="10"/>
<path d="M138.193 361.264C138.18 360.204 137.941 359.16 137.491 358.201C137.041 357.242 136.391 356.391 135.584 355.704C133.908 354.208 125.056 350.488 124.218 353.597C123.301 356.988 132.357 363.644 138.193 361.264Z" fill="#92E3A9" stroke="#263238" stroke-width="0.5" stroke-miterlimit="10"/>
<path d="M138.194 361.264L129.773 356.017" stroke="#263238" stroke-width="0.5" stroke-miterlimit="10"/>
<path d="M138.444 324.795L131.895 317.881" stroke="#263238" stroke-width="0.5" stroke-miterlimit="10"/>
<path d="M133.885 319.956C133.87 318.897 133.63 317.853 133.18 316.895C132.73 315.936 132.081 315.084 131.276 314.396C129.592 312.9 120.748 309.173 119.902 312.289C118.993 315.68 128.049 322.336 133.885 319.956Z" fill="#92E3A9" stroke="#263238" stroke-width="0.5" stroke-miterlimit="10"/>
<path d="M133.885 319.956L125.456 314.709" stroke="#263238" stroke-width="0.5" stroke-miterlimit="10"/>
<path d="M135.757 299.118L129.208 292.203" stroke="#263238" stroke-width="0.5" stroke-miterlimit="10"/>
<path d="M131.198 294.27C131.182 293.211 130.94 292.168 130.487 291.21C130.035 290.252 129.382 289.403 128.573 288.718C126.889 287.215 118.037 283.495 117.199 286.612C116.314 290.003 125.369 296.651 131.198 294.27Z" fill="#92E3A9" stroke="#263238" stroke-width="0.5" stroke-miterlimit="10"/>
<path d="M131.198 294.271L122.777 289.024" stroke="#263238" stroke-width="0.5" stroke-miterlimit="10"/>
<path d="M144.022 379.463L149.004 371.342" stroke="#263238" stroke-width="0.5" stroke-miterlimit="10"/>
<path d="M147.484 373.777C147.278 372.74 147.297 371.671 147.539 370.642C147.781 369.613 148.24 368.647 148.886 367.81C150.218 365.993 158.107 360.527 159.571 363.401C161.169 366.526 153.681 374.905 147.484 373.777Z" fill="#92E3A9" stroke="#263238" stroke-width="0.5" stroke-miterlimit="10"/>
<path d="M147.484 373.777L155.067 366.534" stroke="#263238" stroke-width="0.5" stroke-miterlimit="10"/>
<path d="M139.698 338.037L144.68 329.924" stroke="#263238" stroke-width="0.5" stroke-miterlimit="10"/>
<path d="M143.16 332.391C142.954 331.353 142.973 330.283 143.215 329.252C143.457 328.222 143.916 327.255 144.563 326.416C145.894 324.599 153.783 319.134 155.248 322.007C156.846 325.108 149.357 333.488 143.16 332.391Z" fill="#92E3A9" stroke="#263238" stroke-width="0.5" stroke-miterlimit="10"/>
<path d="M143.16 332.36L150.743 325.109" stroke="#263238" stroke-width="0.5" stroke-miterlimit="10"/>
<path d="M137.794 319.838L142.776 311.718" stroke="#263238" stroke-width="0.5" stroke-miterlimit="10"/>
<path d="M141.256 314.161C141.053 313.121 141.074 312.05 141.318 311.02C141.563 309.989 142.025 309.023 142.674 308.186C144.014 306.369 151.902 300.903 153.367 303.777C154.942 306.902 147.453 315.281 141.256 314.161Z" fill="#92E3A9" stroke="#263238" stroke-width="0.5" stroke-miterlimit="10"/>
<path d="M141.256 314.161L148.839 306.909" stroke="#263238" stroke-width="0.5" stroke-miterlimit="10"/>
<path d="M135.013 293.151L139.987 285.038" stroke="#263238" stroke-width="0.5" stroke-miterlimit="10"/>
<path d="M138.468 287.473C138.263 286.435 138.282 285.364 138.526 284.333C138.769 283.303 139.23 282.336 139.878 281.498C141.21 279.682 149.098 274.216 150.563 277.09C152.153 280.222 144.672 288.601 138.468 287.473Z" fill="#92E3A9" stroke="#263238" stroke-width="0.5" stroke-miterlimit="10"/>
<path d="M138.468 287.473L146.058 280.222" stroke="#263238" stroke-width="0.5" stroke-miterlimit="10"/>
<path d="M132.882 276.095C132.676 275.057 132.695 273.986 132.937 272.956C133.178 271.925 133.638 270.958 134.284 270.12C135.616 268.303 143.504 262.837 144.969 265.711C146.591 268.836 139.078 277.215 132.882 276.095Z" fill="#92E3A9" stroke="#263238" stroke-width="0.5" stroke-miterlimit="10"/>
<path d="M132.882 276.095L140.465 268.843" stroke="#263238" stroke-width="0.5" stroke-miterlimit="10"/>
<path d="M133.321 276.408C132.266 276.501 131.203 276.369 130.204 276.019C129.204 275.669 128.291 275.11 127.524 274.38C125.856 272.869 121.257 264.45 124.258 263.291C127.54 262.038 135.091 270.363 133.321 276.408Z" fill="#92E3A9" stroke="#263238" stroke-width="0.5" stroke-miterlimit="10"/>
<path d="M133.321 276.408L126.905 268.107" stroke="#263238" stroke-width="0.5" stroke-miterlimit="10"/>
<path d="M171.11 295.923L156.743 434.326" stroke="#263238" stroke-width="0.5" stroke-miterlimit="10"/>
<path d="M159.916 407.928L154.934 399.815" stroke="#263238" stroke-width="0.5" stroke-miterlimit="10"/>
<path d="M156.454 402.251C156.66 401.212 156.64 400.141 156.397 399.111C156.153 398.08 155.692 397.113 155.044 396.276C153.712 394.467 145.816 389.001 144.359 391.875C142.761 395.039 150.258 403.378 156.454 402.251Z" fill="#92E3A9" stroke="#263238" stroke-width="0.5" stroke-miterlimit="10"/>
<path d="M156.453 402.25L149.293 395.383" stroke="#263238" stroke-width="0.5" stroke-miterlimit="10"/>
<path d="M163.904 369.518L158.922 361.405" stroke="#263238" stroke-width="0.5" stroke-miterlimit="10"/>
<path d="M160.441 363.84C160.646 362.801 160.626 361.731 160.383 360.7C160.14 359.669 159.679 358.703 159.031 357.865C157.699 356.056 149.803 350.59 148.346 353.464C146.748 356.597 154.244 364.968 160.441 363.84Z" fill="#92E3A9" stroke="#263238" stroke-width="0.5" stroke-miterlimit="10"/>
<path d="M160.441 363.84L153.281 356.972" stroke="#263238" stroke-width="0.5" stroke-miterlimit="10"/>
<path d="M162.274 385.257L157.284 377.145" stroke="#263238" stroke-width="0.5" stroke-miterlimit="10"/>
<path d="M158.804 379.58C159.009 378.543 158.991 377.474 158.749 376.445C158.507 375.416 158.048 374.45 157.402 373.613C156.062 371.796 148.174 366.33 146.709 369.204C145.118 372.329 152.607 380.708 158.804 379.58Z" fill="#92E3A9" stroke="#263238" stroke-width="0.5" stroke-miterlimit="10"/>
<path d="M158.804 379.58L151.644 372.712" stroke="#263238" stroke-width="0.5" stroke-miterlimit="10"/>
<path d="M166.559 343.95L161.577 335.837" stroke="#263238" stroke-width="0.5" stroke-miterlimit="10"/>
<path d="M163.097 338.272C163.302 337.233 163.283 336.162 163.04 335.132C162.797 334.101 162.335 333.134 161.686 332.297C160.355 330.48 152.458 325.022 150.994 327.896C149.403 331.021 156.9 339.439 163.097 338.272Z" fill="#92E3A9" stroke="#263238" stroke-width="0.5" stroke-miterlimit="10"/>
<path d="M163.097 338.272L155.937 331.405" stroke="#263238" stroke-width="0.5" stroke-miterlimit="10"/>
<path d="M169.222 318.264L164.24 310.152" stroke="#263238" stroke-width="0.5" stroke-miterlimit="10"/>
<path d="M165.76 312.587C165.966 311.55 165.947 310.481 165.705 309.452C165.464 308.422 165.004 307.457 164.358 306.62C163.019 304.803 155.122 299.337 153.665 302.219C152.075 305.343 159.564 313.722 165.76 312.587Z" fill="#92E3A9" stroke="#263238" stroke-width="0.5" stroke-miterlimit="10"/>
<path d="M165.76 312.587L158.6 305.719" stroke="#263238" stroke-width="0.5" stroke-miterlimit="10"/>
<path d="M160.762 398.586L167.303 391.671" stroke="#263238" stroke-width="0.5" stroke-miterlimit="10"/>
<path d="M165.313 393.746C165.326 392.687 165.566 391.643 166.016 390.684C166.466 389.725 167.116 388.873 167.922 388.186C169.598 386.683 178.45 382.963 179.289 386.072C180.205 389.463 171.15 396.119 165.313 393.746Z" fill="#92E3A9" stroke="#263238" stroke-width="0.5" stroke-miterlimit="10"/>
<path d="M165.313 393.746L174.236 388.21" stroke="#263238" stroke-width="0.5" stroke-miterlimit="10"/>
<path d="M165.062 357.168L171.603 350.246" stroke="#263238" stroke-width="0.5" stroke-miterlimit="10"/>
<path d="M169.615 352.321C169.627 351.263 169.866 350.22 170.316 349.262C170.766 348.304 171.417 347.454 172.223 346.769C173.9 345.265 182.744 341.538 183.59 344.654C184.506 348.053 175.451 354.701 169.615 352.321Z" fill="#92E3A9" stroke="#263238" stroke-width="0.5" stroke-miterlimit="10"/>
<path d="M169.615 352.321L178.529 346.792" stroke="#263238" stroke-width="0.5" stroke-miterlimit="10"/>
<path d="M166.95 338.962L173.491 332.047" stroke="#263238" stroke-width="0.5" stroke-miterlimit="10"/>
<path d="M171.51 334.114C171.521 333.056 171.758 332.013 172.207 331.055C172.656 330.097 173.305 329.247 174.111 328.562C175.787 327.058 184.639 323.331 185.478 326.447C186.394 329.838 177.338 336.494 171.51 334.114Z" fill="#92E3A9" stroke="#263238" stroke-width="0.5" stroke-miterlimit="10"/>
<path d="M171.51 334.114L180.425 328.586" stroke="#263238" stroke-width="0.5" stroke-miterlimit="10"/>
<path d="M169.716 312.274L176.265 305.359" stroke="#263238" stroke-width="0.5" stroke-miterlimit="10"/>
<path d="M174.276 307.434C174.289 306.375 174.529 305.331 174.979 304.372C175.429 303.413 176.079 302.561 176.885 301.874C178.561 300.371 187.405 296.643 188.252 299.76C189.168 303.151 180.112 309.807 174.276 307.434Z" fill="#92E3A9" stroke="#263238" stroke-width="0.5" stroke-miterlimit="10"/>
<path d="M174.276 307.434L183.191 301.898" stroke="#263238" stroke-width="0.5" stroke-miterlimit="10"/>
<path d="M171.15 295.14C171.163 294.083 171.401 293.04 171.85 292.083C172.299 291.125 172.947 290.274 173.751 289.588C175.435 288.084 184.28 284.357 185.118 287.473C186.034 290.888 176.986 297.52 171.15 295.14Z" fill="#92E3A9" stroke="#263238" stroke-width="0.5" stroke-miterlimit="10"/>
<path d="M171.15 295.14L180.065 289.611" stroke="#263238" stroke-width="0.5" stroke-miterlimit="10"/>
<path d="M171.517 295.539C170.465 295.415 169.452 295.069 168.546 294.522C167.639 293.975 166.86 293.24 166.261 292.367C164.945 290.543 162.164 281.357 165.352 280.848C168.815 280.292 174.494 289.987 171.517 295.539Z" fill="#92E3A9" stroke="#263238" stroke-width="0.5" stroke-miterlimit="10"/>
<path d="M171.517 295.539L166.95 286.095" stroke="#263238" stroke-width="0.5" stroke-miterlimit="10"/>
<path d="M154.645 239.564V414.584" stroke="#263238" stroke-width="0.5" stroke-miterlimit="10"/>
<path d="M154.785 388.273L148.988 380.708" stroke="#263238" stroke-width="0.5" stroke-miterlimit="10"/>
<path d="M150.751 382.979C150.849 381.925 150.72 380.863 150.373 379.863C150.026 378.863 149.468 377.95 148.738 377.184C147.218 375.516 138.805 370.919 137.645 373.911C136.407 377.184 144.703 384.741 150.751 382.979Z" fill="#92E3A9" stroke="#263238" stroke-width="0.5" stroke-miterlimit="10"/>
<path d="M150.751 382.979L142.917 376.886" stroke="#263238" stroke-width="0.5" stroke-miterlimit="10"/>
<path d="M154.785 355.375L148.988 347.818" stroke="#263238" stroke-width="0.5" stroke-miterlimit="10"/>
<path d="M150.751 350.089C150.849 349.035 150.72 347.973 150.373 346.973C150.026 345.974 149.468 345.06 148.738 344.294C147.218 342.626 138.805 338.029 137.645 341.013C136.407 344.294 144.703 351.851 150.751 350.089Z" fill="#92E3A9" stroke="#263238" stroke-width="0.5" stroke-miterlimit="10"/>
<path d="M150.751 350.089L142.917 343.997" stroke="#263238" stroke-width="0.5" stroke-miterlimit="10"/>
<path d="M154.785 316.761L148.988 309.204" stroke="#263238" stroke-width="0.5" stroke-miterlimit="10"/>
<path d="M150.751 311.467C150.849 310.413 150.72 309.351 150.373 308.351C150.026 307.352 149.468 306.438 148.738 305.672C147.218 304.004 138.805 299.408 137.645 302.399C136.407 305.672 144.703 313.229 150.751 311.467Z" fill="#92E3A9" stroke="#263238" stroke-width="0.5" stroke-miterlimit="10"/>
<path d="M150.751 311.467L142.917 305.375" stroke="#263238" stroke-width="0.5" stroke-miterlimit="10"/>
<path d="M154.785 291.052L148.988 283.495" stroke="#263238" stroke-width="0.5" stroke-miterlimit="10"/>
<path d="M150.751 285.758C150.85 284.706 150.721 283.644 150.374 282.646C150.026 281.647 149.468 280.735 148.738 279.971C147.218 278.303 138.805 273.706 137.645 276.69C136.407 279.971 144.703 287.528 150.751 285.758Z" fill="#92E3A9" stroke="#263238" stroke-width="0.5" stroke-miterlimit="10"/>
<path d="M150.751 285.758L142.917 279.666" stroke="#263238" stroke-width="0.5" stroke-miterlimit="10"/>
<path d="M154.785 265.234L148.988 257.677" stroke="#263238" stroke-width="0.5" stroke-miterlimit="10"/>
<path d="M150.751 259.94C150.849 258.886 150.72 257.824 150.373 256.824C150.026 255.824 149.468 254.911 148.738 254.145C147.218 252.477 138.805 247.88 137.645 250.872C136.407 254.145 144.703 261.71 150.751 259.94Z" fill="#92E3A9" stroke="#263238" stroke-width="0.5" stroke-miterlimit="10"/>
<path d="M150.751 259.94L142.917 253.847" stroke="#263238" stroke-width="0.5" stroke-miterlimit="10"/>
<path d="M154.66 398.312L160.457 390.755" stroke="#263238" stroke-width="0.5" stroke-miterlimit="10"/>
<path d="M158.686 393.018C158.584 391.962 158.711 390.897 159.057 389.895C159.403 388.892 159.96 387.976 160.692 387.207C162.204 385.539 170.617 380.943 171.776 383.926C173.053 387.207 164.734 394.788 158.686 393.018Z" fill="#92E3A9" stroke="#263238" stroke-width="0.5" stroke-miterlimit="10"/>
<path d="M158.686 393.018L166.982 386.605" stroke="#263238" stroke-width="0.5" stroke-miterlimit="10"/>
<path d="M154.66 346.001L160.457 338.444" stroke="#263238" stroke-width="0.5" stroke-miterlimit="10"/>
<path d="M158.686 340.708C158.59 339.654 158.721 338.591 159.07 337.592C159.418 336.592 159.977 335.679 160.707 334.913C162.219 333.245 170.633 328.648 171.792 331.64C173.053 334.913 164.734 342.47 158.686 340.708Z" fill="#92E3A9" stroke="#263238" stroke-width="0.5" stroke-miterlimit="10"/>
<path d="M158.686 340.708L166.982 334.286" stroke="#263238" stroke-width="0.5" stroke-miterlimit="10"/>
<path d="M154.66 320.183L160.457 312.626" stroke="#263238" stroke-width="0.5" stroke-miterlimit="10"/>
<path d="M158.686 314.889C158.59 313.835 158.721 312.773 159.07 311.773C159.418 310.774 159.977 309.861 160.707 309.094C162.219 307.426 170.633 302.83 171.792 305.821C173.053 309.094 164.734 316.651 158.686 314.889Z" fill="#92E3A9" stroke="#263238" stroke-width="0.5" stroke-miterlimit="10"/>
<path d="M158.686 314.889L166.982 308.468" stroke="#263238" stroke-width="0.5" stroke-miterlimit="10"/>
<path d="M154.66 286.056L160.457 278.499" stroke="#263238" stroke-width="0.5" stroke-miterlimit="10"/>
<path d="M158.686 280.762C158.59 279.708 158.721 278.646 159.07 277.646C159.418 276.647 159.977 275.733 160.707 274.967C162.219 273.299 170.633 268.703 171.792 271.694C173.053 274.967 164.734 282.524 158.686 280.762Z" fill="#92E3A9" stroke="#263238" stroke-width="0.5" stroke-miterlimit="10"/>
<path d="M158.686 280.762L166.982 274.341" stroke="#263238" stroke-width="0.5" stroke-miterlimit="10"/>
<path d="M154.66 259.227L160.457 251.663" stroke="#263238" stroke-width="0.5" stroke-miterlimit="10"/>
<path d="M158.686 253.934C158.59 252.879 158.721 251.817 159.07 250.818C159.418 249.818 159.977 248.905 160.707 248.139C162.219 246.471 170.633 241.874 171.792 244.865C173.053 248.139 164.734 255.695 158.686 253.934Z" fill="#92E3A9" stroke="#263238" stroke-width="0.5" stroke-miterlimit="10"/>
<path d="M158.686 253.934L166.982 247.512" stroke="#263238" stroke-width="0.5" stroke-miterlimit="10"/>
<path d="M154.307 242.03C154.211 240.976 154.342 239.914 154.691 238.915C155.039 237.915 155.598 237.002 156.328 236.236C157.84 234.575 166.254 229.971 167.413 232.962C168.674 236.236 160.355 243.8 154.307 242.03Z" fill="#92E3A9" stroke="#263238" stroke-width="0.5" stroke-miterlimit="10"/>
<path d="M154.308 242.031L162.603 235.609" stroke="#263238" stroke-width="0.5" stroke-miterlimit="10"/>
<path d="M154.715 242.391C153.656 242.378 152.612 242.138 151.654 241.686C150.696 241.235 149.846 240.583 149.161 239.775C147.665 238.1 143.952 229.251 147.07 228.413C150.454 227.504 157.104 236.565 154.715 242.391Z" fill="#92E3A9" stroke="#263238" stroke-width="0.5" stroke-miterlimit="10"/>
<path d="M154.714 242.391L149.199 233.471" stroke="#263238" stroke-width="0.5" stroke-miterlimit="10"/>
<path d="M161.85 459.98H143.308L140.989 413.167H164.169L161.85 459.98Z" fill="#CF0303" stroke="#263238" stroke-width="0.5" stroke-miterlimit="10"/>
<path d="M326.183 269.744H383.353L370.035 318.781H312.866L326.183 269.744Z" fill="#1E1E1E" stroke="#263238" stroke-width="0.5" stroke-linecap="round" stroke-linejoin="round"/>
<path d="M327.813 271.569H380.73L368.407 316.957H315.491L327.813 271.569Z" fill="#7D7D7D" stroke="#263238" stroke-width="0.5" stroke-linecap="round" stroke-linejoin="round"/>
<path d="M370.034 316.181H289.881V318.789H370.034V316.181Z" fill="#7D7D7D" stroke="#263238" stroke-width="0.5" stroke-linecap="round" stroke-linejoin="round"/>
<path d="M370.036 316.181H333.202V318.789H370.036V316.181Z" fill="#595959" stroke="#263238" stroke-width="0.5" stroke-linecap="round" stroke-linejoin="round"/>
<path d="M268.55 322.939H264.242V459.675H268.55V322.939Z" fill="white" stroke="#263238" stroke-width="0.5" stroke-linecap="round" stroke-linejoin="round"/>
<path d="M260.56 459.675H264.242V322.94H260.56V459.675Z" fill="#A8A8A8" stroke="#263238" stroke-width="0.5" stroke-linecap="round" stroke-linejoin="round"/>
<path d="M378.927 394.483H374.619V459.675H378.927V394.483Z" fill="white" stroke="#263238" stroke-width="0.5" stroke-linecap="round" stroke-linejoin="round"/>
<path d="M370.937 459.682H374.619V394.49H370.937V459.682Z" fill="#A8A8A8" stroke="#263238" stroke-width="0.5" stroke-linecap="round" stroke-linejoin="round"/>
<path d="M425.059 394.483H420.751V459.675H425.059V394.483Z" fill="white" stroke="#263238" stroke-width="0.5" stroke-linecap="round" stroke-linejoin="round"/>
<path d="M417.069 459.682H420.751V394.49H417.069V459.682Z" fill="#A8A8A8" stroke="#263238" stroke-width="0.5" stroke-linecap="round" stroke-linejoin="round"/>
<path d="M331.911 398.202H373.946V324.263H331.911V398.202Z" fill="#A8A8A8" stroke="#263238" stroke-width="0.5" stroke-linecap="round" stroke-linejoin="round"/>
<path d="M429.337 324.271H373.946V398.21H429.337V324.271Z" fill="white" stroke="#263238" stroke-width="0.5" stroke-linecap="round" stroke-linejoin="round"/>
<path d="M373.943 324.271H331.916V327.873H373.943H429.335V324.271H373.943Z" fill="#263238" stroke="#263238" stroke-width="0.5" stroke-linecap="round" stroke-linejoin="round"/>
<path d="M371.334 328.507H335.496V345.766H371.334V328.507Z" fill="white" stroke="#263238" stroke-width="0.5" stroke-linecap="round" stroke-linejoin="round"/>
<path d="M358.143 335.508H348.696V338.766H358.143V335.508Z" fill="#263238"/>
<path d="M371.334 352.282H335.496V369.541H371.334V352.282Z" fill="white" stroke="#263238" stroke-width="0.5" stroke-linecap="round" stroke-linejoin="round"/>
<path d="M358.143 358.961H348.696V362.219H358.143V358.961Z" fill="#263238"/>
<path d="M371.334 376.056H335.496V393.316H371.334V376.056Z" fill="white" stroke="#263238" stroke-width="0.5" stroke-linecap="round" stroke-linejoin="round"/>
<path d="M358.143 382.407H348.696V385.665H358.143V382.407Z" fill="#263238"/>
<path d="M435.056 321.021H254.624V325.32H435.056V321.021Z" fill="#A8A8A8" stroke="#263238" stroke-width="0.5" stroke-linecap="round" stroke-linejoin="round"/>
<path d="M435.055 321.021H380.572V325.32H435.055V321.021Z" fill="white" stroke="#263238" stroke-width="0.5" stroke-linecap="round" stroke-linejoin="round"/>
<path d="M224.902 379.831L212.956 459.189C212.914 459.356 212.939 459.533 213.027 459.682C213.115 459.83 213.259 459.937 213.426 459.98C213.593 460.023 213.771 459.997 213.919 459.909C214.067 459.821 214.175 459.677 214.217 459.51L232.235 381.139L224.902 379.831Z" fill="#9C9C9C" stroke="#263238" stroke-width="0.5" stroke-linecap="round" stroke-linejoin="round"/>
<path d="M242.732 380.355L247.926 459.04C247.926 459.213 247.995 459.378 248.117 459.5C248.238 459.622 248.404 459.69 248.576 459.69C248.749 459.69 248.914 459.622 249.036 459.5C249.158 459.378 249.226 459.213 249.226 459.04L250.127 379.721L242.732 380.355Z" fill="#9C9C9C" stroke="#263238" stroke-width="0.5" stroke-linecap="round" stroke-linejoin="round"/>
<path d="M260.258 381.538L274.515 458.86C274.557 459.015 274.655 459.149 274.789 459.236C274.924 459.323 275.086 459.357 275.245 459.332C275.403 459.307 275.547 459.224 275.648 459.099C275.749 458.974 275.8 458.817 275.792 458.657L267.488 379.854L260.258 381.538Z" fill="#9C9C9C" stroke="#263238" stroke-width="0.5" stroke-linecap="round" stroke-linejoin="round"/>
<path d="M287.814 380.888L299.478 458.727C299.513 458.884 299.605 459.022 299.736 459.115C299.867 459.208 300.028 459.249 300.188 459.231C300.347 459.212 300.494 459.136 300.601 459.015C300.707 458.894 300.765 458.739 300.763 458.578L295.107 379.486L287.814 380.888Z" fill="#9C9C9C" stroke="#263238" stroke-width="0.5" stroke-linecap="round" stroke-linejoin="round"/>
<path d="M276.668 365.046C276.668 365.046 262.951 360.473 256.551 344.028C250.151 327.583 239.646 299.251 232.33 295.586C225.013 291.921 210.85 298.781 209.933 325.281C209.017 351.78 211.163 371.483 217.07 377.998C222.295 383.738 231.17 391.052 261.98 391.569C289.499 392.039 300.733 381.554 304.548 377.998C308.363 374.443 314.598 366.847 309.577 366.847C304.556 366.847 283.068 366.847 276.668 365.046Z" fill="#CF0303" stroke="#263238" stroke-width="0.5" stroke-linecap="round" stroke-linejoin="round"/>
<path d="M303.135 202.399C303.135 202.399 297.785 196.134 290.351 194.967C282.917 193.8 282.415 204.638 291.918 209.392C294.583 210.617 297.536 211.078 300.448 210.723C300.448 210.723 292.858 219.689 297.769 221.122C308.736 224.349 306.386 207.449 306.386 207.449L303.135 202.399Z" fill="white" stroke="#263238" stroke-width="0.5" stroke-linecap="round" stroke-linejoin="round"/>
<path d="M304.938 201.968C304.938 201.968 301.805 194.364 304.155 187.206C306.505 180.049 315.819 184.912 315.725 195.538C315.689 198.288 314.953 200.983 313.586 203.369C313.586 203.369 325.541 200.824 324.068 205.719C320.723 216.846 307.962 207.167 307.962 207.167L304.938 201.968Z" fill="white" stroke="#263238" stroke-width="0.5" stroke-linecap="round" stroke-linejoin="round"/>
<path d="M309.09 211.467C308.954 211.467 308.82 211.431 308.702 211.364C308.584 211.297 308.486 211.2 308.416 211.083L300.982 198.6C300.876 198.423 300.844 198.21 300.894 198.009C300.944 197.808 301.071 197.635 301.249 197.528C301.337 197.474 301.436 197.438 301.539 197.423C301.641 197.408 301.746 197.413 301.846 197.439C301.947 197.464 302.041 197.509 302.124 197.572C302.207 197.634 302.277 197.712 302.33 197.802L309.756 210.284C309.862 210.462 309.894 210.674 309.844 210.876C309.794 211.077 309.667 211.25 309.489 211.357C309.368 211.427 309.23 211.464 309.09 211.467Z" fill="#263238"/>
<path d="M302.25 199.689C302.25 199.689 299.571 194.043 294.816 193.424" stroke="#263238" stroke-width="0.5" stroke-linecap="round" stroke-linejoin="round"/>
<path d="M302.328 197.802C302.328 197.802 300.762 193.15 301.952 190.174" stroke="#263238" stroke-width="0.5" stroke-linecap="round" stroke-linejoin="round"/>
<path d="M297.589 203.08C297.307 204.458 295.239 205.21 292.999 204.756C290.758 204.301 289.137 202.806 289.419 201.427C289.701 200.049 291.769 199.29 294.009 199.752C296.249 200.214 297.871 201.694 297.589 203.08Z" fill="#CF0303" stroke="#263238" stroke-width="0.5" stroke-linecap="round" stroke-linejoin="round"/>
<path d="M303.191 212.79C303.975 213.315 303.975 214.787 303.089 216.095C302.204 217.402 300.841 218.06 300.058 217.496C299.274 216.933 299.274 215.499 300.16 214.192C301.045 212.884 302.353 212.265 303.191 212.79Z" fill="#CF0303" stroke="#263238" stroke-width="0.5" stroke-linecap="round" stroke-linejoin="round"/>
<path d="M319.477 206.235C319.477 207.191 318.239 207.982 316.68 208.005C315.121 208.029 313.852 207.269 313.837 206.314C313.821 205.358 315.074 204.567 316.633 204.544C318.192 204.52 319.461 205.288 319.477 206.235Z" fill="#CF0303" stroke="#263238" stroke-width="0.5" stroke-linecap="round" stroke-linejoin="round"/>
<path d="M309.825 198.06C308.423 198.217 307.076 196.494 306.825 194.2C306.574 191.905 307.506 189.94 308.909 189.783C310.311 189.626 311.65 191.349 311.901 193.644C312.152 195.938 311.227 197.904 309.825 198.06Z" fill="#CF0303" stroke="#263238" stroke-width="0.5" stroke-linecap="round" stroke-linejoin="round"/>
<path d="M105.118 459.979H470" stroke="#263238" stroke-width="0.5" stroke-linecap="round" stroke-linejoin="round"/>
</svg>
