<svg width="1000" height="600" viewBox="0 0 1000 600" fill="none" xmlns="http://www.w3.org/2000/svg">
<path d="M560 305.435L460 350V332.609L536.708 300.272L536.087 301.359V298.641L536.708 299.728L460 267.391V250L560 294.565V305.435Z" fill="#CF0303"/>
<path d="M260 200L283.607 276.393H360L298.197 323.607L321.803 400L260 352.786L198.197 400L221.803 323.607L160 276.393H236.393L260 200Z" fill="#1E1E1E"/>
<path d="M712.941 289.412C712.941 304.031 701.09 315.882 686.471 315.882C671.852 315.882 660 304.031 660 289.412C660 274.792 671.852 262.941 686.471 262.941C701.09 262.941 712.941 274.792 712.941 289.412Z" fill="#1E1E1E"/>
<path d="M776.471 236.471C776.471 251.09 764.62 262.941 750 262.941C735.381 262.941 723.53 251.09 723.53 236.471C723.53 221.851 735.381 210 750 210C764.62 210 776.471 221.851 776.471 236.471Z" fill="#1E1E1E"/>
<path d="M776.471 305.294C776.471 319.913 764.62 331.765 750 331.765C735.381 331.765 723.53 319.913 723.53 305.294C723.53 290.675 735.381 278.824 750 278.824C764.62 278.824 776.471 290.675 776.471 305.294Z" fill="#1E1E1E"/>
<path d="M734.118 363.529C734.118 378.149 722.267 390 707.647 390C693.028 390 681.177 378.149 681.177 363.529C681.177 348.91 693.028 337.059 707.647 337.059C722.267 337.059 734.118 348.91 734.118 363.529Z" fill="#1E1E1E"/>
<path d="M818.824 363.529C818.824 378.149 806.972 390 792.353 390C777.734 390 765.883 378.149 765.883 363.529C765.883 348.91 777.734 337.059 792.353 337.059C806.972 337.059 818.824 348.91 818.824 363.529Z" fill="#1E1E1E"/>
<path d="M840 289.412C840 304.031 828.149 315.882 813.53 315.882C798.91 315.882 787.059 304.031 787.059 289.412C787.059 274.792 798.91 262.941 813.53 262.941C828.149 262.941 840 274.792 840 289.412Z" fill="#1E1E1E"/>
</svg>
