<svg width="1000" height="600" viewBox="0 0 1000 600" fill="none" xmlns="http://www.w3.org/2000/svg">
<path d="M530 302.717L480 325V316.304L518.354 300.136L518.043 300.679V299.321L518.354 299.864L480 283.696V275L530 297.283V302.717Z" fill="#CF0303"/>
<path d="M380 250L391.803 288.197H430L399.098 311.803L410.902 350L380 326.393L349.098 350L360.902 311.803L330 288.197H368.197L380 250Z" fill="#1E1E1E"/>
<path d="M606.471 294.706C606.471 302.016 600.545 307.941 593.235 307.941C585.926 307.941 580 302.016 580 294.706C580 287.396 585.926 281.471 593.235 281.471C600.545 281.471 606.471 287.396 606.471 294.706Z" fill="#1E1E1E"/>
<path d="M638.235 268.235C638.235 275.545 632.31 281.471 625 281.471C617.69 281.471 611.765 275.545 611.765 268.235C611.765 260.926 617.69 255 625 255C632.31 255 638.235 260.926 638.235 268.235Z" fill="#1E1E1E"/>
<path d="M638.235 302.647C638.235 309.957 632.31 315.882 625 315.882C617.69 315.882 611.765 309.957 611.765 302.647C611.765 295.337 617.69 289.412 625 289.412C632.31 289.412 638.235 295.337 638.235 302.647Z" fill="#1E1E1E"/>
<path d="M617.059 331.765C617.059 339.074 611.133 345 603.824 345C596.514 345 590.588 339.074 590.588 331.765C590.588 324.455 596.514 318.529 603.824 318.529C611.133 318.529 617.059 324.455 617.059 331.765Z" fill="#1E1E1E"/>
<path d="M659.412 331.765C659.412 339.074 653.486 345 646.176 345C638.867 345 632.941 339.074 632.941 331.765C632.941 324.455 638.867 318.529 646.176 318.529C653.486 318.529 659.412 324.455 659.412 331.765Z" fill="#1E1E1E"/>
<path d="M670 294.706C670 302.016 664.074 307.941 656.765 307.941C649.455 307.941 643.529 302.016 643.529 294.706C643.529 287.396 649.455 281.471 656.765 281.471C664.074 281.471 670 287.396 670 294.706Z" fill="#1E1E1E"/>
</svg>
