<svg width="570" height="570" viewBox="0 0 570 570" fill="none" xmlns="http://www.w3.org/2000/svg">
<path d="M410 133.711H166.62V460H410V133.711Z" fill="#CF0303"/>
<g opacity="0.1">
<path d="M410 133.711H166.62V460H410V133.711Z" fill="#020100"/>
</g>
<path d="M403.38 133.711H160V460H403.38V133.711Z" fill="#CF0303"/>
<path d="M389.539 146.735L174.705 149.498L178.416 443.448L393.25 440.685L389.539 146.735Z" fill="#EBEBEB"/>
<path d="M176.449 145.82L170.146 439.725L384.948 444.418L391.251 150.513L176.449 145.82Z" fill="#DBDBDB"/>
<path d="M388.102 148.114H173.25V442.088H388.102V148.114Z" fill="white"/>
<path d="M220.953 237.181C215.218 237.327 204.093 237.55 198.358 237.617C198.237 230.913 198.27 221.538 198.214 214.789V214.23H198.768C205.488 214.297 214.753 214.23 221.384 214.364C221.307 220.163 221.108 231.393 220.953 237.181ZM220.953 237.181C220.809 231.594 220.61 220.42 220.532 214.833L220.953 215.258C214.543 215.336 205.277 215.359 198.812 215.392L199.366 214.833C199.366 221.437 199.31 230.712 199.233 237.181L198.812 236.757C204.347 236.824 215.473 237.047 220.953 237.181Z" fill="#C7C7C7"/>
<path d="M232.743 218.622C249.005 217.862 265.4 217.862 281.662 218.622C265.389 219.393 249.005 219.381 232.743 218.622Z" fill="#C7C7C7"/>
<path d="M232.743 224.018C274.455 223.27 320.829 223.292 362.575 224.018C320.818 224.734 274.467 224.756 232.743 224.018Z" fill="#C7C7C7"/>
<path d="M200.407 224.823C201.226 225.516 202.001 226.231 202.776 226.957C203.551 227.684 204.292 228.432 204.99 229.192C206.484 230.678 207.923 232.209 209.34 233.762L206.805 233.93C208.818 229.674 211.127 225.566 213.713 221.638C214.997 219.687 216.363 217.78 217.809 215.917C219.269 214.036 220.852 212.255 222.547 210.587C221.87 212.876 221.041 215.115 220.068 217.292C219.127 219.448 218.086 221.56 216.968 223.616C214.737 227.74 212.229 231.705 209.462 235.483L208.067 237.36L206.96 235.651C205.787 233.896 204.636 232.131 203.529 230.332C202.997 229.415 202.422 228.522 201.912 227.594C201.403 226.667 200.861 225.784 200.407 224.823Z" fill="#263238"/>
<path d="M220.953 279.173C215.218 279.318 204.093 279.542 198.358 279.609C198.237 272.904 198.27 263.541 198.214 256.78V256.222H198.768C205.488 256.289 214.753 256.222 221.384 256.367C221.307 262.166 221.108 273.385 220.953 279.173ZM220.953 279.173C220.809 273.586 220.61 262.412 220.532 256.825L220.953 257.261C214.543 257.339 205.277 257.35 198.812 257.384L199.366 256.825C199.366 263.429 199.31 272.714 199.233 279.173L198.812 278.748C204.347 278.815 215.473 279.039 220.953 279.173Z" fill="#C7C7C7"/>
<path d="M232.743 260.579C249.005 259.82 265.4 259.808 281.662 260.579C265.389 261.339 249.005 261.339 232.743 260.579Z" fill="#C7C7C7"/>
<path d="M232.743 265.965C274.455 265.228 320.829 265.239 362.575 265.965C320.818 266.692 274.467 266.714 232.743 265.965Z" fill="#C7C7C7"/>
<path d="M200.407 266.77C201.226 267.463 202.001 268.178 202.776 268.904C203.551 269.63 204.292 270.379 204.99 271.139C206.484 272.636 207.923 274.167 209.34 275.72L206.805 275.876C208.823 271.644 211.131 267.56 213.713 263.652C214.997 261.701 216.363 259.794 217.809 257.931C219.266 256.047 220.849 254.267 222.547 252.601C221.87 254.89 221.042 257.129 220.068 259.306C219.127 261.473 218.086 263.574 216.968 265.641C214.737 269.761 212.229 273.722 209.462 277.497L208.067 279.385L206.96 277.664C205.787 275.921 204.636 274.156 203.529 272.346C202.997 271.429 202.422 270.535 201.912 269.608C201.403 268.68 200.861 267.731 200.407 266.77Z" fill="#263238"/>
<path d="M220.953 321.086C215.218 321.231 204.093 321.455 198.358 321.522C198.237 314.818 198.27 305.443 198.214 298.694V298.168H198.768C205.488 298.236 214.753 298.168 221.384 298.303C221.307 304.102 221.108 315.32 220.953 321.12V321.086ZM220.953 321.086C220.809 315.499 220.61 304.325 220.532 298.738L220.953 299.163C214.543 299.241 205.277 299.263 198.812 299.297L199.366 298.738C199.366 305.342 199.31 314.616 199.233 321.086L198.812 320.662C204.347 320.729 215.473 320.952 220.953 321.086Z" fill="#C7C7C7"/>
<path d="M232.743 302.526C249.005 301.766 265.4 301.766 281.662 302.526C265.389 303.286 249.005 303.286 232.743 302.526Z" fill="#C7C7C7"/>
<path d="M232.743 307.923C274.455 307.175 320.829 307.197 362.575 307.923C320.818 308.638 274.467 308.661 232.743 307.923Z" fill="#C7C7C7"/>
<path d="M220.953 363.033C215.218 363.178 204.093 363.402 198.358 363.469C198.237 356.764 198.27 347.401 198.214 340.64V340.082H198.768C205.488 340.149 214.753 340.082 221.384 340.227C221.307 346.015 221.108 357.245 220.953 363.033ZM220.953 363.033C220.809 357.446 220.61 346.272 220.532 340.685L220.953 341.121C214.543 341.199 205.277 341.21 198.812 341.244L199.366 340.685C199.366 347.289 199.31 356.574 199.233 363.033L198.812 362.608C204.347 362.675 215.473 362.899 220.953 363.033Z" fill="#C7C7C7"/>
<path d="M232.743 344.484C249.005 343.713 265.4 343.713 281.662 344.484C265.389 345.244 249.005 345.244 232.743 344.484Z" fill="#C7C7C7"/>
<path d="M232.743 349.87C274.455 349.133 320.829 349.144 362.575 349.87C320.818 350.596 274.467 350.619 232.743 349.87Z" fill="#C7C7C7"/>
<path d="M220.953 404.991C215.218 405.136 204.093 405.348 198.358 405.427C198.237 398.722 198.27 389.347 198.214 382.598V382.04H198.768C205.488 382.107 214.753 382.04 221.384 382.174C221.307 387.973 221.108 399.192 220.953 404.991ZM220.953 404.991C220.809 399.404 220.61 388.174 220.532 382.643L220.953 383.068C214.543 383.146 205.277 383.168 198.812 383.202L199.366 382.643C199.366 389.247 199.31 398.521 199.233 404.991L198.812 404.566C204.347 404.633 215.473 404.857 220.953 404.991Z" fill="#C7C7C7"/>
<path d="M232.743 386.442C249.005 385.682 265.4 385.682 281.662 386.442C265.389 387.202 249.005 387.202 232.743 386.442Z" fill="#C7C7C7"/>
<path d="M232.743 391.828C274.455 391.079 320.829 391.102 362.575 391.828C320.818 392.543 274.467 392.566 232.743 391.828Z" fill="#C7C7C7"/>
<path d="M260.473 179.368H257.495V189.424C257.495 189.7 257.387 189.964 257.194 190.159C257.001 190.354 256.739 190.463 256.466 190.463C256.193 190.463 255.931 190.354 255.738 190.159C255.545 189.964 255.436 189.7 255.436 189.424V179.368H252.47C252.195 179.365 251.934 179.253 251.741 179.056C251.548 178.859 251.44 178.594 251.44 178.317C251.439 178.18 251.464 178.045 251.515 177.918C251.567 177.791 251.642 177.676 251.738 177.579C251.834 177.482 251.948 177.406 252.074 177.354C252.199 177.302 252.334 177.277 252.47 177.278H260.473C260.609 177.277 260.743 177.302 260.869 177.354C260.995 177.406 261.109 177.482 261.205 177.579C261.301 177.676 261.376 177.791 261.428 177.918C261.479 178.045 261.504 178.18 261.503 178.317C261.487 178.589 261.374 178.845 261.185 179.039C260.995 179.232 260.742 179.349 260.473 179.368Z" fill="#CF0303"/>
<path d="M269.496 187.39H264.946L264.027 189.849C263.95 190.045 263.815 190.212 263.641 190.33C263.467 190.448 263.262 190.51 263.053 190.508C262.933 190.508 262.814 190.489 262.699 190.452C262.447 190.343 262.243 190.143 262.129 189.891C262.014 189.639 261.996 189.353 262.079 189.089L266.219 177.915C266.306 177.721 266.446 177.555 266.622 177.439C266.799 177.322 267.005 177.258 267.216 177.256C267.427 177.258 267.633 177.322 267.809 177.439C267.986 177.555 268.125 177.721 268.212 177.915L272.352 189.089C272.435 189.353 272.417 189.639 272.303 189.891C272.188 190.143 271.985 190.343 271.732 190.452C271.618 190.489 271.498 190.508 271.378 190.508C271.17 190.511 270.966 190.449 270.794 190.331C270.622 190.213 270.49 190.045 270.415 189.849L269.496 187.39ZM268.732 185.312L267.216 181.245L265.699 185.312H268.732Z" fill="#CF0303"/>
<path d="M274.178 187.223C274.26 187.123 274.36 187.04 274.473 186.979C274.586 186.919 274.71 186.881 274.837 186.868C274.965 186.856 275.093 186.869 275.216 186.907C275.338 186.945 275.452 187.006 275.551 187.089C276.555 187.952 277.81 188.462 279.127 188.541C279.963 188.561 280.784 188.315 281.474 187.837C281.705 187.694 281.898 187.496 282.037 187.26C282.176 187.025 282.256 186.759 282.271 186.485C282.276 186.269 282.218 186.055 282.105 185.871C281.96 185.644 281.767 185.454 281.54 185.312C280.747 184.863 279.881 184.56 278.983 184.418C278.15 184.279 277.339 184.031 276.57 183.681C275.86 183.366 275.254 182.854 274.82 182.206C274.539 181.738 274.393 181.2 274.4 180.653C274.418 180.107 274.563 179.573 274.822 179.093C275.082 178.614 275.449 178.203 275.894 177.893C276.848 177.231 277.981 176.883 279.138 176.898C280.619 176.974 282.043 177.5 283.223 178.407C283.431 178.551 283.575 178.773 283.623 179.024C283.67 179.275 283.618 179.535 283.477 179.747C283.411 179.857 283.323 179.951 283.22 180.025C283.116 180.1 282.999 180.152 282.875 180.179C282.751 180.206 282.622 180.208 282.498 180.183C282.373 180.159 282.254 180.11 282.149 180.038C281.293 179.33 280.242 178.904 279.138 178.82C278.387 178.809 277.651 179.036 277.035 179.468C276.83 179.593 276.659 179.766 276.535 179.972C276.412 180.178 276.34 180.412 276.326 180.653C276.313 180.841 276.36 181.029 276.459 181.189C276.59 181.385 276.76 181.552 276.957 181.681C277.681 182.103 278.477 182.383 279.304 182.507C280.196 182.664 281.066 182.931 281.894 183.301C282.652 183.639 283.3 184.185 283.765 184.876C284.061 185.36 284.218 185.917 284.219 186.485C284.201 187.068 284.044 187.638 283.763 188.147C283.482 188.656 283.084 189.09 282.603 189.413C281.595 190.147 280.381 190.538 279.138 190.53C277.378 190.45 275.693 189.787 274.344 188.642C274.241 188.56 274.154 188.458 274.09 188.343C274.025 188.227 273.984 188.099 273.968 187.967C273.953 187.835 273.963 187.702 274 187.574C274.036 187.446 274.096 187.327 274.178 187.223Z" fill="#CF0303"/>
<path d="M287.087 189.469V178.407C287.087 178.131 287.195 177.867 287.388 177.672C287.582 177.477 287.843 177.367 288.116 177.367C288.389 177.367 288.651 177.477 288.844 177.672C289.037 177.867 289.146 178.131 289.146 178.407V183.837L295.212 177.691C295.307 177.593 295.421 177.514 295.546 177.461C295.672 177.407 295.807 177.38 295.943 177.38C296.079 177.38 296.214 177.407 296.34 177.461C296.465 177.514 296.579 177.593 296.674 177.691C296.866 177.888 296.973 178.153 296.973 178.429C296.973 178.705 296.866 178.97 296.674 179.166L292.556 183.301L296.718 188.81C296.806 188.914 296.872 189.035 296.912 189.165C296.952 189.296 296.965 189.434 296.95 189.569C296.936 189.705 296.894 189.837 296.827 189.956C296.761 190.075 296.671 190.179 296.563 190.262C296.383 190.423 296.15 190.511 295.91 190.508C295.763 190.505 295.618 190.469 295.486 190.403C295.354 190.338 295.238 190.244 295.146 190.128L291.094 184.776L289.146 186.787V189.469C289.146 189.744 289.037 190.009 288.844 190.204C288.651 190.398 288.389 190.508 288.116 190.508C287.843 190.508 287.582 190.398 287.388 190.204C287.195 190.009 287.087 189.744 287.087 189.469Z" fill="#CF0303"/>
<path d="M299.885 187.223C299.964 187.122 300.063 187.038 300.175 186.977C300.287 186.915 300.41 186.877 300.537 186.865C300.664 186.852 300.792 186.865 300.914 186.904C301.036 186.942 301.149 187.005 301.246 187.089C302.251 187.951 303.506 188.461 304.822 188.541C305.658 188.561 306.479 188.315 307.169 187.837C307.403 187.696 307.598 187.498 307.739 187.263C307.88 187.027 307.962 186.76 307.977 186.485C307.983 186.267 307.921 186.052 307.8 185.871C307.657 185.647 307.468 185.457 307.246 185.312C306.45 184.861 305.58 184.558 304.678 184.418C303.845 184.279 303.034 184.031 302.265 183.681C301.557 183.368 300.953 182.856 300.527 182.206C300.236 181.741 300.086 181.202 300.095 180.653C300.113 180.107 300.258 179.573 300.517 179.093C300.777 178.614 301.144 178.203 301.589 177.893C302.543 177.231 303.676 176.883 304.833 176.898C306.314 176.972 307.739 177.498 308.918 178.407C309.132 178.555 309.279 178.783 309.327 179.041C309.375 179.298 309.319 179.565 309.172 179.781C309.026 179.997 308.8 180.146 308.544 180.194C308.289 180.242 308.025 180.186 307.811 180.038C306.955 179.33 305.904 178.904 304.8 178.82C304.049 178.809 303.313 179.036 302.696 179.468C302.494 179.595 302.324 179.768 302.201 179.974C302.078 180.18 302.005 180.413 301.988 180.653C301.98 180.84 302.027 181.027 302.121 181.189C302.257 181.385 302.43 181.552 302.63 181.681C303.35 182.103 304.142 182.383 304.966 182.507C305.854 182.666 306.72 182.932 307.545 183.301C308.302 183.639 308.951 184.185 309.416 184.876C309.716 185.358 309.874 185.916 309.87 186.485C309.851 187.068 309.695 187.638 309.414 188.147C309.133 188.656 308.735 189.09 308.254 189.413C307.246 190.149 306.032 190.54 304.789 190.53C303.03 190.446 301.346 189.782 299.995 188.642C299.894 188.557 299.811 188.453 299.751 188.335C299.69 188.217 299.654 188.088 299.644 187.956C299.633 187.824 299.649 187.691 299.691 187.565C299.732 187.439 299.798 187.323 299.885 187.223Z" fill="#CF0303"/>
<path d="M332.12 127.755H226.587V160.227H332.12V127.755Z" fill="#C7C7C7"/>
<path d="M311.618 110H246.126L243.226 127.755H315.492L311.618 110ZM279.348 122.738C278.584 122.738 277.837 122.51 277.201 122.081C276.566 121.653 276.071 121.043 275.778 120.331C275.486 119.618 275.41 118.834 275.559 118.078C275.708 117.321 276.076 116.626 276.616 116.081C277.156 115.536 277.845 115.164 278.594 115.014C279.344 114.863 280.12 114.941 280.826 115.236C281.532 115.531 282.136 116.031 282.56 116.672C282.985 117.313 283.211 118.067 283.211 118.839C283.213 119.351 283.114 119.859 282.92 120.333C282.727 120.806 282.442 121.237 282.083 121.599C281.724 121.962 281.298 122.249 280.828 122.444C280.359 122.64 279.856 122.74 279.348 122.738Z" fill="#C7C7C7"/>
<path d="M315.492 127.755H243.226L243.879 123.789H314.618L315.492 127.755Z" fill="#A6A6A6"/>
</svg>
